ply
format ascii 1.0
comment Created by Blender 2.80 (sub 75) - www.blender.org, source file: 'lowpolycars.blend'
element vertex 328
property float x
property float y
property float z
property float nx
property float ny
property float nz
property uchar red
property uchar green
property uchar blue
property uchar alpha
element face 370
property list uchar uint vertex_indices
end_header
25.334797 -6.130012 -15.140773 0.577349 -0.577349 -0.577349 255 182 0 255
25.334797 2.857635 -15.140774 0.615223 0.527482 -0.585833 255 182 0 255
25.334799 2.857639 20.326429 0.615223 0.527482 0.585833 255 182 0 255
25.334799 -6.130008 20.326431 0.577349 -0.577349 0.577349 255 182 2 255
-28.155684 5.322140 20.326431 -0.340739 0.437422 0.832179 255 182 0 255
-51.204159 1.539597 20.326431 -0.689596 0.443861 0.572192 255 182 0 255
-49.128662 -6.130008 20.326433 -0.489578 -0.639668 0.592517 255 182 1 255
-28.155684 -6.130008 20.326433 0.000000 -0.707083 0.707083 255 182 0 255
9.381668 5.322138 -15.140774 0.352672 0.350993 -0.867397 255 182 0 255
25.334797 2.857635 -15.140774 0.615223 0.527482 -0.585833 255 182 3 255
25.334797 -6.130012 -15.140773 0.577349 -0.577349 -0.577349 255 183 14 255
9.381668 -6.130012 -15.140772 0.000000 -0.707083 -0.707083 255 182 0 255
9.381668 5.322138 -15.140774 0.352672 0.350993 -0.867397 255 182 1 255
9.381670 5.322140 20.326429 0.352672 0.350993 0.867397 255 182 2 255
9.381670 -6.130008 20.326431 0.000000 -0.707083 0.707083 255 203 128 255
9.381670 5.322140 20.326429 0.352672 0.350993 0.867397 255 182 0 255
8.340956 5.322140 20.326431 0.000000 0.000000 1.000000 255 182 0 255
-8.661390 5.322140 20.326431 0.000000 0.000000 1.000000 255 182 0 255
-9.647900 5.322140 20.326431 0.000000 0.000000 1.000000 255 182 0 255
-27.461229 5.322140 20.326431 0.000000 0.000000 1.000000 255 182 0 255
-28.155685 -6.130012 -15.140771 0.000000 -0.707083 -0.707083 255 182 0 255
-49.128666 -6.130012 -15.140770 -0.489578 -0.639668 -0.592517 255 182 7 255
-51.204163 1.539593 -15.140770 -0.689596 0.443861 -0.572192 255 185 50 255
-28.155685 5.322135 -15.140772 -0.340739 0.437422 -0.832179 255 182 0 255
-28.155685 -6.130012 -15.140771 0.000000 -0.707083 -0.707083 255 255 255 255
9.381668 -6.130012 -15.140772 0.000000 -0.707083 -0.707083 255 255 255 255
9.381670 -6.130008 20.326431 0.000000 -0.707083 0.707083 255 255 255 255
-28.155684 -6.130008 20.326433 0.000000 -0.707083 0.707083 255 255 255 255
-26.485783 5.322138 -15.140773 0.000000 0.000000 -1.000000 255 182 0 255
-9.647900 5.322138 -15.140773 0.000000 0.000000 -1.000000 255 182 0 255
-8.661392 5.322138 -15.140773 0.000000 0.000000 -1.000000 255 182 0 255
8.503000 5.322138 -15.140773 0.000000 0.000000 -1.000000 255 182 0 255
7.353469 18.875069 20.326426 0.529069 0.614124 0.585559 255 182 0 255
7.353468 18.875063 -15.140775 0.529069 0.614124 -0.585559 255 182 0 255
6.637821 18.875067 -15.140775 0.000000 0.707083 -0.707083 255 182 1 255
-8.661390 18.875071 -15.140775 0.000000 0.707083 -0.707083 255 182 1 255
-9.647900 18.875080 -15.140775 0.000000 0.707083 -0.707083 255 182 1 255
-21.595600 18.875097 -15.140775 0.000000 0.707083 -0.707083 255 182 2 255
-8.661390 18.875069 20.326427 0.000000 0.707083 0.707083 255 183 3 255
6.533273 18.875069 20.326427 0.000000 0.707083 0.707083 255 183 2 255
-22.267143 18.875069 20.326427 -0.437880 0.667684 0.602008 255 183 18 255
-21.630749 18.875069 20.326427 0.000000 0.707083 0.707083 255 183 9 255
-9.647900 18.875069 20.326427 0.000000 0.707083 0.707083 255 183 5 255
-22.267145 18.875097 -15.140774 -0.437880 0.667684 -0.602008 255 182 4 255
-22.267143 18.875082 -14.263838 -0.548387 0.836207 0.000000 255 183 11 255
-22.267143 18.875074 19.380939 -0.548418 0.836177 0.000000 255 183 15 255
25.334799 -6.130008 20.326431 0.577349 -0.577349 0.577349 255 182 0 255
25.334797 -6.130012 -15.140773 0.577349 -0.577349 -0.577349 255 255 255 255
25.334799 -6.130008 20.326431 0.577349 -0.577349 0.577349 255 255 255 255
9.381668 5.322138 -15.140774 0.352672 0.350993 -0.867397 255 255 255 255
7.353468 18.875063 -15.140775 0.529069 0.614124 -0.585559 255 255 255 255
7.353469 18.875069 20.326426 0.529069 0.614124 0.585559 255 255 255 255
9.381670 5.322140 20.326429 0.352672 0.350993 0.867397 255 255 255 255
-21.630749 18.875069 20.326427 0.000000 0.707083 0.707083 255 182 0 255
-22.267143 18.875069 20.326427 -0.437880 0.667684 0.602008 255 182 0 255
-28.155685 5.322137 -14.263835 -0.614521 0.788873 0.000000 255 182 0 255
-22.267143 18.875082 -14.263838 -0.548387 0.836207 0.000000 255 182 0 255
6.637821 18.875067 -15.140775 0.000000 0.707083 -0.707083 255 182 0 255
-35.248058 -4.894391 18.440592 0.000000 0.000000 -0.999969 2 2 2 255
-40.517406 -4.894391 18.440592 -0.744102 0.000000 -0.668050 20 20 20 255
-40.199627 -3.191218 18.440592 -0.694266 0.266427 -0.668538 13 13 13 255
-40.517406 -4.894391 18.440592 -0.744102 0.000000 -0.668050 2 2 2 255
-40.517406 -4.894391 21.759790 -0.744102 0.000000 0.668050 0 0 0 255
-40.199627 -3.191217 21.759790 -0.694266 0.266427 0.668538 0 0 0 255
-40.199627 -3.191218 18.440592 -0.694266 0.266427 -0.668538 6 6 6 255
-35.248058 -4.894391 21.759790 0.000000 0.000000 0.999969 0 0 0 255
-39.284615 -1.693473 18.440592 -0.556108 0.492080 -0.669729 61 61 61 255
-39.284615 -1.693472 21.759790 -0.556108 0.492080 0.669729 0 0 0 255
-39.284615 -1.693473 18.440592 -0.556108 0.492080 -0.669729 28 28 28 255
-37.882732 -0.581805 18.440592 -0.356029 0.650349 -0.671010 1 1 1 255
-39.284615 -1.693473 18.440592 -0.556108 0.492080 -0.669729 9 9 9 255
-37.882732 -0.581805 21.759790 -0.356029 0.650349 0.671010 0 0 0 255
-37.882732 -0.581805 18.440592 -0.356029 0.650349 -0.671010 0 0 0 255
-36.163071 0.009700 18.440592 -0.122135 0.730583 -0.671804 0 0 0 255
-36.163071 0.009701 21.759790 -0.122135 0.730583 0.671804 0 0 0 255
-34.333046 0.009700 18.440592 0.122135 0.730583 -0.671804 0 0 0 255
-34.333046 0.009701 21.759790 0.122135 0.730583 0.671804 0 0 0 255
-32.613384 -0.581805 18.440592 0.356029 0.650349 -0.671010 0 0 0 255
-32.613384 -0.581805 21.759790 0.356029 0.650349 0.671010 0 0 0 255
-31.211504 -1.693473 18.440592 0.556108 0.492080 -0.669729 0 0 0 255
-31.211504 -1.693472 21.759790 0.556108 0.492080 0.669729 2 2 2 255
-31.211504 -1.693472 21.759790 0.556108 0.492080 0.669729 0 0 0 255
-30.296492 -3.191218 18.440592 0.694266 0.266427 -0.668538 0 0 0 255
-30.296492 -3.191217 21.759790 0.694266 0.266427 0.668538 13 13 13 255
-29.978710 -4.894391 18.440592 0.744102 0.000000 -0.668050 0 0 0 255
-29.978710 -4.894391 21.759790 0.744102 0.000000 0.668050 0 0 0 255
-30.296492 -6.597564 18.440594 0.694266 -0.266427 -0.668538 0 0 0 255
-30.296492 -6.597563 21.759792 0.694266 -0.266427 0.668538 0 0 0 255
-30.296492 -6.597563 21.759792 0.694266 -0.266427 0.668538 7 7 7 255
-31.211504 -8.095309 18.440594 0.556108 -0.492080 -0.669729 0 0 0 255
-30.296492 -6.597564 18.440594 0.694266 -0.266427 -0.668538 2 2 2 255
-30.296492 -6.597563 21.759792 0.694266 -0.266427 0.668538 6 6 6 255
-31.211504 -8.095308 21.759792 0.556108 -0.492080 0.669729 0 0 0 255
-32.613384 -9.206976 18.440594 0.356029 -0.650349 -0.671010 0 0 0 255
-32.613384 -9.206975 21.759792 0.356029 -0.650349 0.671010 37 37 37 255
-32.613384 -9.206975 21.759792 0.356029 -0.650349 0.671010 0 0 0 255
-34.333046 -9.798482 18.440594 0.122135 -0.730583 -0.671804 0 0 0 255
-34.333046 -9.798481 21.759792 0.122135 -0.730583 0.671804 68 68 68 255
-34.333046 -9.798481 21.759792 0.122135 -0.730583 0.671804 0 0 0 255
-36.163071 -9.798482 18.440594 -0.122135 -0.730583 -0.671804 0 0 0 255
-34.333046 -9.798482 18.440594 0.122135 -0.730583 -0.671804 255 255 255 255
-34.333046 -9.798481 21.759792 0.122135 -0.730583 0.671804 255 255 255 255
-36.163071 -9.798481 21.759792 -0.122135 -0.730583 0.671804 255 255 255 255
-36.163071 -9.798482 18.440594 -0.122135 -0.730583 -0.671804 255 255 255 255
-36.163071 -9.798481 21.759792 -0.122135 -0.730583 0.671804 0 0 0 255
-37.882732 -9.206976 18.440594 -0.356029 -0.650349 -0.671010 0 0 0 255
-36.163071 -9.798482 18.440594 -0.122135 -0.730583 -0.671804 16 16 16 255
-37.882732 -9.206975 21.759792 -0.356029 -0.650349 0.671010 0 0 0 255
-37.882732 -9.206976 18.440594 -0.356029 -0.650349 -0.671010 19 19 19 255
-39.284615 -8.095309 18.440594 -0.556108 -0.492080 -0.669729 0 0 0 255
-39.284615 -8.095308 21.759792 -0.556108 -0.492080 0.669729 0 0 0 255
-40.199627 -6.597564 18.440594 -0.694266 -0.266427 -0.668538 0 0 0 255
-40.199627 -6.597563 21.759792 -0.694266 -0.266427 0.668538 0 0 0 255
-35.248058 -4.894395 -17.084480 0.000000 0.000000 -1.000000 0 0 0 255
-40.517406 -4.894395 -17.084480 -0.744102 0.000000 -0.668050 0 0 0 255
-40.199627 -3.191222 -17.084480 -0.694266 0.266427 -0.668538 0 0 0 255
-40.517406 -4.894395 -13.765280 -0.744102 0.000000 0.668050 10 10 10 255
-40.199627 -3.191221 -13.765280 -0.694266 0.266427 0.668538 1 1 1 255
-40.517406 -4.894395 -13.765280 -0.744102 0.000000 0.668050 1 1 1 255
-35.248058 -4.894395 -13.765280 0.000000 0.000000 1.000000 0 0 0 255
-40.199627 -3.191221 -13.765280 -0.694266 0.266427 0.668538 0 0 0 255
-39.284615 -1.693477 -17.084480 -0.556108 0.492080 -0.669729 0 0 0 255
-39.284615 -1.693476 -13.765281 -0.556108 0.492080 0.669729 5 5 5 255
-39.284615 -1.693476 -13.765281 -0.556108 0.492080 0.669729 0 0 0 255
-37.882732 -0.581810 -17.084480 -0.356029 0.650349 -0.671010 0 0 0 255
-37.882732 -0.581809 -13.765281 -0.356029 0.650349 0.671010 49 49 49 255
-37.882732 -0.581809 -13.765281 -0.356029 0.650349 0.671010 5 5 5 255
-36.163074 0.009696 -17.084480 -0.122135 0.730583 -0.671804 0 0 0 255
-36.163074 0.009697 -13.765281 -0.122135 0.730583 0.671804 86 86 86 255
-36.163074 0.009697 -13.765281 -0.122135 0.730583 0.671804 36 36 36 255
-34.333046 0.009696 -17.084480 0.122135 0.730583 -0.671804 0 0 0 255
-36.163074 0.009697 -13.765281 -0.122135 0.730583 0.671804 2 2 2 255
-34.333046 0.009697 -13.765281 0.122135 0.730583 0.671804 0 0 0 255
-34.333046 0.009697 -13.765281 0.122135 0.730583 0.671804 2 2 2 255
-32.613384 -0.581810 -17.084480 0.356029 0.650349 -0.671010 0 0 0 255
-32.613384 -0.581809 -13.765281 0.356029 0.650349 0.671010 0 0 0 255
-31.211506 -1.693477 -17.084480 0.556108 0.492080 -0.669729 0 0 0 255
-31.211506 -1.693476 -13.765281 0.556108 0.492080 0.669729 0 0 0 255
-30.296494 -3.191222 -17.084480 0.694266 0.266427 -0.668538 0 0 0 255
-30.296492 -3.191221 -13.765280 0.694266 0.266427 0.668538 0 0 0 255
-30.296492 -3.191221 -13.765280 0.694266 0.266427 0.668538 5 5 5 255
-29.978712 -4.894395 -17.084480 0.744102 0.000000 -0.668050 0 0 0 255
-29.978712 -4.894395 -13.765280 0.744102 0.000000 0.668050 0 0 0 255
-30.296494 -6.597568 -17.084478 0.694266 -0.266427 -0.668538 0 0 0 255
-30.296492 -6.597568 -13.765280 0.694266 -0.266427 0.668538 1 1 1 255
-30.296492 -6.597568 -13.765280 0.694266 -0.266427 0.668538 9 9 9 255
-31.211506 -8.095313 -17.084478 0.556108 -0.492080 -0.669729 0 0 0 255
-30.296492 -6.597568 -13.765280 0.694266 -0.266427 0.668538 92 92 92 255
-31.211506 -8.095312 -13.765280 0.556108 -0.492080 0.669729 0 0 0 255
-32.613384 -9.206981 -17.084478 0.356029 -0.650349 -0.671010 0 0 0 255
-32.613384 -9.206980 -13.765279 0.356029 -0.650349 0.671010 1 1 1 255
-32.613384 -9.206980 -13.765279 0.356029 -0.650349 0.671010 3 3 3 255
-34.333046 -9.798486 -17.084478 0.122135 -0.730583 -0.671804 40 40 40 255
-32.613384 -9.206981 -17.084478 0.356029 -0.650349 -0.671010 12 12 12 255
-34.333046 -9.798486 -13.765279 0.122135 -0.730583 0.671804 0 0 0 255
-34.333046 -9.798486 -17.084478 0.122135 -0.730583 -0.671804 0 0 0 255
-36.163074 -9.798486 -17.084478 -0.122135 -0.730583 -0.671804 15 15 15 255
-34.333046 -9.798486 -17.084478 0.122135 -0.730583 -0.671804 255 255 255 255
-34.333046 -9.798486 -13.765279 0.122135 -0.730583 0.671804 255 255 255 255
-36.163074 -9.798486 -13.765279 -0.122135 -0.730583 0.671804 255 255 255 255
-36.163074 -9.798486 -17.084478 -0.122135 -0.730583 -0.671804 255 255 255 255
-36.163074 -9.798486 -13.765279 -0.122135 -0.730583 0.671804 0 0 0 255
-37.882732 -9.206981 -17.084478 -0.356029 -0.650349 -0.671010 0 0 0 255
-36.163074 -9.798486 -13.765279 -0.122135 -0.730583 0.671804 158 158 158 255
-37.882732 -9.206980 -13.765279 -0.356029 -0.650349 0.671010 0 0 0 255
-37.882732 -9.206980 -13.765279 -0.356029 -0.650349 0.671010 5 5 5 255
-39.284615 -8.095313 -17.084478 -0.556108 -0.492080 -0.669729 0 0 0 255
-39.284615 -8.095312 -13.765280 -0.556108 -0.492080 0.669729 0 0 0 255
-39.284615 -8.095312 -13.765280 -0.556108 -0.492080 0.669729 36 36 36 255
-40.199627 -6.597568 -17.084478 -0.694266 -0.266427 -0.668538 0 0 0 255
-40.199627 -6.597568 -13.765280 -0.694266 -0.266427 0.668538 2 2 2 255
-40.199627 -6.597568 -13.765280 -0.694266 -0.266427 0.668538 15 15 15 255
8.276523 -5.149855 18.983213 0.000000 0.000000 -1.000000 0 0 0 255
3.007174 -5.149855 18.983213 -0.744102 0.000000 -0.668050 0 0 0 255
3.324955 -3.446681 18.983213 -0.694266 0.266427 -0.668538 0 0 0 255
3.007174 -5.149854 22.302412 -0.744102 0.000000 0.668050 0 0 0 255
3.324955 -3.446681 22.302412 -0.694266 0.266427 0.668538 0 0 0 255
8.276523 -5.149854 22.302412 0.000000 0.000000 1.000000 0 0 0 255
3.324955 -3.446681 22.302412 -0.694266 0.266427 0.668538 2 2 2 255
4.239968 -1.948936 18.983213 -0.556108 0.492080 -0.669729 0 0 0 255
4.239968 -1.948936 22.302412 -0.556108 0.492080 0.669729 1 1 1 255
4.239968 -1.948936 22.302412 -0.556108 0.492080 0.669729 9 9 9 255
5.641849 -0.837269 18.983213 -0.356029 0.650349 -0.671010 0 0 0 255
5.641849 -0.837269 22.302412 -0.356029 0.650349 0.671010 2 2 2 255
5.641849 -0.837269 22.302412 -0.356029 0.650349 0.671010 6 6 6 255
7.361510 -0.245763 18.983213 -0.122135 0.730583 -0.671804 0 0 0 255
5.641849 -0.837269 22.302412 -0.356029 0.650349 0.671010 0 0 0 255
7.361510 -0.245763 22.302412 -0.122135 0.730583 0.671804 0 0 0 255
9.191535 -0.245763 18.983213 0.122135 0.730583 -0.671804 0 0 0 255
9.191535 -0.245763 22.302412 0.122135 0.730583 0.671804 0 0 0 255
10.911197 -0.837269 18.983213 0.356029 0.650349 -0.671010 0 0 0 255
9.191535 -0.245763 18.983213 0.122135 0.730583 -0.671804 1 1 1 255
10.911197 -0.837269 22.302412 0.356029 0.650349 0.671010 0 0 0 255
12.313077 -1.948936 18.983213 0.556108 0.492080 -0.669729 0 0 0 255
12.313078 -1.948936 22.302412 0.556108 0.492080 0.669729 0 0 0 255
13.228090 -3.446681 18.983213 0.694266 0.266427 -0.668538 0 0 0 255
13.228090 -3.446681 22.302412 0.694266 0.266427 0.668538 0 0 0 255
13.545871 -5.149855 18.983213 0.744102 0.000000 -0.668050 72 72 72 255
13.545871 -5.149854 22.302412 0.744102 0.000000 0.668050 0 0 0 255
13.545871 -5.149855 18.983213 0.744102 0.000000 -0.668050 0 0 0 255
13.545871 -5.149855 18.983213 0.744102 0.000000 -0.668050 10 10 10 255
13.228090 -6.853028 18.983215 0.694266 -0.266427 -0.668538 0 0 0 255
13.228090 -6.853027 22.302414 0.694266 -0.266427 0.668538 0 0 0 255
12.313077 -8.350773 18.983215 0.556108 -0.492080 -0.669729 0 0 0 255
12.313078 -8.350772 22.302414 0.556108 -0.492080 0.669729 0 0 0 255
10.911197 -9.462440 18.983215 0.356029 -0.650349 -0.671010 0 0 0 255
12.313077 -8.350773 18.983215 0.556108 -0.492080 -0.669729 1 1 1 255
10.911197 -9.462440 22.302414 0.356029 -0.650349 0.671010 0 0 0 255
10.911197 -9.462440 18.983215 0.356029 -0.650349 -0.671010 153 153 153 255
9.191535 -10.053946 18.983215 0.122135 -0.730583 -0.671804 0 0 0 255
9.191535 -10.053946 22.302414 0.122135 -0.730583 0.671804 93 93 93 255
9.191535 -10.053946 22.302414 0.122135 -0.730583 0.671804 48 48 48 255
7.361510 -10.053946 18.983215 -0.122135 -0.730583 -0.671804 0 0 0 255
7.361510 -10.053946 22.302414 -0.122135 -0.730583 0.671804 72 72 72 255
7.361510 -10.053946 18.983215 -0.122135 -0.730583 -0.671804 255 255 255 255
7.361510 -10.053946 22.302414 -0.122135 -0.730583 0.671804 16 16 16 255
5.641849 -9.462440 18.983215 -0.356029 -0.650349 -0.671010 0 0 0 255
7.361510 -10.053946 22.302414 -0.122135 -0.730583 0.671804 197 197 197 255
5.641849 -9.462440 22.302414 -0.356029 -0.650349 0.671010 53 53 53 255
5.641849 -9.462440 22.302414 -0.356029 -0.650349 0.671010 64 64 64 255
4.239968 -8.350773 18.983215 -0.556108 -0.492080 -0.669729 0 0 0 255
4.239968 -8.350772 22.302414 -0.556108 -0.492080 0.669729 2 2 2 255
4.239968 -8.350772 22.302414 -0.556108 -0.492080 0.669729 0 0 0 255
3.324955 -6.853028 18.983215 -0.694266 -0.266427 -0.668538 0 0 0 255
3.324955 -6.853027 22.302414 -0.694266 -0.266427 0.668538 1 1 1 255
3.324955 -6.853027 22.302414 -0.694266 -0.266427 0.668538 18 18 18 255
3.324955 -6.853027 22.302414 -0.694266 -0.266427 0.668538 13 13 13 255
8.276521 -5.149859 -16.541859 0.000000 0.000000 -1.000000 0 0 0 255
3.007173 -5.149859 -16.541859 -0.744102 0.000000 -0.668050 0 0 0 255
3.324954 -3.446686 -16.541859 -0.694266 0.266427 -0.668538 0 0 0 255
3.007173 -5.149858 -13.222658 -0.744102 0.000000 0.668050 0 0 0 255
3.324954 -3.446686 -13.222658 -0.694266 0.266427 0.668538 0 0 0 255
3.007173 -5.149858 -13.222658 -0.744102 0.000000 0.668050 1 1 1 255
8.276521 -5.149858 -13.222658 0.000000 0.000000 1.000000 4 4 4 255
4.239966 -1.948941 -16.541857 -0.556108 0.492080 -0.669729 0 0 0 255
4.239966 -1.948940 -13.222659 -0.556108 0.492080 0.669729 0 0 0 255
5.641847 -0.837273 -16.541857 -0.356029 0.650349 -0.671010 0 0 0 255
5.641847 -0.837273 -13.222659 -0.356029 0.650349 0.671010 0 0 0 255
7.361508 -0.245768 -16.541859 -0.122135 0.730583 -0.671804 0 0 0 255
7.361508 -0.245767 -13.222659 -0.122135 0.730583 0.671804 0 0 0 255
9.191534 -0.245768 -16.541859 0.122135 0.730583 -0.671804 0 0 0 255
9.191534 -0.245767 -13.222659 0.122135 0.730583 0.671804 0 0 0 255
10.911195 -0.837273 -16.541859 0.356029 0.650349 -0.671010 0 0 0 255
9.191534 -0.245768 -16.541859 0.122135 0.730583 -0.671804 255 255 255 255
10.911195 -0.837273 -13.222659 0.356029 0.650349 0.671010 0 0 0 255
10.911195 -0.837273 -16.541859 0.356029 0.650349 -0.671010 255 255 255 255
12.313076 -1.948941 -16.541859 0.556108 0.492080 -0.669729 4 4 4 255
10.911195 -0.837273 -13.222659 0.356029 0.650349 0.671010 255 255 255 255
12.313076 -1.948940 -13.222659 0.556108 0.492080 0.669729 255 255 255 255
12.313076 -1.948941 -16.541859 0.556108 0.492080 -0.669729 255 255 255 255
12.313076 -1.948940 -13.222659 0.556108 0.492080 0.669729 0 0 0 255
13.228088 -3.446686 -16.541859 0.694266 0.266427 -0.668538 2 2 2 255
13.228088 -3.446686 -13.222658 0.694266 0.266427 0.668538 255 255 255 255
13.228088 -3.446686 -16.541859 0.694266 0.266427 -0.668538 255 255 255 255
13.228088 -3.446686 -13.222658 0.694266 0.266427 0.668538 0 0 0 255
13.545869 -5.149859 -16.541859 0.744102 0.000000 -0.668050 2 2 2 255
13.545869 -5.149858 -13.222658 0.744102 0.000000 0.668050 255 255 255 255
13.545869 -5.149859 -16.541859 0.744102 0.000000 -0.668050 255 255 255 255
13.545869 -5.149858 -13.222658 0.744102 0.000000 0.668050 0 0 0 255
13.228088 -6.853032 -16.541857 0.694266 -0.266427 -0.668538 56 56 56 255
13.228088 -6.853032 -13.222658 0.694266 -0.266427 0.668538 0 0 0 255
13.228088 -6.853032 -16.541857 0.694266 -0.266427 -0.668538 0 0 0 255
12.313076 -8.350778 -16.541857 0.556108 -0.492080 -0.669729 4 4 4 255
12.313076 -8.350777 -13.222658 0.556108 -0.492080 0.669729 0 0 0 255
12.313076 -8.350778 -16.541857 0.556108 -0.492080 -0.669729 0 0 0 255
10.911195 -9.462444 -16.541857 0.356029 -0.650349 -0.671010 12 12 12 255
10.911195 -9.462443 -13.222657 0.356029 -0.650349 0.671010 0 0 0 255
10.911195 -9.462444 -16.541857 0.356029 -0.650349 -0.671010 0 0 0 255
9.191534 -10.053950 -16.541857 0.122135 -0.730583 -0.671804 1 1 1 255
9.191534 -10.053949 -13.222657 0.122135 -0.730583 0.671804 0 0 0 255
9.191534 -10.053950 -16.541857 0.122135 -0.730583 -0.671804 0 0 0 255
7.361508 -10.053950 -16.541857 -0.122135 -0.730583 -0.671804 5 5 5 255
9.191534 -10.053950 -16.541857 0.122135 -0.730583 -0.671804 255 255 255 255
9.191534 -10.053949 -13.222657 0.122135 -0.730583 0.671804 255 255 255 255
7.361508 -10.053949 -13.222657 -0.122135 -0.730583 0.671804 255 255 255 255
7.361508 -10.053950 -16.541857 -0.122135 -0.730583 -0.671804 255 255 255 255
7.361508 -10.053949 -13.222657 -0.122135 -0.730583 0.671804 0 0 0 255
5.641847 -9.462444 -16.541857 -0.356029 -0.650349 -0.671010 24 24 24 255
5.641847 -9.462443 -13.222657 -0.356029 -0.650349 0.671010 205 205 205 255
5.641847 -9.462443 -13.222657 -0.356029 -0.650349 0.671010 0 0 0 255
4.239966 -8.350778 -16.541857 -0.556108 -0.492080 -0.669729 0 0 0 255
4.239966 -8.350777 -13.222658 -0.556108 -0.492080 0.669729 14 14 14 255
4.239966 -8.350777 -13.222658 -0.556108 -0.492080 0.669729 0 0 0 255
3.324954 -6.853032 -16.541857 -0.694266 -0.266427 -0.668538 1 1 1 255
3.324954 -6.853032 -13.222658 -0.694266 -0.266427 0.668538 12 12 12 255
3.324954 -6.853032 -13.222658 -0.694266 -0.266427 0.668538 0 0 0 255
-22.267145 18.875097 -15.140774 -0.437880 0.667684 -0.602008 255 182 0 255
-21.595600 18.875097 -15.140775 0.000000 0.707083 -0.707083 255 182 0 255
-26.485783 5.322138 -15.140773 0.000000 0.000000 -1.000000 255 255 255 255
-21.595600 18.875097 -15.140775 0.000000 0.707083 -0.707083 255 255 255 255
-9.647900 18.875080 -15.140775 0.000000 0.707083 -0.707083 255 255 255 255
-9.647900 5.322138 -15.140773 0.000000 0.000000 -1.000000 255 255 255 255
-9.647900 18.875080 -15.140775 0.000000 0.707083 -0.707083 255 182 0 255
-8.661390 18.875071 -15.140775 0.000000 0.707083 -0.707083 255 182 0 255
-8.661392 5.322138 -15.140773 0.000000 0.000000 -1.000000 255 255 255 255
-8.661390 18.875071 -15.140775 0.000000 0.707083 -0.707083 255 255 255 255
6.637821 18.875067 -15.140775 0.000000 0.707083 -0.707083 255 255 255 255
8.503000 5.322138 -15.140773 0.000000 0.000000 -1.000000 255 255 255 255
-9.647900 5.322140 20.326431 0.000000 0.000000 1.000000 255 255 255 255
-9.647900 18.875069 20.326427 0.000000 0.707083 0.707083 255 255 255 255
-21.630749 18.875069 20.326427 0.000000 0.707083 0.707083 255 255 255 255
-27.461229 5.322140 20.326431 0.000000 0.000000 1.000000 255 255 255 255
-8.661390 18.875069 20.326427 0.000000 0.707083 0.707083 255 182 0 255
-9.647900 18.875069 20.326427 0.000000 0.707083 0.707083 255 182 0 255
8.340956 5.322140 20.326431 0.000000 0.000000 1.000000 255 255 255 255
6.533273 18.875069 20.326427 0.000000 0.707083 0.707083 255 255 255 255
-8.661390 18.875069 20.326427 0.000000 0.707083 0.707083 255 255 255 255
-8.661390 5.322140 20.326431 0.000000 0.000000 1.000000 255 255 255 255
6.533273 18.875069 20.326427 0.000000 0.707083 0.707083 255 182 0 255
-28.155685 5.322139 19.380945 -0.614551 0.788873 0.000000 255 255 255 255
-22.267143 18.875074 19.380939 -0.548418 0.836177 0.000000 255 255 255 255
-22.267143 18.875082 -14.263838 -0.548387 0.836207 0.000000 255 255 255 255
-28.155685 5.322137 -14.263835 -0.614521 0.788873 0.000000 255 255 255 255
-22.267143 18.875074 19.380939 -0.548418 0.836177 0.000000 255 182 0 255
-28.155685 5.322139 19.380945 -0.614551 0.788873 0.000000 255 182 0 255
-49.128662 -6.130012 -13.029385 -0.607746 -0.794092 0.000000 255 255 255 255
-49.128666 -6.130012 -15.140770 -0.489578 -0.639668 -0.592517 255 255 255 255
-49.128662 -6.130008 20.326433 -0.489578 -0.639668 0.592517 255 255 255 255
-49.128662 -6.130010 14.810693 -0.607746 -0.794092 0.000000 255 255 255 255
-28.155685 5.322137 -14.263835 -0.614521 0.788873 0.000000 255 185 13 255
-28.155685 5.322135 -15.140772 -0.340739 0.437422 -0.832179 255 187 26 255
-51.204163 1.539593 -15.140770 -0.689596 0.443861 -0.572192 255 182 0 255
-51.204163 1.539594 -8.882729 -0.840846 0.541246 0.000000 255 182 0 255
-28.155685 5.322139 19.380945 -0.614551 0.788873 0.000000 255 184 7 255
-49.128666 -6.130012 -15.140770 -0.489578 -0.639668 -0.592517 255 182 0 255
-49.128662 -6.130012 -13.029385 -0.607746 -0.794092 0.000000 255 186 53 255
-49.128662 -6.130010 14.810693 -0.607746 -0.794092 0.000000 255 182 0 255
-49.128662 -6.130008 20.326433 -0.489578 -0.639668 0.592517 255 182 7 255
3 0 1 2
3 0 2 3
3 4 5 6
3 4 6 7
3 8 9 10
3 8 10 11
3 1 12 13
3 1 13 2
3 4 7 14
3 14 15 16
3 17 18 19
3 14 16 17
3 19 4 14
3 14 17 19
3 20 21 22
3 20 22 23
3 24 25 26
3 24 26 27
3 8 11 20
3 20 23 28
3 29 30 31
3 20 28 29
3 31 8 20
3 20 29 31
3 32 33 34
3 35 36 37
3 32 34 35
3 38 39 32
3 40 41 42
3 42 38 32
3 32 35 37
3 37 43 44
3 44 45 40
3 40 42 32
3 32 37 44
3 44 40 32
3 14 46 2
3 14 2 15
3 25 47 48
3 25 48 26
3 49 50 51
3 49 51 52
3 19 53 54
3 19 54 4
3 55 56 43
3 55 43 23
3 31 57 33
3 31 33 8
3 58 59 60
3 61 62 63
3 61 63 64
3 62 65 63
3 58 60 66
3 64 63 67
3 64 67 68
3 63 65 67
3 58 66 69
3 70 67 71
3 70 71 72
3 67 65 71
3 58 69 73
3 72 71 74
3 72 74 73
3 71 65 74
3 58 73 75
3 73 74 76
3 73 76 75
3 74 65 76
3 58 75 77
3 75 76 78
3 75 78 77
3 76 65 78
3 58 77 79
3 77 78 80
3 77 80 79
3 78 65 81
3 58 79 82
3 79 80 83
3 79 83 82
3 81 65 83
3 58 82 84
3 82 83 85
3 82 85 84
3 83 65 85
3 58 84 86
3 84 85 87
3 84 87 86
3 85 65 88
3 58 86 89
3 90 91 92
3 90 92 89
3 88 65 92
3 58 89 93
3 89 92 94
3 89 94 93
3 92 65 95
3 58 93 96
3 93 94 97
3 93 97 96
3 95 65 98
3 58 96 99
3 100 101 102
3 100 102 103
3 98 65 104
3 58 99 105
3 106 104 107
3 106 107 108
3 104 65 107
3 58 105 109
3 108 107 110
3 108 110 109
3 107 65 110
3 58 109 111
3 109 110 112
3 109 112 111
3 110 65 112
3 58 111 59
3 111 112 62
3 111 62 61
3 112 65 62
3 113 114 115
3 114 116 117
3 114 117 115
3 118 119 120
3 113 115 121
3 115 117 122
3 115 122 121
3 120 119 123
3 113 121 124
3 121 122 125
3 121 125 124
3 123 119 126
3 113 124 127
3 124 125 128
3 124 128 127
3 126 119 129
3 113 127 130
3 127 131 132
3 127 132 130
3 129 119 133
3 113 130 134
3 130 132 135
3 130 135 134
3 133 119 135
3 113 134 136
3 134 135 137
3 134 137 136
3 135 119 137
3 113 136 138
3 136 137 139
3 136 139 138
3 137 119 140
3 113 138 141
3 138 139 142
3 138 142 141
3 140 119 142
3 113 141 143
3 141 142 144
3 141 144 143
3 142 119 145
3 113 143 146
3 143 147 148
3 143 148 146
3 145 119 148
3 113 146 149
3 146 148 150
3 146 150 149
3 148 119 151
3 113 149 152
3 153 151 154
3 153 154 155
3 151 119 154
3 113 152 156
3 157 158 159
3 157 159 160
3 154 119 161
3 113 156 162
3 156 163 164
3 156 164 162
3 161 119 165
3 113 162 166
3 162 164 167
3 162 167 166
3 165 119 168
3 113 166 169
3 166 167 170
3 166 170 169
3 168 119 171
3 113 169 114
3 169 170 116
3 169 116 114
3 171 119 118
3 172 173 174
3 173 175 176
3 173 176 174
3 175 177 178
3 172 174 179
3 174 176 180
3 174 180 179
3 178 177 181
3 172 179 182
3 179 180 183
3 179 183 182
3 181 177 184
3 172 182 185
3 182 186 187
3 182 187 185
3 184 177 187
3 172 185 188
3 185 187 189
3 185 189 188
3 187 177 189
3 172 188 190
3 191 189 192
3 191 192 190
3 189 177 192
3 172 190 193
3 190 192 194
3 190 194 193
3 192 177 194
3 172 193 195
3 193 194 196
3 193 196 195
3 194 177 196
3 172 195 197
3 195 196 198
3 195 198 199
3 196 177 198
3 172 200 201
3 199 198 202
3 199 202 201
3 198 177 202
3 172 201 203
3 201 202 204
3 201 204 203
3 202 177 204
3 172 203 205
3 206 204 207
3 206 207 208
3 204 177 207
3 172 205 209
3 208 207 210
3 208 210 209
3 207 177 211
3 172 209 212
3 209 210 213
3 209 213 214
3 211 177 215
3 172 212 216
3 212 217 218
3 212 218 216
3 215 177 219
3 172 216 220
3 216 218 221
3 216 221 220
3 219 177 222
3 172 220 223
3 220 221 224
3 220 224 223
3 222 177 225
3 172 223 173
3 223 226 175
3 223 175 173
3 225 177 175
3 227 228 229
3 228 230 231
3 228 231 229
3 232 233 231
3 227 229 234
3 229 231 235
3 229 235 234
3 231 233 235
3 227 234 236
3 234 235 237
3 234 237 236
3 235 233 237
3 227 236 238
3 236 237 239
3 236 239 238
3 237 233 239
3 227 238 240
3 238 239 241
3 238 241 240
3 239 233 241
3 227 240 242
3 243 241 244
3 243 244 245
3 241 233 244
3 227 242 246
3 245 247 248
3 245 248 249
3 244 233 250
3 227 246 251
3 249 248 252
3 249 252 253
3 250 233 254
3 227 251 255
3 253 252 256
3 253 256 257
3 254 233 258
3 227 255 259
3 257 256 260
3 257 260 261
3 258 233 260
3 227 259 262
3 261 260 263
3 261 263 264
3 260 233 263
3 227 262 265
3 264 263 266
3 264 266 267
3 263 233 266
3 227 265 268
3 267 266 269
3 267 269 270
3 266 233 269
3 227 268 271
3 272 273 274
3 272 274 275
3 269 233 276
3 227 271 277
3 271 274 278
3 271 278 277
3 276 233 279
3 227 277 280
3 277 278 281
3 277 281 280
3 279 233 282
3 227 280 283
3 280 281 284
3 280 284 283
3 282 233 285
3 227 283 228
3 283 284 230
3 283 230 228
3 285 233 232
3 23 286 287
3 23 287 28
3 288 289 290
3 288 290 291
3 29 292 293
3 29 293 30
3 294 295 296
3 294 296 297
3 298 299 300
3 298 300 301
3 17 302 303
3 17 303 18
3 304 305 306
3 304 306 307
3 15 32 308
3 15 308 16
3 309 310 311
3 309 311 312
3 4 54 313
3 4 313 314
3 315 316 24
3 24 27 317
3 317 318 315
3 24 317 315
3 319 320 321
3 321 322 5
3 5 4 323
3 323 319 321
3 321 5 323
3 321 324 325
3 325 326 327
3 327 5 322
3 322 321 325
3 325 327 322
