ply
format ascii 1.0
comment Created by Blender 2.80 (sub 75) - www.blender.org, source file: 'lowpolycars.blend'
element vertex 318
property float x
property float y
property float z
property float nx
property float ny
property float nz
property uchar red
property uchar green
property uchar blue
property uchar alpha
element face 370
property list uchar uint vertex_indices
end_header
25.334797 -6.130012 -15.140773 0.577349 -0.577349 -0.577349 255 182 0 255
25.334797 2.857635 -15.140774 0.615223 0.527482 -0.585833 255 182 0 255
25.334799 2.857639 20.326429 0.615223 0.527482 0.585833 255 182 0 255
25.334799 -6.130008 20.326431 0.577349 -0.577349 0.577349 255 182 2 255
-28.155684 5.322140 20.326431 -0.340739 0.437422 0.832179 255 182 0 255
-51.204159 1.539597 20.326431 -0.689596 0.443861 0.572192 255 182 0 255
-49.128662 -6.130008 20.326433 -0.489578 -0.639668 0.592517 255 182 1 255
-28.155684 -6.130008 20.326433 0.000000 -0.707083 0.707083 255 182 0 255
9.381668 5.322138 -15.140774 0.352672 0.350993 -0.867397 255 182 0 255
25.334797 2.857635 -15.140774 0.615223 0.527482 -0.585833 255 182 3 255
25.334797 -6.130012 -15.140773 0.577349 -0.577349 -0.577349 255 183 14 255
9.381668 -6.130012 -15.140772 0.000000 -0.707083 -0.707083 255 182 0 255
9.381668 5.322138 -15.140774 0.352672 0.350993 -0.867397 255 182 1 255
9.381670 5.322140 20.326429 0.352672 0.350993 0.867397 255 182 2 255
9.381670 -6.130008 20.326431 0.000000 -0.707083 0.707083 255 203 128 255
9.381670 5.322140 20.326429 0.352672 0.350993 0.867397 255 182 0 255
8.340956 5.322140 20.326431 0.000000 0.000000 1.000000 255 182 0 255
-8.661390 5.322140 20.326431 0.000000 0.000000 1.000000 255 182 0 255
-9.647900 5.322140 20.326431 0.000000 0.000000 1.000000 255 182 0 255
-27.461229 5.322140 20.326431 0.000000 0.000000 1.000000 255 182 0 255
-28.155685 -6.130012 -15.140771 0.000000 -0.707083 -0.707083 255 182 0 255
-49.128666 -6.130012 -15.140770 -0.489578 -0.639668 -0.592517 255 182 7 255
-51.204163 1.539593 -15.140770 -0.689596 0.443861 -0.572192 255 185 50 255
-28.155685 5.322135 -15.140772 -0.340739 0.437422 -0.832179 255 182 0 255
-28.155685 -6.130012 -15.140771 0.000000 -0.707083 -0.707083 255 255 255 255
9.381668 -6.130012 -15.140772 0.000000 -0.707083 -0.707083 255 255 255 255
9.381670 -6.130008 20.326431 0.000000 -0.707083 0.707083 255 255 255 255
-28.155684 -6.130008 20.326433 0.000000 -0.707083 0.707083 255 255 255 255
-26.485783 5.322138 -15.140773 0.000000 0.000000 -1.000000 255 182 0 255
-9.647900 5.322138 -15.140773 0.000000 0.000000 -1.000000 255 182 0 255
-8.661392 5.322138 -15.140773 0.000000 0.000000 -1.000000 255 182 0 255
8.503000 5.322138 -15.140773 0.000000 0.000000 -1.000000 255 182 0 255
7.353469 18.875069 20.326426 0.529069 0.614124 0.585559 255 182 0 255
7.353468 18.875063 -15.140775 0.529069 0.614124 -0.585559 255 182 0 255
6.637821 18.875067 -15.140775 0.000000 0.707083 -0.707083 255 182 1 255
-8.661390 18.875071 -15.140775 0.000000 0.707083 -0.707083 255 182 1 255
-9.647900 18.875080 -15.140775 0.000000 0.707083 -0.707083 255 182 1 255
-21.595600 18.875097 -15.140775 0.000000 0.707083 -0.707083 255 182 2 255
-8.661390 18.875069 20.326427 0.000000 0.707083 0.707083 255 183 3 255
6.533273 18.875069 20.326427 0.000000 0.707083 0.707083 255 183 2 255
-22.267143 18.875069 20.326427 -0.437880 0.667684 0.602008 255 183 18 255
-21.630749 18.875069 20.326427 0.000000 0.707083 0.707083 255 183 9 255
-9.647900 18.875069 20.326427 0.000000 0.707083 0.707083 255 183 5 255
-22.267145 18.875097 -15.140774 -0.437880 0.667684 -0.602008 255 182 4 255
-22.267143 18.875082 -14.263838 -0.548387 0.836207 0.000000 255 183 11 255
-22.267143 18.875074 19.380939 -0.548418 0.836177 0.000000 255 183 15 255
25.334799 -6.130008 20.326431 0.577349 -0.577349 0.577349 255 182 0 255
25.334797 -6.130012 -15.140773 0.577349 -0.577349 -0.577349 255 255 255 255
25.334799 -6.130008 20.326431 0.577349 -0.577349 0.577349 255 255 255 255
9.381668 5.322138 -15.140774 0.352672 0.350993 -0.867397 255 255 255 255
7.353468 18.875063 -15.140775 0.529069 0.614124 -0.585559 255 255 255 255
7.353469 18.875069 20.326426 0.529069 0.614124 0.585559 255 255 255 255
9.381670 5.322140 20.326429 0.352672 0.350993 0.867397 255 255 255 255
-21.630749 18.875069 20.326427 0.000000 0.707083 0.707083 255 182 0 255
-22.267143 18.875069 20.326427 -0.437880 0.667684 0.602008 255 182 0 255
-28.155685 5.322137 -14.263835 -0.614521 0.788873 0.000000 255 182 0 255
-22.267143 18.875082 -14.263838 -0.548387 0.836207 0.000000 255 182 0 255
6.637821 18.875067 -15.140775 0.000000 0.707083 -0.707083 255 182 0 255
-35.248058 -4.894391 18.440592 0.000000 0.000000 -0.999969 2 2 2 255
-40.517406 -4.894391 18.440592 -0.744102 0.000000 -0.668050 20 20 20 255
-40.199627 -3.191218 18.440592 -0.694266 0.266427 -0.668538 13 13 13 255
-40.517406 -4.894391 18.440592 -0.744102 0.000000 -0.668050 2 2 2 255
-40.517406 -4.894391 21.759790 -0.744102 0.000000 0.668050 0 0 0 255
-40.199627 -3.191217 21.759790 -0.694266 0.266427 0.668538 0 0 0 255
-40.199627 -3.191218 18.440592 -0.694266 0.266427 -0.668538 6 6 6 255
-35.248058 -4.894391 21.759790 0.000000 0.000000 0.999969 0 0 0 255
-39.284615 -1.693473 18.440592 -0.556108 0.492080 -0.669729 61 61 61 255
-39.284615 -1.693472 21.759790 -0.556108 0.492080 0.669729 0 0 0 255
-39.284615 -1.693473 18.440592 -0.556108 0.492080 -0.669729 28 28 28 255
-37.882732 -0.581805 18.440592 -0.356029 0.650349 -0.671010 1 1 1 255
-39.284615 -1.693473 18.440592 -0.556108 0.492080 -0.669729 9 9 9 255
-37.882732 -0.581805 21.759790 -0.356029 0.650349 0.671010 0 0 0 255
-37.882732 -0.581805 18.440592 -0.356029 0.650349 -0.671010 0 0 0 255
-36.163071 0.009700 18.440592 -0.122135 0.730583 -0.671804 0 0 0 255
-36.163071 0.009701 21.759790 -0.122135 0.730583 0.671804 0 0 0 255
-34.333046 0.009700 18.440592 0.122135 0.730583 -0.671804 0 0 0 255
-34.333046 0.009701 21.759790 0.122135 0.730583 0.671804 0 0 0 255
-32.613384 -0.581805 18.440592 0.356029 0.650349 -0.671010 0 0 0 255
-32.613384 -0.581805 21.759790 0.356029 0.650349 0.671010 0 0 0 255
-31.211504 -1.693473 18.440592 0.556108 0.492080 -0.669729 0 0 0 255
-31.211504 -1.693472 21.759790 0.556108 0.492080 0.669729 2 2 2 255
-31.211504 -1.693472 21.759790 0.556108 0.492080 0.669729 0 0 0 255
-30.296492 -3.191218 18.440592 0.694266 0.266427 -0.668538 0 0 0 255
-30.296492 -3.191217 21.759790 0.694266 0.266427 0.668538 13 13 13 255
-29.978710 -4.894391 18.440592 0.744102 0.000000 -0.668050 0 0 0 255
-29.978710 -4.894391 21.759790 0.744102 0.000000 0.668050 0 0 0 255
-30.296492 -6.597564 18.440594 0.694266 -0.266427 -0.668538 0 0 0 255
-30.296492 -6.597563 21.759792 0.694266 -0.266427 0.668538 0 0 0 255
-30.296492 -6.597563 21.759792 0.694266 -0.266427 0.668538 7 7 7 255
-31.211504 -8.095309 18.440594 0.556108 -0.492080 -0.669729 0 0 0 255
-30.296492 -6.597564 18.440594 0.694266 -0.266427 -0.668538 2 2 2 255
-30.296492 -6.597563 21.759792 0.694266 -0.266427 0.668538 6 6 6 255
-31.211504 -8.095308 21.759792 0.556108 -0.492080 0.669729 0 0 0 255
-32.613384 -9.206976 18.440594 0.356029 -0.650349 -0.671010 0 0 0 255
-32.613384 -9.206975 21.759792 0.356029 -0.650349 0.671010 37 37 37 255
-32.613384 -9.206975 21.759792 0.356029 -0.650349 0.671010 0 0 0 255
-34.333046 -9.798482 18.440594 0.122135 -0.730583 -0.671804 0 0 0 255
-34.333046 -9.798481 21.759792 0.122135 -0.730583 0.671804 68 68 68 255
-34.333046 -9.798481 21.759792 0.122135 -0.730583 0.671804 0 0 0 255
-36.163071 -9.798482 18.440594 -0.122135 -0.730583 -0.671804 0 0 0 255
-34.333046 -9.798482 18.440594 0.122135 -0.730583 -0.671804 255 255 255 255
-34.333046 -9.798481 21.759792 0.122135 -0.730583 0.671804 255 255 255 255
-36.163071 -9.798481 21.759792 -0.122135 -0.730583 0.671804 255 255 255 255
-36.163071 -9.798482 18.440594 -0.122135 -0.730583 -0.671804 255 255 255 255
-36.163071 -9.798481 21.759792 -0.122135 -0.730583 0.671804 0 0 0 255
-37.882732 -9.206976 18.440594 -0.356029 -0.650349 -0.671010 0 0 0 255
-36.163071 -9.798482 18.440594 -0.122135 -0.730583 -0.671804 16 16 16 255
-37.882732 -9.206975 21.759792 -0.356029 -0.650349 0.671010 0 0 0 255
-37.882732 -9.206976 18.440594 -0.356029 -0.650349 -0.671010 19 19 19 255
-39.284615 -8.095309 18.440594 -0.556108 -0.492080 -0.669729 0 0 0 255
-39.284615 -8.095308 21.759792 -0.556108 -0.492080 0.669729 0 0 0 255
-40.199627 -6.597564 18.440594 -0.694266 -0.266427 -0.668538 0 0 0 255
-40.199627 -6.597563 21.759792 -0.694266 -0.266427 0.668538 0 0 0 255
-35.248058 -4.894395 -17.084480 0.000000 0.000000 -1.000000 0 0 0 255
-40.517406 -4.894395 -17.084480 -0.744102 0.000000 -0.668050 0 0 0 255
-40.199627 -3.191222 -17.084480 -0.694266 0.266427 -0.668538 0 0 0 255
-40.517406 -4.894395 -13.765280 -0.744102 0.000000 0.668050 10 10 10 255
-40.199627 -3.191221 -13.765280 -0.694266 0.266427 0.668538 1 1 1 255
-40.517406 -4.894395 -13.765280 -0.744102 0.000000 0.668050 1 1 1 255
-35.248058 -4.894395 -13.765280 0.000000 0.000000 1.000000 0 0 0 255
-40.199627 -3.191221 -13.765280 -0.694266 0.266427 0.668538 0 0 0 255
-39.284615 -1.693477 -17.084480 -0.556108 0.492080 -0.669729 0 0 0 255
-39.284615 -1.693476 -13.765281 -0.556108 0.492080 0.669729 5 5 5 255
-39.284615 -1.693476 -13.765281 -0.556108 0.492080 0.669729 0 0 0 255
-37.882732 -0.581810 -17.084480 -0.356029 0.650349 -0.671010 0 0 0 255
-37.882732 -0.581809 -13.765281 -0.356029 0.650349 0.671010 49 49 49 255
-37.882732 -0.581809 -13.765281 -0.356029 0.650349 0.671010 5 5 5 255
-36.163074 0.009696 -17.084480 -0.122135 0.730583 -0.671804 0 0 0 255
-36.163074 0.009697 -13.765281 -0.122135 0.730583 0.671804 86 86 86 255
-36.163074 0.009697 -13.765281 -0.122135 0.730583 0.671804 36 36 36 255
-34.333046 0.009696 -17.084480 0.122135 0.730583 -0.671804 0 0 0 255
-36.163074 0.009697 -13.765281 -0.122135 0.730583 0.671804 2 2 2 255
-34.333046 0.009697 -13.765281 0.122135 0.730583 0.671804 0 0 0 255
-34.333046 0.009697 -13.765281 0.122135 0.730583 0.671804 2 2 2 255
-32.613384 -0.581810 -17.084480 0.356029 0.650349 -0.671010 0 0 0 255
-32.613384 -0.581809 -13.765281 0.356029 0.650349 0.671010 0 0 0 255
-31.211506 -1.693477 -17.084480 0.556108 0.492080 -0.669729 0 0 0 255
-31.211506 -1.693476 -13.765281 0.556108 0.492080 0.669729 0 0 0 255
-30.296494 -3.191222 -17.084480 0.694266 0.266427 -0.668538 0 0 0 255
-30.296492 -3.191221 -13.765280 0.694266 0.266427 0.668538 0 0 0 255
-30.296492 -3.191221 -13.765280 0.694266 0.266427 0.668538 5 5 5 255
-29.978712 -4.894395 -17.084480 0.744102 0.000000 -0.668050 0 0 0 255
-29.978712 -4.894395 -13.765280 0.744102 0.000000 0.668050 0 0 0 255
-30.296494 -6.597568 -17.084478 0.694266 -0.266427 -0.668538 0 0 0 255
-30.296492 -6.597568 -13.765280 0.694266 -0.266427 0.668538 1 1 1 255
-30.296492 -6.597568 -13.765280 0.694266 -0.266427 0.668538 9 9 9 255
-31.211506 -8.095313 -17.084478 0.556108 -0.492080 -0.669729 0 0 0 255
-30.296492 -6.597568 -13.765280 0.694266 -0.266427 0.668538 0 0 0 255
-31.211506 -8.095312 -13.765280 0.556108 -0.492080 0.669729 0 0 0 255
-32.613384 -9.206981 -17.084478 0.356029 -0.650349 -0.671010 0 0 0 255
-32.613384 -9.206980 -13.765279 0.356029 -0.650349 0.671010 1 1 1 255
-32.613384 -9.206980 -13.765279 0.356029 -0.650349 0.671010 3 3 3 255
-34.333046 -9.798486 -17.084478 0.122135 -0.730583 -0.671804 40 40 40 255
-32.613384 -9.206981 -17.084478 0.356029 -0.650349 -0.671010 12 12 12 255
-34.333046 -9.798486 -13.765279 0.122135 -0.730583 0.671804 0 0 0 255
-34.333046 -9.798486 -17.084478 0.122135 -0.730583 -0.671804 0 0 0 255
-36.163074 -9.798486 -17.084478 -0.122135 -0.730583 -0.671804 15 15 15 255
-34.333046 -9.798486 -17.084478 0.122135 -0.730583 -0.671804 255 255 255 255
-34.333046 -9.798486 -13.765279 0.122135 -0.730583 0.671804 255 255 255 255
-36.163074 -9.798486 -13.765279 -0.122135 -0.730583 0.671804 255 255 255 255
-36.163074 -9.798486 -17.084478 -0.122135 -0.730583 -0.671804 255 255 255 255
-36.163074 -9.798486 -13.765279 -0.122135 -0.730583 0.671804 0 0 0 255
-37.882732 -9.206981 -17.084478 -0.356029 -0.650349 -0.671010 0 0 0 255
-36.163074 -9.798486 -13.765279 -0.122135 -0.730583 0.671804 158 158 158 255
-37.882732 -9.206980 -13.765279 -0.356029 -0.650349 0.671010 0 0 0 255
-37.882732 -9.206980 -13.765279 -0.356029 -0.650349 0.671010 5 5 5 255
-39.284615 -8.095313 -17.084478 -0.556108 -0.492080 -0.669729 0 0 0 255
-39.284615 -8.095312 -13.765280 -0.556108 -0.492080 0.669729 0 0 0 255
-39.284615 -8.095312 -13.765280 -0.556108 -0.492080 0.669729 36 36 36 255
-40.199627 -6.597568 -17.084478 -0.694266 -0.266427 -0.668538 0 0 0 255
-40.199627 -6.597568 -13.765280 -0.694266 -0.266427 0.668538 2 2 2 255
-40.199627 -6.597568 -13.765280 -0.694266 -0.266427 0.668538 15 15 15 255
8.276523 -5.149855 18.983213 0.000000 0.000000 -1.000000 0 0 0 255
3.007174 -5.149855 18.983213 -0.744102 0.000000 -0.668050 0 0 0 255
3.324955 -3.446681 18.983213 -0.694266 0.266427 -0.668538 0 0 0 255
3.007174 -5.149854 22.302412 -0.744102 0.000000 0.668050 0 0 0 255
3.324955 -3.446681 22.302412 -0.694266 0.266427 0.668538 0 0 0 255
8.276523 -5.149854 22.302412 0.000000 0.000000 1.000000 0 0 0 255
3.324955 -3.446681 22.302412 -0.694266 0.266427 0.668538 1 1 1 255
4.239968 -1.948936 18.983213 -0.556108 0.492080 -0.669729 0 0 0 255
4.239968 -1.948936 22.302412 -0.556108 0.492080 0.669729 1 1 1 255
4.239968 -1.948936 22.302412 -0.556108 0.492080 0.669729 0 0 0 255
5.641849 -0.837269 18.983213 -0.356029 0.650349 -0.671010 0 0 0 255
5.641849 -0.837269 22.302412 -0.356029 0.650349 0.671010 2 2 2 255
5.641849 -0.837269 22.302412 -0.356029 0.650349 0.671010 0 0 0 255
7.361510 -0.245763 18.983213 -0.122135 0.730583 -0.671804 0 0 0 255
7.361510 -0.245763 22.302412 -0.122135 0.730583 0.671804 0 0 0 255
9.191535 -0.245763 18.983213 0.122135 0.730583 -0.671804 0 0 0 255
9.191535 -0.245763 22.302412 0.122135 0.730583 0.671804 0 0 0 255
10.911197 -0.837269 18.983213 0.356029 0.650349 -0.671010 0 0 0 255
10.911197 -0.837269 22.302412 0.356029 0.650349 0.671010 0 0 0 255
12.313077 -1.948936 18.983213 0.556108 0.492080 -0.669729 0 0 0 255
12.313078 -1.948936 22.302412 0.556108 0.492080 0.669729 0 0 0 255
13.228090 -3.446681 18.983213 0.694266 0.266427 -0.668538 0 0 0 255
13.228090 -3.446681 22.302412 0.694266 0.266427 0.668538 0 0 0 255
13.545871 -5.149855 18.983213 0.744102 0.000000 -0.668050 0 0 0 255
13.545871 -5.149854 22.302412 0.744102 0.000000 0.668050 0 0 0 255
13.228090 -6.853028 18.983215 0.694266 -0.266427 -0.668538 0 0 0 255
13.228090 -6.853027 22.302414 0.694266 -0.266427 0.668538 0 0 0 255
12.313077 -8.350773 18.983215 0.556108 -0.492080 -0.669729 0 0 0 255
12.313078 -8.350772 22.302414 0.556108 -0.492080 0.669729 0 0 0 255
10.911197 -9.462440 18.983215 0.356029 -0.650349 -0.671010 0 0 0 255
10.911197 -9.462440 22.302414 0.356029 -0.650349 0.671010 0 0 0 255
9.191535 -10.053946 18.983215 0.122135 -0.730583 -0.671804 0 0 0 255
9.191535 -10.053946 22.302414 0.122135 -0.730583 0.671804 0 0 0 255
9.191535 -10.053946 22.302414 0.122135 -0.730583 0.671804 48 48 48 255
7.361510 -10.053946 18.983215 -0.122135 -0.730583 -0.671804 0 0 0 255
7.361510 -10.053946 22.302414 -0.122135 -0.730583 0.671804 0 0 0 255
7.361510 -10.053946 22.302414 -0.122135 -0.730583 0.671804 13 13 13 255
5.641849 -9.462440 18.983215 -0.356029 -0.650349 -0.671010 0 0 0 255
7.361510 -10.053946 22.302414 -0.122135 -0.730583 0.671804 197 197 197 255
5.641849 -9.462440 22.302414 -0.356029 -0.650349 0.671010 53 53 53 255
5.641849 -9.462440 22.302414 -0.356029 -0.650349 0.671010 0 0 0 255
4.239968 -8.350773 18.983215 -0.556108 -0.492080 -0.669729 0 0 0 255
4.239968 -8.350772 22.302414 -0.556108 -0.492080 0.669729 2 2 2 255
4.239968 -8.350772 22.302414 -0.556108 -0.492080 0.669729 0 0 0 255
3.324955 -6.853028 18.983215 -0.694266 -0.266427 -0.668538 0 0 0 255
3.324955 -6.853027 22.302414 -0.694266 -0.266427 0.668538 1 1 1 255
3.324955 -6.853027 22.302414 -0.694266 -0.266427 0.668538 5 5 5 255
3.324955 -6.853027 22.302414 -0.694266 -0.266427 0.668538 13 13 13 255
8.276521 -5.149859 -16.541859 0.000000 0.000000 -1.000000 0 0 0 255
3.007173 -5.149859 -16.541859 -0.744102 0.000000 -0.668050 0 0 0 255
3.324954 -3.446686 -16.541859 -0.694266 0.266427 -0.668538 0 0 0 255
3.007173 -5.149858 -13.222658 -0.744102 0.000000 0.668050 0 0 0 255
3.324954 -3.446686 -13.222658 -0.694266 0.266427 0.668538 0 0 0 255
3.007173 -5.149858 -13.222658 -0.744102 0.000000 0.668050 1 1 1 255
8.276521 -5.149858 -13.222658 0.000000 0.000000 1.000000 4 4 4 255
4.239966 -1.948941 -16.541857 -0.556108 0.492080 -0.669729 0 0 0 255
4.239966 -1.948940 -13.222659 -0.556108 0.492080 0.669729 0 0 0 255
5.641847 -0.837273 -16.541857 -0.356029 0.650349 -0.671010 0 0 0 255
5.641847 -0.837273 -13.222659 -0.356029 0.650349 0.671010 0 0 0 255
7.361508 -0.245768 -16.541859 -0.122135 0.730583 -0.671804 0 0 0 255
7.361508 -0.245767 -13.222659 -0.122135 0.730583 0.671804 0 0 0 255
9.191534 -0.245768 -16.541859 0.122135 0.730583 -0.671804 0 0 0 255
9.191534 -0.245767 -13.222659 0.122135 0.730583 0.671804 0 0 0 255
10.911195 -0.837273 -16.541859 0.356029 0.650349 -0.671010 0 0 0 255
9.191534 -0.245768 -16.541859 0.122135 0.730583 -0.671804 3 3 3 255
9.191534 -0.245767 -13.222659 0.122135 0.730583 0.671804 8 8 9 255
10.911195 -0.837273 -13.222659 0.356029 0.650349 0.671010 6 6 7 255
10.911195 -0.837273 -13.222659 0.356029 0.650349 0.671010 0 0 0 255
12.313076 -1.948941 -16.541859 0.556108 0.492080 -0.669729 4 4 4 255
12.313076 -1.948940 -13.222659 0.556108 0.492080 0.669729 2 2 2 255
12.313076 -1.948941 -16.541859 0.556108 0.492080 -0.669729 0 0 0 255
12.313076 -1.948940 -13.222659 0.556108 0.492080 0.669729 0 0 0 255
13.228088 -3.446686 -16.541859 0.694266 0.266427 -0.668538 0 0 0 255
13.228088 -3.446686 -13.222658 0.694266 0.266427 0.668538 0 0 0 255
13.545869 -5.149859 -16.541859 0.744102 0.000000 -0.668050 0 0 0 255
13.545869 -5.149858 -13.222658 0.744102 0.000000 0.668050 0 0 0 255
13.228088 -6.853032 -16.541857 0.694266 -0.266427 -0.668538 4 4 4 255
13.228088 -6.853032 -13.222658 0.694266 -0.266427 0.668538 0 0 0 255
13.228088 -6.853032 -16.541857 0.694266 -0.266427 -0.668538 0 0 0 255
12.313076 -8.350778 -16.541857 0.556108 -0.492080 -0.669729 2 2 2 255
12.313076 -8.350777 -13.222658 0.556108 -0.492080 0.669729 0 0 0 255
12.313076 -8.350778 -16.541857 0.556108 -0.492080 -0.669729 0 0 0 255
10.911195 -9.462444 -16.541857 0.356029 -0.650349 -0.671010 1 1 1 255
10.911195 -9.462443 -13.222657 0.356029 -0.650349 0.671010 0 0 0 255
10.911195 -9.462444 -16.541857 0.356029 -0.650349 -0.671010 0 0 0 255
9.191534 -10.053950 -16.541857 0.122135 -0.730583 -0.671804 0 0 0 255
9.191534 -10.053949 -13.222657 0.122135 -0.730583 0.671804 0 0 0 255
9.191534 -10.053950 -16.541857 0.122135 -0.730583 -0.671804 1 1 1 255
7.361508 -10.053950 -16.541857 -0.122135 -0.730583 -0.671804 5 5 5 255
9.191534 -10.053950 -16.541857 0.122135 -0.730583 -0.671804 3 3 3 255
9.191534 -10.053949 -13.222657 0.122135 -0.730583 0.671804 1 1 1 255
7.361508 -10.053949 -13.222657 -0.122135 -0.730583 0.671804 15 15 15 255
7.361508 -10.053950 -16.541857 -0.122135 -0.730583 -0.671804 33 33 33 255
7.361508 -10.053949 -13.222657 -0.122135 -0.730583 0.671804 0 0 0 255
5.641847 -9.462444 -16.541857 -0.356029 -0.650349 -0.671010 24 24 24 255
7.361508 -10.053949 -13.222657 -0.122135 -0.730583 0.671804 255 255 255 255
5.641847 -9.462443 -13.222657 -0.356029 -0.650349 0.671010 205 205 205 255
5.641847 -9.462443 -13.222657 -0.356029 -0.650349 0.671010 0 0 0 255
4.239966 -8.350778 -16.541857 -0.556108 -0.492080 -0.669729 0 0 0 255
4.239966 -8.350777 -13.222658 -0.556108 -0.492080 0.669729 14 14 14 255
4.239966 -8.350777 -13.222658 -0.556108 -0.492080 0.669729 0 0 0 255
3.324954 -6.853032 -16.541857 -0.694266 -0.266427 -0.668538 1 1 1 255
3.324954 -6.853032 -13.222658 -0.694266 -0.266427 0.668538 12 12 12 255
3.324954 -6.853032 -13.222658 -0.694266 -0.266427 0.668538 0 0 0 255
-22.267145 18.875097 -15.140774 -0.437880 0.667684 -0.602008 255 182 0 255
-21.595600 18.875097 -15.140775 0.000000 0.707083 -0.707083 255 182 0 255
-26.485783 5.322138 -15.140773 0.000000 0.000000 -1.000000 255 255 255 255
-21.595600 18.875097 -15.140775 0.000000 0.707083 -0.707083 255 255 255 255
-9.647900 18.875080 -15.140775 0.000000 0.707083 -0.707083 255 255 255 255
-9.647900 5.322138 -15.140773 0.000000 0.000000 -1.000000 255 255 255 255
-9.647900 18.875080 -15.140775 0.000000 0.707083 -0.707083 255 182 0 255
-8.661390 18.875071 -15.140775 0.000000 0.707083 -0.707083 255 182 0 255
-8.661392 5.322138 -15.140773 0.000000 0.000000 -1.000000 255 255 255 255
-8.661390 18.875071 -15.140775 0.000000 0.707083 -0.707083 255 255 255 255
6.637821 18.875067 -15.140775 0.000000 0.707083 -0.707083 255 255 255 255
8.503000 5.322138 -15.140773 0.000000 0.000000 -1.000000 255 255 255 255
-9.647900 5.322140 20.326431 0.000000 0.000000 1.000000 255 255 255 255
-9.647900 18.875069 20.326427 0.000000 0.707083 0.707083 255 255 255 255
-21.630749 18.875069 20.326427 0.000000 0.707083 0.707083 255 255 255 255
-27.461229 5.322140 20.326431 0.000000 0.000000 1.000000 255 255 255 255
-8.661390 18.875069 20.326427 0.000000 0.707083 0.707083 255 182 0 255
-9.647900 18.875069 20.326427 0.000000 0.707083 0.707083 255 182 0 255
8.340956 5.322140 20.326431 0.000000 0.000000 1.000000 255 255 255 255
6.533273 18.875069 20.326427 0.000000 0.707083 0.707083 255 255 255 255
-8.661390 18.875069 20.326427 0.000000 0.707083 0.707083 255 255 255 255
-8.661390 5.322140 20.326431 0.000000 0.000000 1.000000 255 255 255 255
6.533273 18.875069 20.326427 0.000000 0.707083 0.707083 255 182 0 255
-28.155685 5.322139 19.380945 -0.614551 0.788873 0.000000 255 255 255 255
-22.267143 18.875074 19.380939 -0.548418 0.836177 0.000000 255 255 255 255
-22.267143 18.875082 -14.263838 -0.548387 0.836207 0.000000 255 255 255 255
-28.155685 5.322137 -14.263835 -0.614521 0.788873 0.000000 255 255 255 255
-22.267143 18.875074 19.380939 -0.548418 0.836177 0.000000 255 182 0 255
-28.155685 5.322139 19.380945 -0.614551 0.788873 0.000000 255 182 0 255
-49.128662 -6.130012 -13.029385 -0.607746 -0.794092 0.000000 255 255 255 255
-49.128666 -6.130012 -15.140770 -0.489578 -0.639668 -0.592517 255 255 255 255
-49.128662 -6.130008 20.326433 -0.489578 -0.639668 0.592517 255 255 255 255
-49.128662 -6.130010 14.810693 -0.607746 -0.794092 0.000000 255 255 255 255
-28.155685 5.322137 -14.263835 -0.614521 0.788873 0.000000 255 185 13 255
-28.155685 5.322135 -15.140772 -0.340739 0.437422 -0.832179 255 187 26 255
-51.204163 1.539593 -15.140770 -0.689596 0.443861 -0.572192 255 182 0 255
-51.204163 1.539594 -8.882729 -0.840846 0.541246 0.000000 255 182 0 255
-28.155685 5.322139 19.380945 -0.614551 0.788873 0.000000 255 184 7 255
-49.128666 -6.130012 -15.140770 -0.489578 -0.639668 -0.592517 255 182 0 255
-49.128662 -6.130012 -13.029385 -0.607746 -0.794092 0.000000 255 186 53 255
-49.128662 -6.130010 14.810693 -0.607746 -0.794092 0.000000 255 182 0 255
-49.128662 -6.130008 20.326433 -0.489578 -0.639668 0.592517 255 182 7 255
3 0 1 2
3 0 2 3
3 4 5 6
3 4 6 7
3 8 9 10
3 8 10 11
3 1 12 13
3 1 13 2
3 4 7 14
3 14 15 16
3 17 18 19
3 14 16 17
3 19 4 14
3 14 17 19
3 20 21 22
3 20 22 23
3 24 25 26
3 24 26 27
3 8 11 20
3 20 23 28
3 29 30 31
3 20 28 29
3 31 8 20
3 20 29 31
3 32 33 34
3 35 36 37
3 32 34 35
3 38 39 32
3 40 41 42
3 42 38 32
3 32 35 37
3 37 43 44
3 44 45 40
3 40 42 32
3 32 37 44
3 44 40 32
3 14 46 2
3 14 2 15
3 25 47 48
3 25 48 26
3 49 50 51
3 49 51 52
3 19 53 54
3 19 54 4
3 55 56 43
3 55 43 23
3 31 57 33
3 31 33 8
3 58 59 60
3 61 62 63
3 61 63 64
3 62 65 63
3 58 60 66
3 64 63 67
3 64 67 68
3 63 65 67
3 58 66 69
3 70 67 71
3 70 71 72
3 67 65 71
3 58 69 73
3 72 71 74
3 72 74 73
3 71 65 74
3 58 73 75
3 73 74 76
3 73 76 75
3 74 65 76
3 58 75 77
3 75 76 78
3 75 78 77
3 76 65 78
3 58 77 79
3 77 78 80
3 77 80 79
3 78 65 81
3 58 79 82
3 79 80 83
3 79 83 82
3 81 65 83
3 58 82 84
3 82 83 85
3 82 85 84
3 83 65 85
3 58 84 86
3 84 85 87
3 84 87 86
3 85 65 88
3 58 86 89
3 90 91 92
3 90 92 89
3 88 65 92
3 58 89 93
3 89 92 94
3 89 94 93
3 92 65 95
3 58 93 96
3 93 94 97
3 93 97 96
3 95 65 98
3 58 96 99
3 100 101 102
3 100 102 103
3 98 65 104
3 58 99 105
3 106 104 107
3 106 107 108
3 104 65 107
3 58 105 109
3 108 107 110
3 108 110 109
3 107 65 110
3 58 109 111
3 109 110 112
3 109 112 111
3 110 65 112
3 58 111 59
3 111 112 62
3 111 62 61
3 112 65 62
3 113 114 115
3 114 116 117
3 114 117 115
3 118 119 120
3 113 115 121
3 115 117 122
3 115 122 121
3 120 119 123
3 113 121 124
3 121 122 125
3 121 125 124
3 123 119 126
3 113 124 127
3 124 125 128
3 124 128 127
3 126 119 129
3 113 127 130
3 127 131 132
3 127 132 130
3 129 119 133
3 113 130 134
3 130 132 135
3 130 135 134
3 133 119 135
3 113 134 136
3 134 135 137
3 134 137 136
3 135 119 137
3 113 136 138
3 136 137 139
3 136 139 138
3 137 119 140
3 113 138 141
3 138 139 142
3 138 142 141
3 140 119 142
3 113 141 143
3 141 142 144
3 141 144 143
3 142 119 145
3 113 143 146
3 143 147 148
3 143 148 146
3 145 119 148
3 113 146 149
3 146 148 150
3 146 150 149
3 148 119 151
3 113 149 152
3 153 151 154
3 153 154 155
3 151 119 154
3 113 152 156
3 157 158 159
3 157 159 160
3 154 119 161
3 113 156 162
3 156 163 164
3 156 164 162
3 161 119 165
3 113 162 166
3 162 164 167
3 162 167 166
3 165 119 168
3 113 166 169
3 166 167 170
3 166 170 169
3 168 119 171
3 113 169 114
3 169 170 116
3 169 116 114
3 171 119 118
3 172 173 174
3 173 175 176
3 173 176 174
3 175 177 178
3 172 174 179
3 174 176 180
3 174 180 179
3 178 177 181
3 172 179 182
3 179 180 183
3 179 183 182
3 181 177 184
3 172 182 185
3 182 184 186
3 182 186 185
3 184 177 186
3 172 185 187
3 185 186 188
3 185 188 187
3 186 177 188
3 172 187 189
3 187 188 190
3 187 190 189
3 188 177 190
3 172 189 191
3 189 190 192
3 189 192 191
3 190 177 192
3 172 191 193
3 191 192 194
3 191 194 193
3 192 177 194
3 172 193 195
3 193 194 196
3 193 196 195
3 194 177 196
3 172 195 197
3 195 196 198
3 195 198 197
3 196 177 198
3 172 197 199
3 197 198 200
3 197 200 199
3 198 177 200
3 172 199 201
3 199 200 202
3 199 202 201
3 200 177 202
3 172 201 203
3 201 202 204
3 201 204 203
3 202 177 205
3 172 203 206
3 203 204 207
3 203 207 206
3 205 177 208
3 172 206 209
3 206 210 211
3 206 211 209
3 208 177 212
3 172 209 213
3 209 212 214
3 209 214 213
3 212 177 215
3 172 213 216
3 213 214 217
3 213 217 216
3 215 177 218
3 172 216 173
3 216 219 175
3 216 175 173
3 218 177 175
3 220 221 222
3 221 223 224
3 221 224 222
3 225 226 224
3 220 222 227
3 222 224 228
3 222 228 227
3 224 226 228
3 220 227 229
3 227 228 230
3 227 230 229
3 228 226 230
3 220 229 231
3 229 230 232
3 229 232 231
3 230 226 232
3 220 231 233
3 231 232 234
3 231 234 233
3 232 226 234
3 220 233 235
3 236 237 238
3 236 238 235
3 234 226 239
3 220 235 240
3 235 238 241
3 235 241 242
3 239 226 243
3 220 240 244
3 242 241 245
3 242 245 244
3 243 226 245
3 220 244 246
3 244 245 247
3 244 247 246
3 245 226 247
3 220 246 248
3 246 247 249
3 246 249 250
3 247 226 249
3 220 248 251
3 250 249 252
3 250 252 253
3 249 226 252
3 220 251 254
3 253 252 255
3 253 255 256
3 252 226 255
3 220 254 257
3 256 255 258
3 256 258 257
3 255 226 258
3 220 259 260
3 261 262 263
3 261 263 264
3 258 226 265
3 220 260 266
3 260 267 268
3 260 268 266
3 265 226 269
3 220 266 270
3 266 268 271
3 266 271 270
3 269 226 272
3 220 270 273
3 270 271 274
3 270 274 273
3 272 226 275
3 220 273 221
3 273 274 223
3 273 223 221
3 275 226 225
3 23 276 277
3 23 277 28
3 278 279 280
3 278 280 281
3 29 282 283
3 29 283 30
3 284 285 286
3 284 286 287
3 288 289 290
3 288 290 291
3 17 292 293
3 17 293 18
3 294 295 296
3 294 296 297
3 15 32 298
3 15 298 16
3 299 300 301
3 299 301 302
3 4 54 303
3 4 303 304
3 305 306 24
3 24 27 307
3 307 308 305
3 24 307 305
3 309 310 311
3 311 312 5
3 5 4 313
3 313 309 311
3 311 5 313
3 311 314 315
3 315 316 317
3 317 5 312
3 312 311 315
3 315 317 312
