ply
format ascii 1.0
comment Created by Blender 2.80 (sub 75) - www.blender.org, source file: 'lowpolycars.blend'
element vertex 255
property float x
property float y
property float z
property float nx
property float ny
property float nz
property uchar red
property uchar green
property uchar blue
property uchar alpha
element face 398
property list uchar uint vertex_indices
end_header
25.912399 -5.750541 -119.041245 0.526475 -0.615925 -0.586016 5 121 255 255
27.915573 6.961802 -119.041245 0.755882 0.157476 -0.635456 0 121 255 255
27.915575 6.961806 -86.276505 0.755882 0.157476 0.635456 43 126 255 255
25.912399 -5.750537 -86.276505 0.526475 -0.615925 0.586016 20 122 255 255
27.189627 8.101635 -119.041245 0.596393 0.379833 -0.707083 0 121 255 255
27.089846 8.258312 -86.276505 0.596393 0.379833 0.707083 114 157 255 255
25.912399 -5.750537 -86.276505 0.526475 -0.615925 0.586016 1 121 255 255
27.915575 6.961806 -86.276505 0.755882 0.157476 0.635456 0 121 255 255
-12.385009 -0.519985 -86.276505 0.000000 0.000000 1.000000 1 121 255 255
-12.385009 -5.750537 -86.276505 0.000000 -0.707083 0.707083 2 121 255 255
-23.909603 -0.519985 -86.276505 0.000000 0.000000 1.000000 20 122 255 255
-23.909603 -5.750537 -86.276505 0.000000 -0.707083 0.707083 39 126 255 255
-50.590622 -0.383335 -86.276505 -0.707083 0.000000 0.707083 0 121 255 255
-50.590622 -5.750537 -86.276505 -0.577349 -0.577349 0.577349 0 121 255 255
27.089846 8.258312 -86.276505 0.596393 0.379833 0.707083 0 121 255 255
26.012455 8.261066 -86.276505 0.000000 0.000000 1.000000 0 121 255 255
5.633659 8.313170 -86.276505 0.000000 0.000000 0.999969 0 121 255 255
4.250089 8.316708 -86.276505 0.000000 0.000000 1.000000 0 121 255 255
-12.385009 8.359239 -86.276505 0.000000 0.000000 1.000000 0 121 255 255
-23.909603 8.388711 -86.276505 -0.337016 0.527909 0.779534 0 121 255 255
-50.590622 1.001154 -86.276505 -0.640889 0.487533 0.592883 0 121 255 255
-50.590622 -0.383339 -119.041237 -0.707083 0.000000 -0.707083 0 121 255 255
-50.590622 -5.750541 -119.041237 -0.577349 -0.577349 -0.577349 0 121 255 255
-50.590622 1.001150 -119.041237 -0.640889 0.487533 -0.592883 0 121 255 255
-23.909605 -0.519989 -119.041237 0.000000 0.000000 -1.000000 0 121 255 255
-23.909605 -5.750541 -119.041237 0.000000 -0.707083 -0.707083 0 121 255 255
-12.385011 -0.519989 -119.041237 0.000000 0.000000 -1.000000 0 121 255 255
-12.385011 -5.750541 -119.041237 0.000000 -0.707083 -0.707083 0 121 255 255
-50.590622 1.001150 -119.041237 -0.640889 0.487533 -0.592883 3 121 255 255
-23.909605 8.388708 -119.041237 -0.337016 0.527909 -0.779534 0 121 255 255
-12.385011 8.323914 -119.041237 0.000000 0.000000 -1.000000 3 122 255 255
4.361386 8.229855 -119.041237 0.000000 0.000000 -1.000000 0 121 255 255
5.729109 8.222173 -119.041237 0.000000 0.000000 -0.999969 0 121 255 255
26.056923 8.107997 -119.041245 0.000000 0.000000 -1.000000 0 121 255 255
18.439692 21.840225 -86.276505 0.381054 0.691702 0.613422 0 121 255 255
18.439690 21.840219 -119.041237 0.381054 0.691702 -0.613422 0 121 255 255
17.628653 21.842962 -119.041237 0.002380 0.707083 -0.707083 0 121 255 255
5.667506 21.883400 -119.041237 0.002380 0.707083 -0.707083 0 121 255 255
4.244474 21.888210 -119.041237 0.002380 0.707083 -0.707083 0 121 255 255
-12.385011 21.944433 -119.041237 -0.326945 0.710196 -0.623432 0 121 255 255
-12.385009 21.944437 -86.276505 -0.326914 0.710196 0.623432 0 121 255 255
4.295650 21.888042 -86.276505 0.002380 0.707083 0.707083 0 121 255 255
5.504223 21.883957 -86.276505 0.002380 0.707083 0.707083 0 121 255 255
-12.385011 21.944433 -117.940369 -0.418165 0.908353 0.000000 0 121 255 255
-12.385009 21.944437 -87.283562 -0.418165 0.908353 0.000000 0 121 255 255
-12.996184 21.225544 -119.041237 -0.538713 0.457991 -0.707083 0 121 255 255
-23.909605 8.388708 -117.811958 -0.538072 0.842891 0.000000 0 121 255 255
-23.909603 8.388711 -87.529930 -0.538072 0.842891 0.000000 0 121 255 255
-50.590622 -5.750541 -119.041237 -0.577349 -0.577349 -0.577349 255 255 255 255
-23.909605 -5.750541 -119.041237 0.000000 -0.707083 -0.707083 255 255 255 255
-23.909603 -5.750537 -86.276505 0.000000 -0.707083 0.707083 255 255 255 255
-50.590622 -5.750537 -86.276505 -0.577349 -0.577349 0.577349 255 255 255 255
-12.385011 -5.750541 -119.041237 0.000000 -0.707083 -0.707083 255 255 255 255
-12.385009 -5.750537 -86.276505 0.000000 -0.707083 0.707083 255 255 255 255
25.912399 -5.750541 -119.041245 0.526475 -0.615925 -0.586016 255 255 255 255
25.912399 -5.750537 -86.276505 0.526475 -0.615925 0.586016 255 255 255 255
-36.770744 -5.617475 -87.864754 0.000000 0.000000 -1.000000 2 2 2 255
-41.398129 -5.617475 -87.864754 -0.744102 0.000000 -0.668050 1 1 1 255
-41.119064 -4.121799 -87.864754 -0.694266 0.266427 -0.668538 0 0 0 255
-41.398129 -5.617474 -85.245186 -0.744102 0.000000 0.668050 0 0 0 255
-41.119061 -4.121799 -85.245186 -0.694266 0.266427 0.668538 0 0 0 255
-36.770744 -5.617474 -85.245186 0.000000 0.000000 0.999969 1 1 1 255
-40.315525 -2.806524 -87.864754 -0.556108 0.492080 -0.669729 3 3 3 255
-40.315525 -2.806524 -85.245186 -0.556108 0.492080 0.669729 1 1 1 255
-39.084435 -1.830291 -87.864754 -0.356029 0.650349 -0.671010 8 8 8 255
-39.084435 -1.830291 -85.245186 -0.355998 0.650349 0.671010 0 0 0 255
-37.574280 -1.310848 -87.864754 -0.122135 0.730583 -0.671804 2 2 2 255
-37.574280 -1.310848 -85.245186 -0.122105 0.730583 0.671804 0 0 0 255
-35.967209 -1.310848 -87.864754 0.122105 0.730583 -0.671804 0 0 0 255
-35.967205 -1.310848 -85.245186 0.122105 0.730583 0.671804 0 0 0 255
-34.457050 -1.830291 -87.864754 0.356029 0.650349 -0.671010 0 0 0 255
-34.457050 -1.830291 -85.245186 0.355998 0.650349 0.671010 0 0 0 255
-33.225964 -2.806524 -87.864754 0.556108 0.492080 -0.669729 0 0 0 255
-33.225964 -2.806524 -85.245186 0.556108 0.492080 0.669729 0 0 0 255
-32.422424 -4.121799 -87.864754 0.694266 0.266427 -0.668538 0 0 0 255
-32.422424 -4.121799 -85.245186 0.694266 0.266427 0.668538 0 0 0 255
-32.143360 -5.617475 -87.864754 0.744102 0.000000 -0.668050 0 0 0 255
-32.143360 -5.617474 -85.245186 0.744102 0.000000 0.668050 0 0 0 255
-32.422424 -7.113150 -87.864754 0.694266 -0.266427 -0.668538 0 0 0 255
-32.422424 -7.113150 -85.245186 0.694266 -0.266427 0.668538 0 0 0 255
-33.225964 -8.428425 -87.864754 0.556108 -0.492080 -0.669729 0 0 0 255
-33.225964 -8.428426 -85.245186 0.556108 -0.492080 0.669729 0 0 0 255
-34.457050 -9.404658 -87.864754 0.356029 -0.650349 -0.671010 6 6 6 255
-34.457050 -9.404658 -85.245186 0.356029 -0.650349 0.671010 0 0 0 255
-35.967209 -9.924101 -87.864754 0.122135 -0.730583 -0.671804 0 0 0 255
-35.967205 -9.924101 -85.245186 0.122135 -0.730583 0.671804 0 0 0 255
-37.574280 -9.924101 -87.864754 -0.122135 -0.730583 -0.671804 3 3 3 255
-37.574280 -9.924101 -85.245186 -0.122135 -0.730583 0.671804 0 0 0 255
-39.084435 -9.404658 -87.864754 -0.356029 -0.650349 -0.671010 3 3 3 255
-39.084435 -9.404658 -85.245186 -0.355998 -0.650349 0.671010 0 0 0 255
-40.315525 -8.428425 -87.864754 -0.556108 -0.492080 -0.669729 0 0 0 255
-40.315525 -8.428426 -85.245186 -0.556108 -0.492080 0.669729 0 0 0 255
-41.119064 -7.113150 -87.864754 -0.694266 -0.266427 -0.668538 2 2 2 255
-41.119061 -7.113150 -85.245186 -0.694266 -0.266427 0.668538 0 0 0 255
-36.770748 -5.617478 -120.054863 0.000000 0.000000 -0.999969 0 0 0 255
-41.398132 -5.617478 -120.054863 -0.744102 0.000000 -0.668050 0 0 0 255
-41.119068 -4.121803 -120.054863 -0.694266 0.266427 -0.668538 0 0 0 255
-41.398132 -5.617478 -117.435295 -0.744102 0.000000 0.668050 0 0 0 255
-41.119068 -4.121802 -117.435295 -0.694266 0.266427 0.668538 0 0 0 255
-36.770748 -5.617478 -117.435295 0.000000 0.000000 1.000000 0 0 0 255
-40.315533 -2.806528 -120.054863 -0.556108 0.492080 -0.669729 0 0 0 255
-40.315533 -2.806527 -117.435295 -0.556108 0.492080 0.669729 0 0 0 255
-39.084442 -1.830295 -120.054863 -0.355998 0.650349 -0.671010 0 0 0 255
-39.084442 -1.830294 -117.435295 -0.356029 0.650349 0.671010 0 0 0 255
-37.574287 -1.310852 -120.054863 -0.122135 0.730583 -0.671804 1 1 1 255
-37.574287 -1.310852 -117.435295 -0.122135 0.730583 0.671804 0 0 0 255
-35.967213 -1.310852 -120.054863 0.122135 0.730583 -0.671804 0 0 0 255
-35.967213 -1.310852 -117.435295 0.122135 0.730583 0.671804 0 0 0 255
-34.457058 -1.830295 -120.054863 0.355998 0.650349 -0.671010 0 0 0 255
-34.457058 -1.830294 -117.435295 0.356029 0.650349 0.671010 1 1 1 255
-33.225967 -2.806528 -120.054863 0.556108 0.492080 -0.669729 2 2 2 255
-33.225967 -2.806527 -117.435295 0.556108 0.492080 0.669729 0 0 0 255
-32.422432 -4.121803 -120.054863 0.694266 0.266427 -0.668538 11 11 11 255
-32.422432 -4.121802 -117.435295 0.694266 0.266427 0.668538 0 0 0 255
-32.143368 -5.617478 -120.054863 0.744102 0.000000 -0.668050 8 8 8 255
-32.143364 -5.617478 -117.435295 0.744102 0.000000 0.668050 6 6 6 255
-32.422432 -7.113154 -120.054863 0.694266 -0.266427 -0.668538 0 0 0 255
-32.422432 -7.113153 -117.435295 0.694266 -0.266427 0.668538 4 4 4 255
-33.225967 -8.428430 -120.054863 0.556108 -0.492080 -0.669729 0 0 0 255
-33.225967 -8.428429 -117.435295 0.556108 -0.492080 0.669729 0 0 0 255
-34.457058 -9.404662 -120.054863 0.356029 -0.650349 -0.671010 5 5 5 255
-34.457058 -9.404662 -117.435295 0.355998 -0.650349 0.671010 9 9 9 255
-35.967213 -9.924106 -120.054863 0.122135 -0.730583 -0.671804 0 0 0 255
-35.967213 -9.924105 -117.435295 0.122105 -0.730583 0.671804 0 0 0 255
-37.574287 -9.924106 -120.054863 -0.122135 -0.730583 -0.671804 0 0 0 255
-37.574287 -9.924105 -117.435295 -0.122105 -0.730583 0.671804 0 0 0 255
-39.084442 -9.404662 -120.054863 -0.356029 -0.650349 -0.671010 0 0 0 255
-39.084442 -9.404662 -117.435295 -0.355998 -0.650349 0.671010 2 2 2 255
-40.315533 -8.428430 -120.054863 -0.556108 -0.492080 -0.669729 0 0 0 255
-40.315533 -8.428429 -117.435295 -0.556108 -0.492080 0.669729 0 0 0 255
-41.119068 -7.113154 -120.054863 -0.694266 -0.266427 -0.668538 0 0 0 255
-41.119068 -7.113153 -117.435295 -0.694266 -0.266427 0.668538 0 0 0 255
15.243518 -5.617472 -87.864754 0.000000 0.000000 -0.999969 2 2 2 255
10.616134 -5.617472 -87.864754 -0.744102 0.000000 -0.668050 0 0 0 255
10.895199 -4.121797 -87.864754 -0.694266 0.266427 -0.668538 10 10 10 255
10.616135 -5.617472 -85.245178 -0.744102 0.000000 0.668050 0 0 0 255
10.895200 -4.121796 -85.245178 -0.694266 0.266427 0.668538 5 5 5 255
15.243518 -5.617472 -85.245178 0.000000 0.000000 0.999969 1 1 1 255
11.698736 -2.806522 -87.864754 -0.556108 0.492080 -0.669729 81 81 81 255
11.698736 -2.806521 -85.245178 -0.556108 0.492080 0.669729 2 2 2 255
12.929826 -1.830289 -87.864754 -0.356029 0.650349 -0.671010 2 2 2 255
12.929826 -1.830288 -85.245178 -0.356029 0.650349 0.671010 0 0 0 255
14.439981 -1.310846 -87.864754 -0.122135 0.730583 -0.671804 19 19 19 255
14.439981 -1.310846 -85.245178 -0.122135 0.730583 0.671804 0 0 0 255
16.047054 -1.310846 -87.864754 0.122135 0.730583 -0.671804 0 0 0 255
16.047054 -1.310846 -85.245178 0.122135 0.730583 0.671804 0 0 0 255
17.557209 -1.830289 -87.864754 0.356029 0.650349 -0.671010 0 0 0 255
17.557211 -1.830288 -85.245186 0.356029 0.650349 0.671010 0 0 0 255
18.788300 -2.806522 -87.864754 0.556108 0.492080 -0.669729 0 0 0 255
18.788300 -2.806521 -85.245186 0.556108 0.492080 0.669729 0 0 0 255
19.591837 -4.121797 -87.864754 0.694266 0.266427 -0.668538 0 0 0 255
19.591837 -4.121796 -85.245186 0.694266 0.266427 0.668538 0 0 0 255
19.870901 -5.617472 -87.864754 0.744102 0.000000 -0.668050 0 0 0 255
19.870903 -5.617472 -85.245186 0.744102 0.000000 0.668050 0 0 0 255
19.591837 -7.113148 -87.864754 0.694266 -0.266427 -0.668538 0 0 0 255
19.591837 -7.113148 -85.245186 0.694266 -0.266427 0.668538 0 0 0 255
18.788300 -8.428423 -87.864754 0.556108 -0.492080 -0.669729 0 0 0 255
18.788300 -8.428423 -85.245186 0.556108 -0.492080 0.669729 0 0 0 255
17.557209 -9.404655 -87.864754 0.356029 -0.650349 -0.671010 0 0 0 255
17.557211 -9.404656 -85.245186 0.356029 -0.650349 0.671010 0 0 0 255
16.047054 -9.924099 -87.864754 0.122135 -0.730583 -0.671804 0 0 0 255
16.047054 -9.924099 -85.245186 0.122135 -0.730583 0.671804 0 0 0 255
14.439981 -9.924099 -87.864754 -0.122135 -0.730583 -0.671804 0 0 0 255
14.439981 -9.924099 -85.245178 -0.122135 -0.730583 0.671804 0 0 0 255
12.929826 -9.404655 -87.864754 -0.356029 -0.650349 -0.671010 3 3 3 255
12.929826 -9.404656 -85.245178 -0.356029 -0.650349 0.671010 0 0 0 255
11.698736 -8.428423 -87.864754 -0.556108 -0.492080 -0.669729 0 0 0 255
11.698736 -8.428423 -85.245178 -0.556108 -0.492080 0.669729 0 0 0 255
10.895199 -7.113148 -87.864754 -0.694266 -0.266427 -0.668538 0 0 0 255
10.895200 -7.113148 -85.245178 -0.694266 -0.266427 0.668538 0 0 0 255
15.243512 -5.617476 -120.054863 0.000000 0.000000 -1.000000 0 0 0 255
10.616128 -5.617476 -120.054863 -0.744102 0.000000 -0.668050 4 4 4 255
10.895193 -4.121800 -120.054863 -0.694266 0.266427 -0.668538 1 1 1 255
10.616128 -5.617476 -117.435295 -0.744102 0.000000 0.668050 0 0 0 255
10.895194 -4.121800 -117.435295 -0.694266 0.266427 0.668538 0 0 0 255
15.243512 -5.617476 -117.435295 0.000000 0.000000 1.000000 0 0 0 255
11.698730 -2.806525 -120.054863 -0.556108 0.492080 -0.669729 13 13 13 255
11.698730 -2.806525 -117.435295 -0.556108 0.492080 0.669729 0 0 0 255
12.929820 -1.830292 -120.054863 -0.356029 0.650349 -0.671010 0 0 0 255
12.929820 -1.830292 -117.435295 -0.355998 0.650349 0.671010 0 0 0 255
14.439975 -1.310850 -120.054863 -0.122135 0.730583 -0.671804 0 0 0 255
14.439976 -1.310849 -117.435295 -0.122105 0.730583 0.671804 0 0 0 255
16.047049 -1.310850 -120.054863 0.122135 0.730583 -0.671804 0 0 0 255
16.047049 -1.310849 -117.435295 0.122105 0.730583 0.671804 0 0 0 255
17.557203 -1.830292 -120.054863 0.356029 0.650349 -0.671010 0 0 0 255
17.557205 -1.830292 -117.435295 0.355998 0.650349 0.671010 0 0 0 255
18.788294 -2.806525 -120.054863 0.556108 0.492080 -0.669729 0 0 0 255
18.788294 -2.806525 -117.435295 0.556108 0.492080 0.669729 0 0 0 255
19.591831 -4.121800 -120.054863 0.694266 0.266427 -0.668538 5 5 5 255
19.591831 -4.121800 -117.435295 0.694266 0.266427 0.668538 0 0 0 255
19.870895 -5.617476 -120.054863 0.744102 0.000000 -0.668050 0 0 0 255
19.870897 -5.617476 -117.435295 0.744102 0.000000 0.668050 0 0 0 255
19.591831 -7.113152 -120.054863 0.694266 -0.266427 -0.668538 0 0 0 255
19.591831 -7.113152 -117.435295 0.694266 -0.266427 0.668538 0 0 0 255
18.788294 -8.428428 -120.054863 0.556108 -0.492080 -0.669729 0 0 0 255
18.788294 -8.428427 -117.435295 0.556108 -0.492080 0.669729 0 0 0 255
17.557203 -9.404660 -120.054863 0.356029 -0.650349 -0.671010 12 12 12 255
17.557205 -9.404659 -117.435295 0.356029 -0.650349 0.671010 0 0 0 255
16.047049 -9.924103 -120.054863 0.122135 -0.730583 -0.671804 0 0 0 255
16.047049 -9.924102 -117.435295 0.122135 -0.730583 0.671804 0 0 0 255
14.439975 -9.924103 -120.054863 -0.122135 -0.730583 -0.671804 45 45 45 255
14.439976 -9.924102 -117.435295 -0.122135 -0.730583 0.671804 0 0 0 255
12.929820 -9.404660 -120.054863 -0.356029 -0.650349 -0.671010 4 4 4 255
12.929820 -9.404659 -117.435295 -0.356029 -0.650349 0.671010 0 0 0 255
11.698730 -8.428428 -120.054863 -0.556108 -0.492080 -0.669729 0 0 0 255
11.698730 -8.428427 -117.435295 -0.556108 -0.492080 0.669729 0 0 0 255
10.895193 -7.113152 -120.054863 -0.694266 -0.266427 -0.668538 0 0 0 255
10.895194 -7.113152 -117.435295 -0.694266 -0.266427 0.668538 0 0 0 255
-12.385011 21.944433 -117.940369 -0.418165 0.908353 0.000000 238 231 255 255
-23.909605 8.388708 -117.811958 -0.538072 0.842891 0.000000 238 231 255 255
-23.909603 8.388711 -87.529930 -0.538072 0.842891 0.000000 238 231 255 255
-12.385009 21.944437 -87.283562 -0.418165 0.908353 0.000000 238 231 255 255
-13.003061 21.217457 -86.276505 -0.538713 0.457991 0.707083 0 121 255 255
19.022633 20.924919 -119.041237 0.596393 0.379833 -0.707083 0 121 255 255
18.169958 20.960835 -119.041245 0.000000 0.000000 -1.000000 0 121 255 255
19.018476 20.925476 -119.041237 0.000000 0.000000 -1.000000 0 121 255 255
5.671188 21.066828 -119.041237 0.000000 0.000000 -1.000000 0 121 255 255
4.251402 21.078899 -119.041245 0.000000 0.000000 -1.000000 0 121 255 255
-12.385011 21.220358 -119.041237 0.000000 0.000000 -1.000000 0 121 255 255
-12.385011 21.220358 -119.041237 0.000000 0.000000 -1.000000 238 231 255 255
4.251402 21.078899 -119.041245 0.000000 0.000000 -1.000000 238 231 255 255
4.361386 8.229855 -119.041237 0.000000 0.000000 -1.000000 238 231 255 255
-12.385011 8.323914 -119.041237 0.000000 0.000000 -1.000000 238 231 255 255
5.671188 21.066828 -119.041237 0.000000 0.000000 -1.000000 238 231 255 255
18.169958 20.960835 -119.041245 0.000000 0.000000 -1.000000 238 231 255 255
26.056923 8.107997 -119.041245 0.000000 0.000000 -1.000000 238 231 255 255
5.729109 8.222173 -119.041237 0.000000 0.000000 -0.999969 238 231 255 255
-23.909605 8.388708 -119.041237 -0.337016 0.527909 -0.779534 238 231 255 255
-12.996184 21.225544 -119.041237 -0.538713 0.457991 -0.707083 238 231 255 255
-12.385009 8.359239 -86.276505 0.000000 0.000000 1.000000 238 231 255 255
4.250089 8.316708 -86.276505 0.000000 0.000000 1.000000 238 231 255 255
4.293122 21.135004 -86.276505 0.000000 0.000000 1.000000 238 231 255 255
-12.385009 21.213636 -86.276505 0.000000 0.000000 1.000000 238 231 255 255
-23.909603 8.388711 -86.276505 -0.337016 0.527909 0.779534 238 231 255 255
-13.003061 21.217457 -86.276505 -0.538713 0.457991 0.707083 238 231 255 255
-12.385009 21.213636 -86.276505 0.000000 0.000000 1.000000 0 121 255 255
4.293122 21.135004 -86.276505 0.000000 0.000000 1.000000 0 121 255 255
5.511421 21.129263 -86.276505 0.000000 0.000000 1.000000 0 121 255 255
5.510723 21.202377 -86.276505 0.000000 0.000000 1.000000 0 121 255 255
18.932789 21.065996 -86.276505 0.596393 0.379833 0.707083 0 121 255 255
18.932789 21.065996 -86.276505 0.596393 0.379833 0.707083 255 255 255 255
5.510723 21.202377 -86.276505 0.000000 0.000000 1.000000 255 255 255 255
18.034201 21.070232 -86.276505 0.000000 0.000000 1.000000 255 255 255 255
5.511421 21.129263 -86.276505 0.000000 0.000000 1.000000 255 255 255 255
18.034201 21.070232 -86.276505 0.000000 0.000000 1.000000 0 121 255 255
26.012455 8.261066 -86.276505 0.000000 0.000000 1.000000 238 231 255 255
18.034201 21.070232 -86.276505 0.000000 0.000000 1.000000 251 248 255 255
5.511421 21.129263 -86.276505 0.000000 0.000000 1.000000 238 231 255 255
5.633659 8.313170 -86.276505 0.000000 0.000000 0.999969 238 231 255 255
27.089846 8.258312 -86.276505 0.596393 0.379833 0.707083 238 231 255 255
27.189627 8.101635 -119.041245 0.596393 0.379833 -0.707083 238 231 255 255
19.022633 20.924919 -119.041237 0.596393 0.379833 -0.707083 242 236 255 255
18.932789 21.065996 -86.276505 0.596393 0.379833 0.707083 238 231 255 255
18.932789 21.065996 -86.276505 0.596393 0.379833 0.707083 39 126 255 255
18.439692 21.840225 -86.276505 0.381054 0.691702 0.613422 24 123 255 255
3 0 1 2
3 0 2 3
3 1 4 5
3 1 5 2
3 6 7 8
3 6 8 9
3 9 8 10
3 9 10 11
3 11 10 12
3 11 12 13
3 8 7 14
3 15 16 17
3 8 14 15
3 17 18 8
3 15 17 8
3 8 18 19
3 8 19 10
3 10 19 20
3 10 20 12
3 13 12 21
3 13 21 22
3 12 20 23
3 12 23 21
3 22 21 24
3 22 24 25
3 25 24 26
3 25 26 27
3 27 26 1
3 27 1 0
3 21 28 29
3 21 29 24
3 24 29 30
3 24 30 26
3 1 26 30
3 31 32 33
3 1 30 31
3 33 4 1
3 31 33 1
3 34 35 36
3 37 38 39
3 34 36 37
3 40 41 42
3 42 34 37
3 37 39 43
3 43 44 40
3 40 42 37
3 37 43 40
3 43 39 45
3 45 29 46
3 45 46 43
3 46 29 23
3 23 20 19
3 47 46 23
3 23 19 47
3 48 49 50
3 48 50 51
3 49 52 53
3 49 53 50
3 52 54 55
3 52 55 53
3 56 57 58
3 57 59 60
3 57 60 58
3 59 61 60
3 56 58 62
3 58 60 63
3 58 63 62
3 60 61 63
3 56 62 64
3 62 63 65
3 62 65 64
3 63 61 65
3 56 64 66
3 64 65 67
3 64 67 66
3 65 61 67
3 56 66 68
3 66 67 69
3 66 69 68
3 67 61 69
3 56 68 70
3 68 69 71
3 68 71 70
3 69 61 71
3 56 70 72
3 70 71 73
3 70 73 72
3 71 61 73
3 56 72 74
3 72 73 75
3 72 75 74
3 73 61 75
3 56 74 76
3 74 75 77
3 74 77 76
3 75 61 77
3 56 76 78
3 76 77 79
3 76 79 78
3 77 61 79
3 56 78 80
3 78 79 81
3 78 81 80
3 79 61 81
3 56 80 82
3 80 81 83
3 80 83 82
3 81 61 83
3 56 82 84
3 82 83 85
3 82 85 84
3 83 61 85
3 56 84 86
3 84 85 87
3 84 87 86
3 85 61 87
3 56 86 88
3 86 87 89
3 86 89 88
3 87 61 89
3 56 88 90
3 88 89 91
3 88 91 90
3 89 61 91
3 56 90 92
3 90 91 93
3 90 93 92
3 91 61 93
3 56 92 57
3 92 93 59
3 92 59 57
3 93 61 59
3 94 95 96
3 95 97 98
3 95 98 96
3 97 99 98
3 94 96 100
3 96 98 101
3 96 101 100
3 98 99 101
3 94 100 102
3 100 101 103
3 100 103 102
3 101 99 103
3 94 102 104
3 102 103 105
3 102 105 104
3 103 99 105
3 94 104 106
3 104 105 107
3 104 107 106
3 105 99 107
3 94 106 108
3 106 107 109
3 106 109 108
3 107 99 109
3 94 108 110
3 108 109 111
3 108 111 110
3 109 99 111
3 94 110 112
3 110 111 113
3 110 113 112
3 111 99 113
3 94 112 114
3 112 113 115
3 112 115 114
3 113 99 115
3 94 114 116
3 114 115 117
3 114 117 116
3 115 99 117
3 94 116 118
3 116 117 119
3 116 119 118
3 117 99 119
3 94 118 120
3 118 119 121
3 118 121 120
3 119 99 121
3 94 120 122
3 120 121 123
3 120 123 122
3 121 99 123
3 94 122 124
3 122 123 125
3 122 125 124
3 123 99 125
3 94 124 126
3 124 125 127
3 124 127 126
3 125 99 127
3 94 126 128
3 126 127 129
3 126 129 128
3 127 99 129
3 94 128 130
3 128 129 131
3 128 131 130
3 129 99 131
3 94 130 95
3 130 131 97
3 130 97 95
3 131 99 97
3 132 133 134
3 133 135 136
3 133 136 134
3 135 137 136
3 132 134 138
3 134 136 139
3 134 139 138
3 136 137 139
3 132 138 140
3 138 139 141
3 138 141 140
3 139 137 141
3 132 140 142
3 140 141 143
3 140 143 142
3 141 137 143
3 132 142 144
3 142 143 145
3 142 145 144
3 143 137 145
3 132 144 146
3 144 145 147
3 144 147 146
3 145 137 147
3 132 146 148
3 146 147 149
3 146 149 148
3 147 137 149
3 132 148 150
3 148 149 151
3 148 151 150
3 149 137 151
3 132 150 152
3 150 151 153
3 150 153 152
3 151 137 153
3 132 152 154
3 152 153 155
3 152 155 154
3 153 137 155
3 132 154 156
3 154 155 157
3 154 157 156
3 155 137 157
3 132 156 158
3 156 157 159
3 156 159 158
3 157 137 159
3 132 158 160
3 158 159 161
3 158 161 160
3 159 137 161
3 132 160 162
3 160 161 163
3 160 163 162
3 161 137 163
3 132 162 164
3 162 163 165
3 162 165 164
3 163 137 165
3 132 164 166
3 164 165 167
3 164 167 166
3 165 137 167
3 132 166 168
3 166 167 169
3 166 169 168
3 167 137 169
3 132 168 133
3 168 169 135
3 168 135 133
3 169 137 135
3 170 171 172
3 171 173 174
3 171 174 172
3 173 175 174
3 170 172 176
3 172 174 177
3 172 177 176
3 174 175 177
3 170 176 178
3 176 177 179
3 176 179 178
3 177 175 179
3 170 178 180
3 178 179 181
3 178 181 180
3 179 175 181
3 170 180 182
3 180 181 183
3 180 183 182
3 181 175 183
3 170 182 184
3 182 183 185
3 182 185 184
3 183 175 185
3 170 184 186
3 184 185 187
3 184 187 186
3 185 175 187
3 170 186 188
3 186 187 189
3 186 189 188
3 187 175 189
3 170 188 190
3 188 189 191
3 188 191 190
3 189 175 191
3 170 190 192
3 190 191 193
3 190 193 192
3 191 175 193
3 170 192 194
3 192 193 195
3 192 195 194
3 193 175 195
3 170 194 196
3 194 195 197
3 194 197 196
3 195 175 197
3 170 196 198
3 196 197 199
3 196 199 198
3 197 175 199
3 170 198 200
3 198 199 201
3 198 201 200
3 199 175 201
3 170 200 202
3 200 201 203
3 200 203 202
3 201 175 203
3 170 202 204
3 202 203 205
3 202 205 204
3 203 175 205
3 170 204 206
3 204 205 207
3 204 207 206
3 205 175 207
3 170 206 171
3 206 207 173
3 206 173 171
3 207 175 173
3 208 209 210
3 208 210 211
3 40 44 47
3 47 19 212
3 47 212 40
3 213 4 33
3 33 214 215
3 33 215 213
3 36 214 216
3 36 216 37
3 37 216 217
3 37 217 38
3 38 217 218
3 38 218 39
3 219 220 221
3 219 221 222
3 217 216 32
3 217 32 31
3 223 224 225
3 223 225 226
3 222 227 228
3 222 228 219
3 218 45 39
3 229 230 231
3 229 231 232
3 233 229 232
3 233 232 234
3 235 236 41
3 235 41 40
3 42 41 236
3 236 237 238
3 236 238 42
3 42 238 239
3 42 239 34
3 240 241 242
3 241 243 242
3 239 244 15
3 239 15 14
3 16 237 236
3 16 236 17
3 212 235 40
3 245 246 247
3 245 247 248
3 249 250 251
3 249 251 252
3 253 213 35
3 253 35 254
3 35 213 215
3 215 214 36
3 215 36 35
