ply
format ascii 1.0
comment Created by Blender 2.80 (sub 75) - www.blender.org, source file: 'lowpolycars.blend'
element vertex 308
property float x
property float y
property float z
property float nx
property float ny
property float nz
property uchar red
property uchar green
property uchar blue
property uchar alpha
element face 370
property list uchar uint vertex_indices
end_header
-111.926895 -6.130012 -15.140773 0.577349 -0.577349 -0.577349 255 0 28 255
-111.926895 2.857635 -15.140774 0.615223 0.527482 -0.585833 255 2 28 255
-111.926888 2.857639 20.326429 0.615223 0.527482 0.585833 255 0 28 255
-111.926888 -6.130008 20.326431 0.577349 -0.577349 0.577349 255 0 28 255
-165.417374 5.322140 20.326431 -0.340739 0.437422 0.832179 255 0 28 255
-188.465851 1.539597 20.326431 -0.689596 0.443861 0.572192 255 1 28 255
-186.390350 -6.130008 20.326433 -0.489578 -0.639668 0.592517 255 0 28 255
-165.417374 -6.130008 20.326433 0.000000 -0.707083 0.707083 255 7 28 255
-127.880020 5.322138 -15.140774 0.352672 0.350993 -0.867397 255 0 28 255
-127.880020 -6.130012 -15.140772 0.000000 -0.707083 -0.707083 255 18 28 255
-127.880020 5.322140 20.326429 0.352672 0.350993 0.867397 255 7 28 255
-127.880020 -6.130008 20.326431 0.000000 -0.707083 0.707083 255 0 28 255
-127.880020 5.322140 20.326429 0.352672 0.350993 0.867397 255 0 28 255
-128.920731 5.322140 20.326431 0.000000 0.000000 1.000000 255 0 28 255
-145.923080 5.322140 20.326431 0.000000 0.000000 1.000000 255 0 28 255
-146.909592 5.322140 20.326431 0.000000 0.000000 1.000000 255 0 28 255
-164.722916 5.322140 20.326431 0.000000 0.000000 1.000000 255 0 28 255
-165.417374 -6.130012 -15.140771 0.000000 -0.707083 -0.707083 255 9 28 255
-186.390350 -6.130012 -15.140770 -0.489578 -0.639668 -0.592517 255 78 25 255
-188.465851 1.539593 -15.140770 -0.689596 0.443861 -0.572192 255 2 28 255
-165.417374 5.322135 -15.140772 -0.340739 0.437422 -0.832179 255 0 28 255
-165.417374 -6.130012 -15.140771 0.000000 -0.707083 -0.707083 255 255 255 255
-127.880020 -6.130012 -15.140772 0.000000 -0.707083 -0.707083 255 255 255 255
-127.880020 -6.130008 20.326431 0.000000 -0.707083 0.707083 255 255 255 255
-165.417374 -6.130008 20.326433 0.000000 -0.707083 0.707083 255 255 255 255
-163.747467 5.322138 -15.140773 0.000000 0.000000 -1.000000 255 0 28 255
-146.909592 5.322138 -15.140773 0.000000 0.000000 -1.000000 255 0 28 255
-145.923080 5.322138 -15.140773 0.000000 0.000000 -1.000000 255 0 28 255
-128.758682 5.322138 -15.140773 0.000000 0.000000 -1.000000 255 0 28 255
-129.908218 18.875069 20.326426 0.529069 0.614124 0.585559 255 0 28 255
-129.908218 18.875063 -15.140775 0.529069 0.614124 -0.585559 255 26 28 255
-130.623871 18.875067 -15.140775 0.000000 0.707053 -0.707144 255 7 28 255
-145.923080 18.875071 -15.140775 0.000000 0.707083 -0.707083 255 4 28 255
-146.909592 18.875080 -15.140775 0.000000 0.707083 -0.707083 255 8 28 255
-158.857285 18.875097 -15.140775 0.000000 0.707053 -0.707144 255 5 28 255
-145.923080 18.875069 20.326427 0.000000 0.707083 0.707083 255 0 28 255
-130.728409 18.875069 20.326427 0.000000 0.707083 0.707083 255 0 28 255
-159.528839 18.875069 20.326427 -0.437880 0.667684 0.602008 255 0 28 255
-158.892441 18.875069 20.326427 0.000000 0.707083 0.707083 255 0 28 255
-146.909592 18.875069 20.326427 0.000000 0.707083 0.707083 255 0 28 255
-159.528839 18.875097 -15.140774 -0.437880 0.667684 -0.602008 255 5 28 255
-159.528839 18.875082 -14.263838 -0.548387 0.836207 0.000000 255 2 28 255
-159.528839 18.875074 19.380939 -0.548418 0.836177 0.000000 255 0 28 255
-111.926888 -6.130008 20.326431 0.577349 -0.577349 0.577349 255 2 28 255
-111.926895 -6.130012 -15.140773 0.577349 -0.577349 -0.577349 255 255 255 255
-111.926888 -6.130008 20.326431 0.577349 -0.577349 0.577349 255 255 255 255
-127.880020 5.322138 -15.140774 0.352672 0.350993 -0.867397 255 255 255 255
-129.908218 18.875063 -15.140775 0.529069 0.614124 -0.585559 255 255 255 255
-129.908218 18.875069 20.326426 0.529069 0.614124 0.585559 255 255 255 255
-127.880020 5.322140 20.326429 0.352672 0.350993 0.867397 255 255 255 255
-158.892441 18.875069 20.326427 0.000000 0.707083 0.707083 255 26 28 255
-159.528839 18.875069 20.326427 -0.437880 0.667684 0.602008 255 16 28 255
-165.417374 5.322137 -14.263835 -0.614521 0.788873 0.000000 255 2 28 255
-130.623871 18.875067 -15.140775 0.000000 0.707053 -0.707144 255 115 22 255
-129.908218 18.875063 -15.140775 0.529069 0.614124 -0.585559 255 134 18 255
-172.509750 -4.894391 18.440592 0.000000 0.000000 -1.000000 2 2 2 255
-177.779099 -4.894391 18.440592 -0.744102 0.000000 -0.668050 20 20 20 255
-177.461319 -3.191218 18.440592 -0.694266 0.266427 -0.668538 13 13 13 255
-177.779099 -4.894391 18.440592 -0.744102 0.000000 -0.668050 2 2 2 255
-177.779099 -4.894391 21.759790 -0.744102 0.000000 0.668050 0 0 0 255
-177.461319 -3.191217 21.759790 -0.694266 0.266427 0.668538 0 0 0 255
-177.461319 -3.191218 18.440592 -0.694266 0.266427 -0.668538 6 6 6 255
-172.509750 -4.894391 21.759790 0.000000 0.000000 1.000000 0 0 0 255
-176.546295 -1.693473 18.440592 -0.556108 0.492080 -0.669729 61 61 61 255
-176.546295 -1.693472 21.759790 -0.556108 0.492080 0.669729 0 0 0 255
-176.546295 -1.693473 18.440592 -0.556108 0.492080 -0.669729 28 28 28 255
-175.144424 -0.581805 18.440592 -0.356029 0.650349 -0.671010 1 1 1 255
-176.546295 -1.693473 18.440592 -0.556108 0.492080 -0.669729 9 9 9 255
-175.144424 -0.581805 21.759790 -0.356029 0.650349 0.671010 0 0 0 255
-175.144424 -0.581805 18.440592 -0.356029 0.650349 -0.671010 0 0 0 255
-173.424759 0.009700 18.440592 -0.122135 0.730583 -0.671804 0 0 0 255
-173.424759 0.009701 21.759790 -0.122135 0.730583 0.671804 0 0 0 255
-171.594727 0.009700 18.440592 0.122135 0.730583 -0.671804 0 0 0 255
-171.594727 0.009701 21.759790 0.122135 0.730583 0.671804 0 0 0 255
-169.875076 -0.581805 18.440592 0.356029 0.650349 -0.671010 0 0 0 255
-169.875076 -0.581805 21.759790 0.356029 0.650349 0.671010 0 0 0 255
-168.473190 -1.693473 18.440592 0.556108 0.492080 -0.669729 0 0 0 255
-168.473190 -1.693472 21.759790 0.556108 0.492080 0.669729 2 2 2 255
-168.473190 -1.693472 21.759790 0.556108 0.492080 0.669729 0 0 0 255
-167.558182 -3.191218 18.440592 0.694266 0.266427 -0.668538 0 0 0 255
-167.558182 -3.191217 21.759790 0.694266 0.266427 0.668538 13 13 13 255
-167.240402 -4.894391 18.440592 0.744102 0.000000 -0.668050 0 0 0 255
-167.240402 -4.894391 21.759790 0.744102 0.000000 0.668050 0 0 0 255
-167.558182 -6.597564 18.440594 0.694266 -0.266427 -0.668538 0 0 0 255
-167.558182 -6.597563 21.759792 0.694266 -0.266427 0.668538 0 0 0 255
-167.558182 -6.597563 21.759792 0.694266 -0.266427 0.668538 7 7 7 255
-168.473190 -8.095309 18.440594 0.556108 -0.492080 -0.669729 0 0 0 255
-167.558182 -6.597564 18.440594 0.694266 -0.266427 -0.668538 2 2 2 255
-167.558182 -6.597563 21.759792 0.694266 -0.266427 0.668538 6 6 6 255
-168.473190 -8.095308 21.759792 0.556108 -0.492080 0.669729 0 0 0 255
-169.875076 -9.206976 18.440594 0.356029 -0.650349 -0.671010 0 0 0 255
-169.875076 -9.206975 21.759792 0.356029 -0.650349 0.671010 37 37 37 255
-169.875076 -9.206975 21.759792 0.356029 -0.650349 0.671010 0 0 0 255
-171.594727 -9.798482 18.440594 0.122135 -0.730583 -0.671804 0 0 0 255
-171.594727 -9.798481 21.759792 0.122135 -0.730583 0.671804 68 68 68 255
-171.594727 -9.798481 21.759792 0.122135 -0.730583 0.671804 0 0 0 255
-173.424759 -9.798482 18.440594 -0.122135 -0.730583 -0.671804 0 0 0 255
-171.594727 -9.798482 18.440594 0.122135 -0.730583 -0.671804 255 255 255 255
-171.594727 -9.798481 21.759792 0.122135 -0.730583 0.671804 255 255 255 255
-173.424759 -9.798481 21.759792 -0.122135 -0.730583 0.671804 255 255 255 255
-173.424759 -9.798482 18.440594 -0.122135 -0.730583 -0.671804 255 255 255 255
-173.424759 -9.798481 21.759792 -0.122135 -0.730583 0.671804 0 0 0 255
-175.144424 -9.206976 18.440594 -0.356029 -0.650349 -0.671010 0 0 0 255
-173.424759 -9.798482 18.440594 -0.122135 -0.730583 -0.671804 16 16 16 255
-175.144424 -9.206975 21.759792 -0.356029 -0.650349 0.671010 0 0 0 255
-175.144424 -9.206976 18.440594 -0.356029 -0.650349 -0.671010 19 19 19 255
-176.546295 -8.095309 18.440594 -0.556108 -0.492080 -0.669729 0 0 0 255
-176.546295 -8.095308 21.759792 -0.556108 -0.492080 0.669729 0 0 0 255
-177.461319 -6.597564 18.440594 -0.694266 -0.266427 -0.668538 0 0 0 255
-177.461319 -6.597563 21.759792 -0.694266 -0.266427 0.668538 0 0 0 255
-172.509750 -4.894395 -17.084480 0.000000 0.000000 -1.000000 0 0 0 255
-177.779099 -4.894395 -17.084480 -0.744102 0.000000 -0.668050 0 0 0 255
-177.461319 -3.191222 -17.084480 -0.694266 0.266427 -0.668538 0 0 0 255
-177.779099 -4.894395 -13.765280 -0.744102 0.000000 0.668050 10 10 10 255
-177.461319 -3.191221 -13.765280 -0.694266 0.266427 0.668538 1 1 1 255
-177.779099 -4.894395 -13.765280 -0.744102 0.000000 0.668050 1 1 1 255
-172.509750 -4.894395 -13.765280 0.000000 0.000000 1.000000 0 0 0 255
-177.461319 -3.191221 -13.765280 -0.694266 0.266427 0.668538 0 0 0 255
-176.546295 -1.693477 -17.084480 -0.556108 0.492080 -0.669729 0 0 0 255
-176.546295 -1.693476 -13.765281 -0.556108 0.492080 0.669729 5 5 5 255
-176.546295 -1.693476 -13.765281 -0.556108 0.492080 0.669729 0 0 0 255
-175.144424 -0.581810 -17.084480 -0.356029 0.650349 -0.671010 0 0 0 255
-175.144424 -0.581809 -13.765281 -0.356029 0.650349 0.671010 49 49 49 255
-175.144424 -0.581809 -13.765281 -0.356029 0.650349 0.671010 5 5 5 255
-173.424759 0.009696 -17.084480 -0.122135 0.730583 -0.671804 0 0 0 255
-173.424759 0.009697 -13.765281 -0.122135 0.730583 0.671804 86 86 86 255
-173.424759 0.009697 -13.765281 -0.122135 0.730583 0.671804 36 36 36 255
-171.594727 0.009696 -17.084480 0.122135 0.730583 -0.671804 0 0 0 255
-173.424759 0.009697 -13.765281 -0.122135 0.730583 0.671804 2 2 2 255
-171.594727 0.009697 -13.765281 0.122135 0.730583 0.671804 0 0 0 255
-171.594727 0.009697 -13.765281 0.122135 0.730583 0.671804 2 2 2 255
-169.875076 -0.581810 -17.084480 0.356029 0.650349 -0.671010 0 0 0 255
-169.875076 -0.581809 -13.765281 0.356029 0.650349 0.671010 0 0 0 255
-168.473190 -1.693477 -17.084480 0.556108 0.492080 -0.669729 0 0 0 255
-168.473190 -1.693476 -13.765281 0.556108 0.492080 0.669729 0 0 0 255
-167.558182 -3.191222 -17.084480 0.694266 0.266427 -0.668538 0 0 0 255
-167.558182 -3.191221 -13.765280 0.694266 0.266427 0.668538 0 0 0 255
-167.558182 -3.191221 -13.765280 0.694266 0.266427 0.668538 5 5 5 255
-167.240402 -4.894395 -17.084480 0.744102 0.000000 -0.668050 0 0 0 255
-167.240402 -4.894395 -13.765280 0.744102 0.000000 0.668050 0 0 0 255
-167.558182 -6.597568 -17.084478 0.694266 -0.266427 -0.668538 0 0 0 255
-167.558182 -6.597568 -13.765280 0.694266 -0.266427 0.668538 1 1 1 255
-167.558182 -6.597568 -13.765280 0.694266 -0.266427 0.668538 9 9 9 255
-168.473190 -8.095313 -17.084478 0.556108 -0.492080 -0.669729 0 0 0 255
-167.558182 -6.597568 -13.765280 0.694266 -0.266427 0.668538 0 0 0 255
-168.473190 -8.095312 -13.765280 0.556108 -0.492080 0.669729 0 0 0 255
-169.875076 -9.206981 -17.084478 0.356029 -0.650349 -0.671010 0 0 0 255
-169.875076 -9.206980 -13.765279 0.356029 -0.650349 0.671010 1 1 1 255
-169.875076 -9.206980 -13.765279 0.356029 -0.650349 0.671010 3 3 3 255
-171.594727 -9.798486 -17.084478 0.122135 -0.730583 -0.671804 40 40 40 255
-169.875076 -9.206981 -17.084478 0.356029 -0.650349 -0.671010 12 12 12 255
-171.594727 -9.798486 -13.765279 0.122135 -0.730583 0.671804 0 0 0 255
-171.594727 -9.798486 -17.084478 0.122135 -0.730583 -0.671804 0 0 0 255
-173.424759 -9.798486 -17.084478 -0.122135 -0.730583 -0.671804 15 15 15 255
-171.594727 -9.798486 -17.084478 0.122135 -0.730583 -0.671804 255 255 255 255
-171.594727 -9.798486 -13.765279 0.122135 -0.730583 0.671804 255 255 255 255
-173.424759 -9.798486 -13.765279 -0.122135 -0.730583 0.671804 255 255 255 255
-173.424759 -9.798486 -17.084478 -0.122135 -0.730583 -0.671804 255 255 255 255
-173.424759 -9.798486 -13.765279 -0.122135 -0.730583 0.671804 0 0 0 255
-175.144424 -9.206981 -17.084478 -0.356029 -0.650349 -0.671010 0 0 0 255
-173.424759 -9.798486 -13.765279 -0.122135 -0.730583 0.671804 158 158 158 255
-175.144424 -9.206980 -13.765279 -0.356029 -0.650349 0.671010 0 0 0 255
-175.144424 -9.206980 -13.765279 -0.356029 -0.650349 0.671010 5 5 5 255
-176.546295 -8.095313 -17.084478 -0.556108 -0.492080 -0.669729 0 0 0 255
-176.546295 -8.095312 -13.765280 -0.556108 -0.492080 0.669729 0 0 0 255
-176.546295 -8.095312 -13.765280 -0.556108 -0.492080 0.669729 36 36 36 255
-177.461319 -6.597568 -17.084478 -0.694266 -0.266427 -0.668538 0 0 0 255
-177.461319 -6.597568 -13.765280 -0.694266 -0.266427 0.668538 2 2 2 255
-177.461319 -6.597568 -13.765280 -0.694266 -0.266427 0.668538 15 15 15 255
-128.985168 -5.149855 18.983213 0.000000 0.000000 -1.000000 0 0 0 255
-134.254517 -5.149855 18.983213 -0.744102 0.000000 -0.668050 0 0 0 255
-133.936737 -3.446681 18.983213 -0.694266 0.266427 -0.668538 0 0 0 255
-134.254517 -5.149854 22.302412 -0.744102 0.000000 0.668050 0 0 0 255
-133.936737 -3.446681 22.302412 -0.694266 0.266427 0.668538 0 0 0 255
-128.985168 -5.149854 22.302412 0.000000 0.000000 1.000000 0 0 0 255
-133.936737 -3.446681 22.302412 -0.694266 0.266427 0.668538 1 1 1 255
-133.021713 -1.948936 18.983213 -0.556108 0.492080 -0.669729 0 0 0 255
-133.021713 -1.948936 22.302412 -0.556108 0.492080 0.669729 1 1 1 255
-133.021713 -1.948936 22.302412 -0.556108 0.492080 0.669729 0 0 0 255
-131.619843 -0.837269 18.983213 -0.356029 0.650349 -0.671010 0 0 0 255
-131.619843 -0.837269 22.302412 -0.356029 0.650349 0.671010 2 2 2 255
-131.619843 -0.837269 22.302412 -0.356029 0.650349 0.671010 0 0 0 255
-129.900177 -0.245763 18.983213 -0.122135 0.730583 -0.671804 0 0 0 255
-129.900177 -0.245763 22.302412 -0.122135 0.730583 0.671804 0 0 0 255
-128.070160 -0.245763 18.983213 0.122135 0.730583 -0.671804 0 0 0 255
-128.070160 -0.245763 22.302412 0.122135 0.730583 0.671804 0 0 0 255
-126.350494 -0.837269 18.983213 0.355998 0.650349 -0.671010 0 0 0 255
-126.350494 -0.837269 22.302412 0.355998 0.650349 0.671010 0 0 0 255
-124.948608 -1.948936 18.983213 0.556108 0.492080 -0.669729 0 0 0 255
-124.948608 -1.948936 22.302412 0.556108 0.492080 0.669729 0 0 0 255
-124.033600 -3.446681 18.983213 0.694266 0.266427 -0.668538 0 0 0 255
-124.033600 -3.446681 22.302412 0.694266 0.266427 0.668538 0 0 0 255
-123.715820 -5.149855 18.983213 0.744102 0.000000 -0.668050 0 0 0 255
-123.715820 -5.149854 22.302412 0.744102 0.000000 0.668050 0 0 0 255
-124.033600 -6.853028 18.983215 0.694266 -0.266427 -0.668538 0 0 0 255
-124.033600 -6.853027 22.302414 0.694266 -0.266427 0.668538 0 0 0 255
-124.948608 -8.350773 18.983215 0.556108 -0.492080 -0.669729 0 0 0 255
-124.948608 -8.350772 22.302414 0.556108 -0.492080 0.669729 0 0 0 255
-126.350494 -9.462440 18.983215 0.355998 -0.650349 -0.671010 0 0 0 255
-126.350494 -9.462440 22.302414 0.356029 -0.650349 0.671010 0 0 0 255
-128.070160 -10.053946 18.983215 0.122135 -0.730583 -0.671804 0 0 0 255
-128.070160 -10.053946 22.302414 0.122135 -0.730583 0.671804 0 0 0 255
-128.070160 -10.053946 22.302414 0.122135 -0.730583 0.671804 48 48 48 255
-129.900177 -10.053946 18.983215 -0.122135 -0.730583 -0.671804 0 0 0 255
-129.900177 -10.053946 22.302414 -0.122135 -0.730583 0.671804 0 0 0 255
-129.900177 -10.053946 22.302414 -0.122135 -0.730583 0.671804 13 13 13 255
-131.619843 -9.462440 18.983215 -0.356029 -0.650349 -0.671010 0 0 0 255
-129.900177 -10.053946 22.302414 -0.122135 -0.730583 0.671804 197 197 197 255
-131.619843 -9.462440 22.302414 -0.356029 -0.650349 0.671010 53 53 53 255
-131.619843 -9.462440 22.302414 -0.356029 -0.650349 0.671010 0 0 0 255
-133.021713 -8.350773 18.983215 -0.556108 -0.492080 -0.669729 0 0 0 255
-133.021713 -8.350772 22.302414 -0.556108 -0.492080 0.669729 2 2 2 255
-133.021713 -8.350772 22.302414 -0.556108 -0.492080 0.669729 0 0 0 255
-133.936737 -6.853028 18.983215 -0.694266 -0.266427 -0.668538 0 0 0 255
-133.936737 -6.853027 22.302414 -0.694266 -0.266427 0.668538 1 1 1 255
-133.936737 -6.853027 22.302414 -0.694266 -0.266427 0.668538 5 5 5 255
-133.936737 -6.853027 22.302414 -0.694266 -0.266427 0.668538 13 13 13 255
-128.985168 -5.149859 -16.541859 0.000000 0.000000 -1.000000 0 0 0 255
-134.254517 -5.149859 -16.541859 -0.744102 0.000000 -0.668050 0 0 0 255
-133.936737 -3.446686 -16.541859 -0.694266 0.266427 -0.668538 0 0 0 255
-134.254517 -5.149858 -13.222658 -0.744102 0.000000 0.668050 0 0 0 255
-133.936737 -3.446686 -13.222658 -0.694266 0.266427 0.668538 0 0 0 255
-134.254517 -5.149858 -13.222658 -0.744102 0.000000 0.668050 1 1 1 255
-128.985168 -5.149858 -13.222658 0.000000 0.000000 1.000000 4 4 4 255
-133.021729 -1.948941 -16.541857 -0.556108 0.492080 -0.669729 0 0 0 255
-133.021729 -1.948940 -13.222659 -0.556108 0.492080 0.669729 0 0 0 255
-131.619843 -0.837273 -16.541857 -0.356029 0.650349 -0.671010 0 0 0 255
-131.619843 -0.837273 -13.222659 -0.355998 0.650349 0.671010 0 0 0 255
-129.900177 -0.245768 -16.541859 -0.122135 0.730583 -0.671804 0 0 0 255
-129.900177 -0.245767 -13.222659 -0.122135 0.730583 0.671804 0 0 0 255
-128.070160 -0.245768 -16.541859 0.122135 0.730583 -0.671804 0 0 0 255
-128.070160 -0.245767 -13.222659 0.122135 0.730583 0.671804 0 0 0 255
-126.350494 -0.837273 -16.541859 0.356029 0.650349 -0.671010 0 0 0 255
-128.070160 -0.245768 -16.541859 0.122135 0.730583 -0.671804 3 3 3 255
-128.070160 -0.245767 -13.222659 0.122135 0.730583 0.671804 8 8 9 255
-126.350494 -0.837273 -13.222659 0.355998 0.650349 0.671010 6 6 7 255
-126.350494 -0.837273 -13.222659 0.355998 0.650349 0.671010 0 0 0 255
-124.948608 -1.948941 -16.541859 0.556108 0.492080 -0.669729 4 4 4 255
-124.948608 -1.948940 -13.222659 0.556108 0.492080 0.669729 2 2 2 255
-124.948608 -1.948941 -16.541859 0.556108 0.492080 -0.669729 0 0 0 255
-124.948608 -1.948940 -13.222659 0.556108 0.492080 0.669729 0 0 0 255
-124.033600 -3.446686 -16.541859 0.694266 0.266427 -0.668538 0 0 0 255
-124.033600 -3.446686 -13.222658 0.694266 0.266427 0.668538 0 0 0 255
-123.715820 -5.149859 -16.541859 0.744102 0.000000 -0.668050 0 0 0 255
-123.715820 -5.149858 -13.222658 0.744102 0.000000 0.668050 0 0 0 255
-124.033600 -6.853032 -16.541857 0.694266 -0.266427 -0.668538 4 4 4 255
-124.033600 -6.853032 -13.222658 0.694266 -0.266427 0.668538 0 0 0 255
-124.033600 -6.853032 -16.541857 0.694266 -0.266427 -0.668538 0 0 0 255
-124.948608 -8.350778 -16.541857 0.556108 -0.492080 -0.669729 2 2 2 255
-124.948608 -8.350777 -13.222658 0.556108 -0.492080 0.669729 0 0 0 255
-124.948608 -8.350778 -16.541857 0.556108 -0.492080 -0.669729 0 0 0 255
-126.350494 -9.462444 -16.541857 0.356029 -0.650349 -0.671010 1 1 1 255
-126.350494 -9.462443 -13.222657 0.355998 -0.650349 0.671010 0 0 0 255
-126.350494 -9.462444 -16.541857 0.356029 -0.650349 -0.671010 0 0 0 255
-128.070160 -10.053950 -16.541857 0.122135 -0.730583 -0.671804 0 0 0 255
-128.070160 -10.053949 -13.222657 0.122135 -0.730583 0.671804 0 0 0 255
-128.070160 -10.053950 -16.541857 0.122135 -0.730583 -0.671804 1 1 1 255
-129.900177 -10.053950 -16.541857 -0.122135 -0.730583 -0.671804 5 5 5 255
-128.070160 -10.053950 -16.541857 0.122135 -0.730583 -0.671804 3 3 3 255
-128.070160 -10.053949 -13.222657 0.122135 -0.730583 0.671804 1 1 1 255
-129.900177 -10.053949 -13.222657 -0.122135 -0.730583 0.671804 15 15 15 255
-129.900177 -10.053950 -16.541857 -0.122135 -0.730583 -0.671804 33 33 33 255
-129.900177 -10.053949 -13.222657 -0.122135 -0.730583 0.671804 0 0 0 255
-131.619843 -9.462444 -16.541857 -0.356029 -0.650349 -0.671010 24 24 24 255
-129.900177 -10.053949 -13.222657 -0.122135 -0.730583 0.671804 255 255 255 255
-131.619843 -9.462443 -13.222657 -0.355998 -0.650349 0.671010 205 205 205 255
-131.619843 -9.462443 -13.222657 -0.355998 -0.650349 0.671010 0 0 0 255
-133.021729 -8.350778 -16.541857 -0.556108 -0.492080 -0.669729 0 0 0 255
-133.021729 -8.350777 -13.222658 -0.556108 -0.492080 0.669729 14 14 14 255
-133.021729 -8.350777 -13.222658 -0.556108 -0.492080 0.669729 0 0 0 255
-133.936737 -6.853032 -16.541857 -0.694266 -0.266427 -0.668538 1 1 1 255
-133.936737 -6.853032 -13.222658 -0.694266 -0.266427 0.668538 12 12 12 255
-133.936737 -6.853032 -13.222658 -0.694266 -0.266427 0.668538 0 0 0 255
-159.528839 18.875097 -15.140774 -0.437880 0.667684 -0.602008 255 27 27 255
-158.857285 18.875097 -15.140775 0.000000 0.707053 -0.707144 255 8 28 255
-163.747467 5.322138 -15.140773 0.000000 0.000000 -1.000000 255 255 255 255
-158.857285 18.875097 -15.140775 0.000000 0.707053 -0.707144 255 255 255 255
-146.909592 18.875080 -15.140775 0.000000 0.707083 -0.707083 255 255 255 255
-146.909592 5.322138 -15.140773 0.000000 0.000000 -1.000000 255 255 255 255
-146.909592 18.875080 -15.140775 0.000000 0.707083 -0.707083 255 0 28 255
-145.923080 18.875071 -15.140775 0.000000 0.707083 -0.707083 255 0 28 255
-145.923080 5.322138 -15.140773 0.000000 0.000000 -1.000000 255 255 255 255
-145.923080 18.875071 -15.140775 0.000000 0.707083 -0.707083 255 255 255 255
-130.623871 18.875067 -15.140775 0.000000 0.707053 -0.707144 255 255 255 255
-128.758682 5.322138 -15.140773 0.000000 0.000000 -1.000000 255 255 255 255
-146.909592 5.322140 20.326431 0.000000 0.000000 1.000000 255 255 255 255
-146.909592 18.875069 20.326427 0.000000 0.707083 0.707083 255 255 255 255
-158.892441 18.875069 20.326427 0.000000 0.707083 0.707083 255 255 255 255
-164.722916 5.322140 20.326431 0.000000 0.000000 1.000000 255 255 255 255
-128.920731 5.322140 20.326431 0.000000 0.000000 1.000000 255 255 255 255
-130.728409 18.875069 20.326427 0.000000 0.707083 0.707083 255 255 255 255
-145.923080 18.875069 20.326427 0.000000 0.707083 0.707083 255 255 255 255
-145.923080 5.322140 20.326431 0.000000 0.000000 1.000000 255 255 255 255
-129.908218 18.875069 20.326426 0.529069 0.614124 0.585559 255 4 28 255
-165.417374 5.322139 19.380945 -0.614551 0.788873 0.000000 255 255 255 255
-159.528839 18.875074 19.380939 -0.548418 0.836177 0.000000 255 255 255 255
-159.528839 18.875082 -14.263838 -0.548387 0.836207 0.000000 255 255 255 255
-165.417374 5.322137 -14.263835 -0.614521 0.788873 0.000000 255 255 255 255
-165.417374 5.322139 19.380945 -0.614551 0.788873 0.000000 255 0 28 255
-186.390350 -6.130012 -13.029385 -0.607746 -0.794092 0.000000 255 255 255 255
-186.390350 -6.130012 -15.140770 -0.489578 -0.639668 -0.592517 255 255 255 255
-186.390350 -6.130008 20.326433 -0.489578 -0.639668 0.592517 255 255 255 255
-186.390350 -6.130010 14.810693 -0.607746 -0.794092 0.000000 255 255 255 255
-188.465851 1.539593 -15.140770 -0.689596 0.443861 -0.572192 255 0 28 255
-188.465851 1.539594 -8.882729 -0.840846 0.541246 0.000000 255 0 28 255
-186.390350 -6.130012 -15.140770 -0.489578 -0.639668 -0.592517 255 18 28 255
-186.390350 -6.130012 -13.029385 -0.607746 -0.794092 0.000000 255 49 31 255
-186.390350 -6.130010 14.810693 -0.607746 -0.794092 0.000000 255 142 18 255
3 0 1 2
3 0 2 3
3 4 5 6
3 4 6 7
3 8 1 0
3 8 0 9
3 1 8 10
3 1 10 2
3 4 7 11
3 11 12 13
3 14 15 16
3 11 13 14
3 16 4 11
3 11 14 16
3 17 18 19
3 17 19 20
3 21 22 23
3 21 23 24
3 8 9 17
3 17 20 25
3 26 27 28
3 17 25 26
3 28 8 17
3 17 26 28
3 29 30 31
3 32 33 34
3 29 31 32
3 35 36 29
3 37 38 39
3 39 35 29
3 29 32 34
3 34 40 41
3 42 37 39
3 34 41 42
3 39 29 34
3 34 42 39
3 11 43 2
3 11 2 12
3 22 44 45
3 22 45 23
3 46 47 48
3 46 48 49
3 16 50 51
3 16 51 4
3 52 41 40
3 52 40 20
3 28 53 54
3 28 54 8
3 55 56 57
3 58 59 60
3 58 60 61
3 59 62 60
3 55 57 63
3 61 60 64
3 61 64 65
3 60 62 64
3 55 63 66
3 67 64 68
3 67 68 69
3 64 62 68
3 55 66 70
3 69 68 71
3 69 71 70
3 68 62 71
3 55 70 72
3 70 71 73
3 70 73 72
3 71 62 73
3 55 72 74
3 72 73 75
3 72 75 74
3 73 62 75
3 55 74 76
3 74 75 77
3 74 77 76
3 75 62 78
3 55 76 79
3 76 77 80
3 76 80 79
3 78 62 80
3 55 79 81
3 79 80 82
3 79 82 81
3 80 62 82
3 55 81 83
3 81 82 84
3 81 84 83
3 82 62 85
3 55 83 86
3 87 88 89
3 87 89 86
3 85 62 89
3 55 86 90
3 86 89 91
3 86 91 90
3 89 62 92
3 55 90 93
3 90 91 94
3 90 94 93
3 92 62 95
3 55 93 96
3 97 98 99
3 97 99 100
3 95 62 101
3 55 96 102
3 103 101 104
3 103 104 105
3 101 62 104
3 55 102 106
3 105 104 107
3 105 107 106
3 104 62 107
3 55 106 108
3 106 107 109
3 106 109 108
3 107 62 109
3 55 108 56
3 108 109 59
3 108 59 58
3 109 62 59
3 110 111 112
3 111 113 114
3 111 114 112
3 115 116 117
3 110 112 118
3 112 114 119
3 112 119 118
3 117 116 120
3 110 118 121
3 118 119 122
3 118 122 121
3 120 116 123
3 110 121 124
3 121 122 125
3 121 125 124
3 123 116 126
3 110 124 127
3 124 128 129
3 124 129 127
3 126 116 130
3 110 127 131
3 127 129 132
3 127 132 131
3 130 116 132
3 110 131 133
3 131 132 134
3 131 134 133
3 132 116 134
3 110 133 135
3 133 134 136
3 133 136 135
3 134 116 137
3 110 135 138
3 135 136 139
3 135 139 138
3 137 116 139
3 110 138 140
3 138 139 141
3 138 141 140
3 139 116 142
3 110 140 143
3 140 144 145
3 140 145 143
3 142 116 145
3 110 143 146
3 143 145 147
3 143 147 146
3 145 116 148
3 110 146 149
3 150 148 151
3 150 151 152
3 148 116 151
3 110 149 153
3 154 155 156
3 154 156 157
3 151 116 158
3 110 153 159
3 153 160 161
3 153 161 159
3 158 116 162
3 110 159 163
3 159 161 164
3 159 164 163
3 162 116 165
3 110 163 166
3 163 164 167
3 163 167 166
3 165 116 168
3 110 166 111
3 166 167 113
3 166 113 111
3 168 116 115
3 169 170 171
3 170 172 173
3 170 173 171
3 172 174 175
3 169 171 176
3 171 173 177
3 171 177 176
3 175 174 178
3 169 176 179
3 176 177 180
3 176 180 179
3 178 174 181
3 169 179 182
3 179 181 183
3 179 183 182
3 181 174 183
3 169 182 184
3 182 183 185
3 182 185 184
3 183 174 185
3 169 184 186
3 184 185 187
3 184 187 186
3 185 174 187
3 169 186 188
3 186 187 189
3 186 189 188
3 187 174 189
3 169 188 190
3 188 189 191
3 188 191 190
3 189 174 191
3 169 190 192
3 190 191 193
3 190 193 192
3 191 174 193
3 169 192 194
3 192 193 195
3 192 195 194
3 193 174 195
3 169 194 196
3 194 195 197
3 194 197 196
3 195 174 197
3 169 196 198
3 196 197 199
3 196 199 198
3 197 174 199
3 169 198 200
3 198 199 201
3 198 201 200
3 199 174 202
3 169 200 203
3 200 201 204
3 200 204 203
3 202 174 205
3 169 203 206
3 203 207 208
3 203 208 206
3 205 174 209
3 169 206 210
3 206 209 211
3 206 211 210
3 209 174 212
3 169 210 213
3 210 211 214
3 210 214 213
3 212 174 215
3 169 213 170
3 213 216 172
3 213 172 170
3 215 174 172
3 217 218 219
3 218 220 221
3 218 221 219
3 222 223 221
3 217 219 224
3 219 221 225
3 219 225 224
3 221 223 225
3 217 224 226
3 224 225 227
3 224 227 226
3 225 223 227
3 217 226 228
3 226 227 229
3 226 229 228
3 227 223 229
3 217 228 230
3 228 229 231
3 228 231 230
3 229 223 231
3 217 230 232
3 233 234 235
3 233 235 232
3 231 223 236
3 217 232 237
3 232 235 238
3 232 238 239
3 236 223 240
3 217 237 241
3 239 238 242
3 239 242 241
3 240 223 242
3 217 241 243
3 241 242 244
3 241 244 243
3 242 223 244
3 217 243 245
3 243 244 246
3 243 246 247
3 244 223 246
3 217 245 248
3 247 246 249
3 247 249 250
3 246 223 249
3 217 248 251
3 250 249 252
3 250 252 253
3 249 223 252
3 217 251 254
3 253 252 255
3 253 255 254
3 252 223 255
3 217 256 257
3 258 259 260
3 258 260 261
3 255 223 262
3 217 257 263
3 257 264 265
3 257 265 263
3 262 223 266
3 217 263 267
3 263 265 268
3 263 268 267
3 266 223 269
3 217 267 270
3 267 268 271
3 267 271 270
3 269 223 272
3 217 270 218
3 270 271 220
3 270 220 218
3 272 223 222
3 20 273 274
3 20 274 25
3 275 276 277
3 275 277 278
3 26 279 280
3 26 280 27
3 281 282 283
3 281 283 284
3 285 286 287
3 285 287 288
3 14 35 39
3 14 39 15
3 289 290 291
3 289 291 292
3 12 293 36
3 12 36 13
3 294 295 296
3 294 296 297
3 4 37 42
3 4 42 298
3 299 300 21
3 21 24 301
3 302 299 21
3 21 301 302
3 52 20 303
3 304 5 4
3 52 303 304
3 304 4 298
3 304 298 52
3 303 305 306
3 307 6 5
3 303 306 307
3 307 5 304
3 307 304 303
