ply
format ascii 1.0
comment Created by Blender 2.80 (sub 75) - www.blender.org, source file: 'lowpolycars.blend'
element vertex 254
property float x
property float y
property float z
property float nx
property float ny
property float nz
property uchar red
property uchar green
property uchar blue
property uchar alpha
element face 398
property list uchar uint vertex_indices
end_header
-111.687210 -5.750541 -119.041245 0.526475 -0.615925 -0.586016 187 0 255 255
-109.684036 6.961802 -119.041245 0.755882 0.157476 -0.635456 187 0 255 255
-109.684036 6.961806 -86.276505 0.755882 0.157476 0.635456 187 0 255 255
-111.687210 -5.750537 -86.276505 0.526475 -0.615925 0.586016 187 0 255 255
-110.409981 8.101635 -119.041245 0.596393 0.379833 -0.707083 187 0 255 255
-110.509766 8.258312 -86.276505 0.596393 0.379833 0.707083 187 0 255 255
-149.984619 -0.519985 -86.276505 0.000000 0.000000 1.000000 187 0 255 255
-149.984619 -5.750537 -86.276505 0.000000 -0.707083 0.707083 187 1 255 255
-161.509216 -0.519985 -86.276505 0.000000 0.000000 1.000000 187 1 255 255
-161.509216 -5.750537 -86.276505 0.000000 -0.707083 0.707083 187 1 255 255
-188.190231 -0.383335 -86.276505 -0.707083 0.000000 0.707083 187 0 255 255
-188.190231 -5.750537 -86.276505 -0.577349 -0.577349 0.577349 186 13 255 255
-111.587158 8.261066 -86.276505 0.000000 0.000000 1.000000 187 0 255 255
-131.965942 8.313170 -86.276505 0.000000 0.000000 1.000000 187 2 255 255
-133.349518 8.316708 -86.276505 0.000000 0.000000 1.000000 187 1 255 255
-149.984619 8.359239 -86.276505 0.000000 0.000000 1.000000 187 0 255 255
-161.509216 8.388711 -86.276505 -0.337016 0.527909 0.779534 187 0 255 255
-188.190231 1.001154 -86.276505 -0.640889 0.487533 0.592883 187 0 255 255
-188.190231 -0.383339 -119.041237 -0.707083 0.000000 -0.707083 185 19 255 255
-188.190231 -5.750541 -119.041237 -0.577349 -0.577349 -0.577349 186 10 255 255
-188.190231 1.001150 -119.041237 -0.640889 0.487533 -0.592883 186 14 255 255
-188.190231 -5.750541 -119.041237 -0.577349 -0.577349 -0.577349 187 3 255 255
-188.190231 -0.383339 -119.041237 -0.707083 0.000000 -0.707083 187 0 255 255
-161.509216 -0.519989 -119.041237 0.000000 0.000000 -1.000000 187 0 255 255
-161.509216 -5.750541 -119.041237 0.000000 -0.707083 -0.707083 145 75 255 255
-149.984619 -0.519989 -119.041237 0.000000 0.000000 -1.000000 187 0 255 255
-149.984619 -5.750541 -119.041237 0.000000 -0.707083 -0.707083 186 9 255 255
-111.687210 -5.750541 -119.041245 0.526475 -0.615925 -0.586016 187 1 255 255
-188.190231 1.001150 -119.041237 -0.640889 0.487533 -0.592883 187 3 255 255
-161.509216 8.388708 -119.041237 -0.337016 0.527909 -0.779534 187 0 255 255
-149.984619 8.323914 -119.041237 0.000000 0.000000 -1.000000 187 0 255 255
-133.238220 8.229855 -119.041237 0.000000 0.000000 -1.000000 187 0 255 255
-131.870499 8.222173 -119.041237 0.000000 0.000000 -1.000000 187 0 255 255
-111.542686 8.107997 -119.041245 0.000000 0.000000 -1.000000 187 0 255 255
-119.159920 21.840225 -86.276505 0.381054 0.691702 0.613422 187 0 255 255
-119.159920 21.840219 -119.041237 0.381085 0.691702 -0.613422 187 0 255 255
-119.970955 21.842962 -119.041237 0.002380 0.707083 -0.707083 187 0 255 255
-131.932098 21.883400 -119.041237 0.002380 0.707083 -0.707083 187 0 255 255
-133.355133 21.888210 -119.041237 0.002380 0.707083 -0.707083 187 0 255 255
-149.984619 21.944433 -119.041237 -0.326945 0.710196 -0.623432 187 0 255 255
-149.984619 21.944437 -86.276505 -0.326914 0.710196 0.623432 182 27 255 255
-133.303955 21.888042 -86.276505 0.002380 0.707083 0.707083 187 0 255 255
-132.095383 21.883957 -86.276505 0.002380 0.707083 0.707083 187 0 255 255
-149.984619 21.944433 -117.940369 -0.418165 0.908353 0.000000 187 0 255 255
-149.984619 21.944437 -87.283562 -0.418165 0.908353 0.000000 187 3 255 255
-150.595795 21.225544 -119.041237 -0.538713 0.457991 -0.707083 187 0 255 255
-161.509216 8.388708 -119.041237 -0.337016 0.527909 -0.779534 185 18 255 255
-161.509216 8.388708 -117.811958 -0.538072 0.842891 0.000000 187 4 255 255
-161.509216 8.388711 -87.529930 -0.538072 0.842891 0.000000 187 0 255 255
-188.190231 -5.750541 -119.041237 -0.577349 -0.577349 -0.577349 255 255 255 255
-161.509216 -5.750541 -119.041237 0.000000 -0.707083 -0.707083 255 255 255 255
-161.509216 -5.750537 -86.276505 0.000000 -0.707083 0.707083 255 255 255 255
-188.190231 -5.750537 -86.276505 -0.577349 -0.577349 0.577349 255 255 255 255
-149.984619 -5.750541 -119.041237 0.000000 -0.707083 -0.707083 255 255 255 255
-149.984619 -5.750537 -86.276505 0.000000 -0.707083 0.707083 255 255 255 255
-111.687210 -5.750541 -119.041245 0.526475 -0.615925 -0.586016 255 255 255 255
-111.687210 -5.750537 -86.276505 0.526475 -0.615925 0.586016 255 255 255 255
-174.370361 -5.617475 -87.864754 0.000000 0.000000 -0.999969 2 2 2 255
-178.997742 -5.617475 -87.864754 -0.744102 0.000000 -0.668050 1 1 1 255
-178.718674 -4.121799 -87.864754 -0.694266 0.266427 -0.668538 0 0 0 255
-178.997742 -5.617474 -85.245186 -0.744102 0.000000 0.668050 0 0 0 255
-178.718674 -4.121799 -85.245186 -0.694266 0.266427 0.668538 0 0 0 255
-174.370361 -5.617474 -85.245186 0.000000 0.000000 1.000000 1 1 1 255
-177.915131 -2.806524 -87.864754 -0.556108 0.492080 -0.669729 3 3 3 255
-177.915131 -2.806524 -85.245186 -0.556108 0.492080 0.669729 1 1 1 255
-176.684052 -1.830291 -87.864754 -0.356029 0.650349 -0.671010 8 8 8 255
-176.684052 -1.830291 -85.245186 -0.355998 0.650349 0.671010 0 0 0 255
-175.173889 -1.310848 -87.864754 -0.122105 0.730583 -0.671804 2 2 2 255
-175.173889 -1.310848 -85.245186 -0.122105 0.730583 0.671804 0 0 0 255
-173.566818 -1.310848 -87.864754 0.122105 0.730583 -0.671804 0 0 0 255
-173.566818 -1.310848 -85.245186 0.122105 0.730583 0.671804 0 0 0 255
-172.056656 -1.830291 -87.864754 0.356029 0.650349 -0.671010 0 0 0 255
-172.056656 -1.830291 -85.245186 0.355998 0.650349 0.671010 0 0 0 255
-170.825577 -2.806524 -87.864754 0.556108 0.492080 -0.669729 0 0 0 255
-170.825577 -2.806524 -85.245186 0.556108 0.492080 0.669729 0 0 0 255
-170.022034 -4.121799 -87.864754 0.694266 0.266427 -0.668538 0 0 0 255
-170.022034 -4.121799 -85.245186 0.694266 0.266427 0.668538 0 0 0 255
-169.742966 -5.617475 -87.864754 0.744102 0.000000 -0.668050 0 0 0 255
-169.742966 -5.617474 -85.245186 0.744102 0.000000 0.668050 0 0 0 255
-170.022034 -7.113150 -87.864754 0.694266 -0.266427 -0.668538 0 0 0 255
-170.022034 -7.113150 -85.245186 0.694266 -0.266427 0.668538 0 0 0 255
-170.825577 -8.428425 -87.864754 0.556108 -0.492080 -0.669729 0 0 0 255
-170.825577 -8.428426 -85.245186 0.556108 -0.492080 0.669729 0 0 0 255
-172.056656 -9.404658 -87.864754 0.356029 -0.650349 -0.671010 6 6 6 255
-172.056656 -9.404658 -85.245186 0.356029 -0.650349 0.671010 0 0 0 255
-173.566818 -9.924101 -87.864754 0.122135 -0.730583 -0.671804 0 0 0 255
-173.566818 -9.924101 -85.245186 0.122135 -0.730583 0.671804 0 0 0 255
-175.173889 -9.924101 -87.864754 -0.122135 -0.730583 -0.671804 3 3 3 255
-175.173889 -9.924101 -85.245186 -0.122135 -0.730583 0.671804 0 0 0 255
-176.684052 -9.404658 -87.864754 -0.356029 -0.650349 -0.671010 3 3 3 255
-176.684052 -9.404658 -85.245186 -0.356029 -0.650349 0.671010 0 0 0 255
-177.915131 -8.428425 -87.864754 -0.556108 -0.492080 -0.669729 0 0 0 255
-177.915131 -8.428426 -85.245186 -0.556108 -0.492080 0.669729 0 0 0 255
-178.718674 -7.113150 -87.864754 -0.694266 -0.266427 -0.668538 2 2 2 255
-178.718674 -7.113150 -85.245186 -0.694266 -0.266427 0.668538 0 0 0 255
-174.370361 -5.617478 -120.054863 0.000000 0.000000 -1.000000 0 0 0 255
-178.997742 -5.617478 -120.054863 -0.744102 0.000000 -0.668050 0 0 0 255
-178.718674 -4.121803 -120.054863 -0.694266 0.266427 -0.668538 0 0 0 255
-178.997742 -5.617478 -117.435295 -0.744102 0.000000 0.668050 0 0 0 255
-178.718674 -4.121802 -117.435295 -0.694266 0.266427 0.668538 0 0 0 255
-174.370361 -5.617478 -117.435295 0.000000 0.000000 1.000000 0 0 0 255
-177.915146 -2.806528 -120.054863 -0.556108 0.492080 -0.669729 0 0 0 255
-177.915146 -2.806527 -117.435295 -0.556108 0.492080 0.669729 0 0 0 255
-176.684052 -1.830295 -120.054863 -0.355998 0.650349 -0.671010 0 0 0 255
-176.684052 -1.830294 -117.435295 -0.356029 0.650349 0.671010 0 0 0 255
-175.173889 -1.310852 -120.054863 -0.122105 0.730583 -0.671804 1 1 1 255
-175.173889 -1.310852 -117.435295 -0.122135 0.730583 0.671804 0 0 0 255
-173.566818 -1.310852 -120.054863 0.122135 0.730583 -0.671804 0 0 0 255
-173.566818 -1.310852 -117.435295 0.122135 0.730583 0.671804 0 0 0 255
-172.056671 -1.830295 -120.054863 0.355998 0.650349 -0.671010 0 0 0 255
-172.056671 -1.830294 -117.435295 0.356029 0.650349 0.671010 1 1 1 255
-170.825577 -2.806528 -120.054863 0.556108 0.492080 -0.669729 2 2 2 255
-170.825577 -2.806527 -117.435295 0.556108 0.492080 0.669729 0 0 0 255
-170.022034 -4.121803 -120.054863 0.694266 0.266427 -0.668538 11 11 11 255
-170.022034 -4.121802 -117.435295 0.694266 0.266427 0.668538 0 0 0 255
-169.742981 -5.617478 -120.054863 0.744102 0.000000 -0.668050 8 8 8 255
-169.742981 -5.617478 -117.435295 0.744102 0.000000 0.668050 6 6 6 255
-170.022034 -7.113154 -120.054863 0.694266 -0.266427 -0.668538 0 0 0 255
-170.022034 -7.113153 -117.435295 0.694266 -0.266427 0.668538 4 4 4 255
-170.825577 -8.428430 -120.054863 0.556108 -0.492080 -0.669729 0 0 0 255
-170.825577 -8.428429 -117.435295 0.556108 -0.492080 0.669729 0 0 0 255
-172.056671 -9.404662 -120.054863 0.356029 -0.650349 -0.671010 5 5 5 255
-172.056671 -9.404662 -117.435295 0.355998 -0.650349 0.671010 9 9 9 255
-173.566818 -9.924106 -120.054863 0.122135 -0.730583 -0.671804 0 0 0 255
-173.566818 -9.924105 -117.435295 0.122105 -0.730583 0.671804 0 0 0 255
-175.173889 -9.924106 -120.054863 -0.122135 -0.730583 -0.671804 0 0 0 255
-175.173889 -9.924105 -117.435295 -0.122105 -0.730583 0.671804 0 0 0 255
-176.684052 -9.404662 -120.054863 -0.356029 -0.650349 -0.671010 0 0 0 255
-176.684052 -9.404662 -117.435295 -0.355998 -0.650349 0.671010 2 2 2 255
-177.915146 -8.428430 -120.054863 -0.556108 -0.492080 -0.669729 0 0 0 255
-177.915146 -8.428429 -117.435295 -0.556108 -0.492080 0.669729 0 0 0 255
-178.718674 -7.113154 -120.054863 -0.694266 -0.266427 -0.668538 0 0 0 255
-178.718674 -7.113153 -117.435295 -0.694266 -0.266427 0.668538 0 0 0 255
-122.356094 -5.617472 -87.864754 0.000000 0.000000 -1.000000 2 2 2 255
-126.983475 -5.617472 -87.864754 -0.744102 0.000000 -0.668050 0 0 0 255
-126.704407 -4.121797 -87.864754 -0.694266 0.266427 -0.668538 10 10 10 255
-126.983475 -5.617472 -85.245178 -0.744102 0.000000 0.668050 0 0 0 255
-126.704407 -4.121796 -85.245178 -0.694266 0.266427 0.668538 5 5 5 255
-122.356094 -5.617472 -85.245178 0.000000 0.000000 0.999969 1 1 1 255
-125.900871 -2.806522 -87.864754 -0.556108 0.492080 -0.669729 81 81 81 255
-125.900871 -2.806521 -85.245178 -0.556108 0.492080 0.669729 2 2 2 255
-124.669785 -1.830289 -87.864754 -0.356029 0.650349 -0.671010 2 2 2 255
-124.669785 -1.830288 -85.245178 -0.356029 0.650349 0.671010 0 0 0 255
-123.159630 -1.310846 -87.864754 -0.122135 0.730583 -0.671804 19 19 19 255
-123.159630 -1.310846 -85.245178 -0.122135 0.730583 0.671804 0 0 0 255
-121.552551 -1.310846 -87.864754 0.122135 0.730583 -0.671804 0 0 0 255
-121.552551 -1.310846 -85.245178 0.122135 0.730583 0.671804 0 0 0 255
-120.042404 -1.830289 -87.864754 0.356029 0.650349 -0.671010 0 0 0 255
-120.042397 -1.830288 -85.245186 0.356029 0.650349 0.671010 0 0 0 255
-118.811310 -2.806522 -87.864754 0.556108 0.492080 -0.669729 0 0 0 255
-118.811310 -2.806521 -85.245186 0.556108 0.492080 0.669729 0 0 0 255
-118.007774 -4.121797 -87.864754 0.694266 0.266427 -0.668538 0 0 0 255
-118.007774 -4.121796 -85.245186 0.694266 0.266427 0.668538 0 0 0 255
-117.728706 -5.617472 -87.864754 0.744102 0.000000 -0.668050 0 0 0 255
-117.728706 -5.617472 -85.245186 0.744102 0.000000 0.668050 0 0 0 255
-118.007774 -7.113148 -87.864754 0.694266 -0.266427 -0.668538 0 0 0 255
-118.007774 -7.113148 -85.245186 0.694266 -0.266427 0.668538 0 0 0 255
-118.811310 -8.428423 -87.864754 0.556108 -0.492080 -0.669729 0 0 0 255
-118.811310 -8.428423 -85.245186 0.556108 -0.492080 0.669729 0 0 0 255
-120.042404 -9.404655 -87.864754 0.355998 -0.650349 -0.671010 0 0 0 255
-120.042397 -9.404656 -85.245186 0.356029 -0.650349 0.671010 0 0 0 255
-121.552551 -9.924099 -87.864754 0.122135 -0.730583 -0.671804 0 0 0 255
-121.552551 -9.924099 -85.245186 0.122135 -0.730583 0.671804 0 0 0 255
-123.159630 -9.924099 -87.864754 -0.122135 -0.730583 -0.671804 0 0 0 255
-123.159630 -9.924099 -85.245178 -0.122135 -0.730583 0.671804 0 0 0 255
-124.669785 -9.404655 -87.864754 -0.356029 -0.650349 -0.671010 3 3 3 255
-124.669785 -9.404656 -85.245178 -0.356029 -0.650349 0.671010 0 0 0 255
-125.900871 -8.428423 -87.864754 -0.556108 -0.492080 -0.669729 0 0 0 255
-125.900871 -8.428423 -85.245178 -0.556108 -0.492080 0.669729 0 0 0 255
-126.704407 -7.113148 -87.864754 -0.694266 -0.266427 -0.668538 0 0 0 255
-126.704407 -7.113148 -85.245178 -0.694266 -0.266427 0.668538 0 0 0 255
-122.356094 -5.617476 -120.054863 0.000000 0.000000 -1.000000 0 0 0 255
-126.983482 -5.617476 -120.054863 -0.744102 0.000000 -0.668050 4 4 4 255
-126.704414 -4.121800 -120.054863 -0.694266 0.266427 -0.668538 1 1 1 255
-126.983482 -5.617476 -117.435295 -0.744102 0.000000 0.668050 0 0 0 255
-126.704414 -4.121800 -117.435295 -0.694266 0.266427 0.668538 0 0 0 255
-122.356094 -5.617476 -117.435295 0.000000 0.000000 1.000000 0 0 0 255
-125.900879 -2.806525 -120.054863 -0.556108 0.492080 -0.669729 13 13 13 255
-125.900879 -2.806525 -117.435295 -0.556108 0.492080 0.669729 0 0 0 255
-124.669792 -1.830292 -120.054863 -0.356029 0.650349 -0.671010 0 0 0 255
-124.669792 -1.830292 -117.435295 -0.355998 0.650349 0.671010 0 0 0 255
-123.159637 -1.310850 -120.054863 -0.122135 0.730583 -0.671804 0 0 0 255
-123.159637 -1.310849 -117.435295 -0.122105 0.730583 0.671804 0 0 0 255
-121.552559 -1.310850 -120.054863 0.122135 0.730583 -0.671804 0 0 0 255
-121.552559 -1.310849 -117.435295 0.122105 0.730583 0.671804 0 0 0 255
-120.042404 -1.830292 -120.054863 0.356029 0.650349 -0.671010 0 0 0 255
-120.042404 -1.830292 -117.435295 0.355998 0.650349 0.671010 0 0 0 255
-118.811317 -2.806525 -120.054863 0.556108 0.492080 -0.669729 0 0 0 255
-118.811317 -2.806525 -117.435295 0.556108 0.492080 0.669729 0 0 0 255
-118.007782 -4.121800 -120.054863 0.694266 0.266427 -0.668538 5 5 5 255
-118.007782 -4.121800 -117.435295 0.694266 0.266427 0.668538 0 0 0 255
-117.728714 -5.617476 -120.054863 0.744102 0.000000 -0.668050 0 0 0 255
-117.728714 -5.617476 -117.435295 0.744102 0.000000 0.668050 0 0 0 255
-118.007782 -7.113152 -120.054863 0.694266 -0.266427 -0.668538 0 0 0 255
-118.007782 -7.113152 -117.435295 0.694266 -0.266427 0.668538 0 0 0 255
-118.811317 -8.428428 -120.054863 0.556108 -0.492080 -0.669729 0 0 0 255
-118.811317 -8.428427 -117.435295 0.556108 -0.492080 0.669729 0 0 0 255
-120.042404 -9.404660 -120.054863 0.356029 -0.650349 -0.671010 12 12 12 255
-120.042404 -9.404659 -117.435295 0.356029 -0.650349 0.671010 0 0 0 255
-121.552559 -9.924103 -120.054863 0.122135 -0.730583 -0.671804 0 0 0 255
-121.552559 -9.924102 -117.435295 0.122135 -0.730583 0.671804 0 0 0 255
-123.159637 -9.924103 -120.054863 -0.122135 -0.730583 -0.671804 45 45 45 255
-123.159637 -9.924102 -117.435295 -0.122135 -0.730583 0.671804 0 0 0 255
-124.669792 -9.404660 -120.054863 -0.356029 -0.650349 -0.671010 4 4 4 255
-124.669792 -9.404659 -117.435295 -0.356029 -0.650349 0.671010 0 0 0 255
-125.900879 -8.428428 -120.054863 -0.556108 -0.492080 -0.669729 0 0 0 255
-125.900879 -8.428427 -117.435295 -0.556108 -0.492080 0.669729 0 0 0 255
-126.704414 -7.113152 -120.054863 -0.694266 -0.266427 -0.668538 0 0 0 255
-126.704414 -7.113152 -117.435295 -0.694266 -0.266427 0.668538 0 0 0 255
-149.984619 21.944433 -117.940369 -0.418165 0.908353 0.000000 238 231 255 255
-161.509216 8.388708 -117.811958 -0.538072 0.842891 0.000000 238 231 255 255
-161.509216 8.388711 -87.529930 -0.538072 0.842891 0.000000 238 231 255 255
-149.984619 21.944437 -87.283562 -0.418165 0.908353 0.000000 238 231 255 255
-150.602676 21.217457 -86.276505 -0.538713 0.457991 0.707083 187 3 255 255
-118.576981 20.924919 -119.041237 0.596393 0.379833 -0.707083 187 0 255 255
-119.429649 20.960835 -119.041245 0.000000 0.000000 -1.000000 187 0 255 255
-118.581131 20.925476 -119.041237 0.000000 0.000000 -1.000000 187 0 255 255
-131.928421 21.066828 -119.041237 0.000000 0.000000 -1.000000 187 0 255 255
-133.348206 21.078899 -119.041245 0.000000 0.000000 -1.000000 187 0 255 255
-149.984619 21.220358 -119.041237 0.000000 0.000000 -1.000000 187 0 255 255
-149.984619 21.220358 -119.041237 0.000000 0.000000 -1.000000 238 231 255 255
-133.348206 21.078899 -119.041245 0.000000 0.000000 -1.000000 238 231 255 255
-133.238220 8.229855 -119.041237 0.000000 0.000000 -1.000000 238 231 255 255
-149.984619 8.323914 -119.041237 0.000000 0.000000 -1.000000 238 231 255 255
-131.928421 21.066828 -119.041237 0.000000 0.000000 -1.000000 238 231 255 255
-119.429649 20.960835 -119.041245 0.000000 0.000000 -1.000000 238 231 255 255
-111.542686 8.107997 -119.041245 0.000000 0.000000 -1.000000 238 231 255 255
-131.870499 8.222173 -119.041237 0.000000 0.000000 -1.000000 238 231 255 255
-161.509216 8.388708 -119.041237 -0.337016 0.527909 -0.779534 238 231 255 255
-150.595795 21.225544 -119.041237 -0.538713 0.457991 -0.707083 238 231 255 255
-149.984619 21.944433 -119.041237 -0.326945 0.710196 -0.623432 187 3 255 255
-149.984619 8.359239 -86.276505 0.000000 0.000000 1.000000 238 231 255 255
-133.349518 8.316708 -86.276505 0.000000 0.000000 1.000000 238 231 255 255
-133.306488 21.135004 -86.276505 0.000000 0.000000 1.000000 238 231 255 255
-149.984619 21.213636 -86.276505 0.000000 0.000000 1.000000 238 231 255 255
-161.509216 8.388711 -86.276505 -0.337016 0.527909 0.779534 238 231 255 255
-150.602676 21.217457 -86.276505 -0.538713 0.457991 0.707083 238 231 255 255
-149.984619 21.213636 -86.276505 0.000000 0.000000 1.000000 186 10 255 255
-133.306488 21.135004 -86.276505 0.000000 0.000000 1.000000 187 0 255 255
-132.088196 21.129263 -86.276505 0.000000 0.000000 1.000000 187 0 255 255
-132.088882 21.202377 -86.276505 0.000000 0.000000 1.000000 187 0 255 255
-118.666824 21.065996 -86.276505 0.596393 0.379833 0.707083 187 0 255 255
-119.565407 21.070232 -86.276505 0.000000 0.000000 1.000000 187 0 255 255
-150.602676 21.217457 -86.276505 -0.538713 0.457991 0.707083 187 0 255 255
-149.984619 21.213636 -86.276505 0.000000 0.000000 1.000000 187 0 255 255
-149.984619 21.944437 -86.276505 -0.326914 0.710196 0.623432 187 0 255 255
-111.587158 8.261066 -86.276505 0.000000 0.000000 1.000000 238 231 255 255
-119.565407 21.070232 -86.276505 0.000000 0.000000 1.000000 251 248 255 255
-132.088196 21.129263 -86.276505 0.000000 0.000000 1.000000 238 231 255 255
-131.965942 8.313170 -86.276505 0.000000 0.000000 1.000000 238 231 255 255
-110.509766 8.258312 -86.276505 0.596393 0.379833 0.707083 238 231 255 255
-110.409981 8.101635 -119.041245 0.596393 0.379833 -0.707083 238 231 255 255
-118.576981 20.924919 -119.041237 0.596393 0.379833 -0.707083 242 236 255 255
-118.666824 21.065996 -86.276505 0.596393 0.379833 0.707083 238 231 255 255
3 0 1 2
3 0 2 3
3 1 4 5
3 1 5 2
3 3 2 6
3 3 6 7
3 7 6 8
3 7 8 9
3 9 8 10
3 9 10 11
3 6 2 5
3 12 13 14
3 6 5 12
3 14 15 6
3 12 14 6
3 6 15 16
3 6 16 8
3 8 16 17
3 8 17 10
3 11 10 18
3 11 18 19
3 10 17 20
3 10 20 18
3 21 22 23
3 21 23 24
3 24 23 25
3 24 25 26
3 26 25 1
3 26 1 27
3 22 28 29
3 22 29 23
3 23 29 30
3 23 30 25
3 1 25 30
3 31 32 33
3 1 30 31
3 33 4 1
3 31 33 1
3 34 35 36
3 37 38 39
3 34 36 37
3 40 41 42
3 42 34 37
3 37 39 43
3 44 40 42
3 37 43 44
3 37 44 42
3 43 39 45
3 45 46 47
3 45 47 43
3 47 46 20
3 20 17 16
3 48 47 20
3 20 16 48
3 49 50 51
3 49 51 52
3 50 53 54
3 50 54 51
3 53 55 56
3 53 56 54
3 57 58 59
3 58 60 61
3 58 61 59
3 60 62 61
3 57 59 63
3 59 61 64
3 59 64 63
3 61 62 64
3 57 63 65
3 63 64 66
3 63 66 65
3 64 62 66
3 57 65 67
3 65 66 68
3 65 68 67
3 66 62 68
3 57 67 69
3 67 68 70
3 67 70 69
3 68 62 70
3 57 69 71
3 69 70 72
3 69 72 71
3 70 62 72
3 57 71 73
3 71 72 74
3 71 74 73
3 72 62 74
3 57 73 75
3 73 74 76
3 73 76 75
3 74 62 76
3 57 75 77
3 75 76 78
3 75 78 77
3 76 62 78
3 57 77 79
3 77 78 80
3 77 80 79
3 78 62 80
3 57 79 81
3 79 80 82
3 79 82 81
3 80 62 82
3 57 81 83
3 81 82 84
3 81 84 83
3 82 62 84
3 57 83 85
3 83 84 86
3 83 86 85
3 84 62 86
3 57 85 87
3 85 86 88
3 85 88 87
3 86 62 88
3 57 87 89
3 87 88 90
3 87 90 89
3 88 62 90
3 57 89 91
3 89 90 92
3 89 92 91
3 90 62 92
3 57 91 93
3 91 92 94
3 91 94 93
3 92 62 94
3 57 93 58
3 93 94 60
3 93 60 58
3 94 62 60
3 95 96 97
3 96 98 99
3 96 99 97
3 98 100 99
3 95 97 101
3 97 99 102
3 97 102 101
3 99 100 102
3 95 101 103
3 101 102 104
3 101 104 103
3 102 100 104
3 95 103 105
3 103 104 106
3 103 106 105
3 104 100 106
3 95 105 107
3 105 106 108
3 105 108 107
3 106 100 108
3 95 107 109
3 107 108 110
3 107 110 109
3 108 100 110
3 95 109 111
3 109 110 112
3 109 112 111
3 110 100 112
3 95 111 113
3 111 112 114
3 111 114 113
3 112 100 114
3 95 113 115
3 113 114 116
3 113 116 115
3 114 100 116
3 95 115 117
3 115 116 118
3 115 118 117
3 116 100 118
3 95 117 119
3 117 118 120
3 117 120 119
3 118 100 120
3 95 119 121
3 119 120 122
3 119 122 121
3 120 100 122
3 95 121 123
3 121 122 124
3 121 124 123
3 122 100 124
3 95 123 125
3 123 124 126
3 123 126 125
3 124 100 126
3 95 125 127
3 125 126 128
3 125 128 127
3 126 100 128
3 95 127 129
3 127 128 130
3 127 130 129
3 128 100 130
3 95 129 131
3 129 130 132
3 129 132 131
3 130 100 132
3 95 131 96
3 131 132 98
3 131 98 96
3 132 100 98
3 133 134 135
3 134 136 137
3 134 137 135
3 136 138 137
3 133 135 139
3 135 137 140
3 135 140 139
3 137 138 140
3 133 139 141
3 139 140 142
3 139 142 141
3 140 138 142
3 133 141 143
3 141 142 144
3 141 144 143
3 142 138 144
3 133 143 145
3 143 144 146
3 143 146 145
3 144 138 146
3 133 145 147
3 145 146 148
3 145 148 147
3 146 138 148
3 133 147 149
3 147 148 150
3 147 150 149
3 148 138 150
3 133 149 151
3 149 150 152
3 149 152 151
3 150 138 152
3 133 151 153
3 151 152 154
3 151 154 153
3 152 138 154
3 133 153 155
3 153 154 156
3 153 156 155
3 154 138 156
3 133 155 157
3 155 156 158
3 155 158 157
3 156 138 158
3 133 157 159
3 157 158 160
3 157 160 159
3 158 138 160
3 133 159 161
3 159 160 162
3 159 162 161
3 160 138 162
3 133 161 163
3 161 162 164
3 161 164 163
3 162 138 164
3 133 163 165
3 163 164 166
3 163 166 165
3 164 138 166
3 133 165 167
3 165 166 168
3 165 168 167
3 166 138 168
3 133 167 169
3 167 168 170
3 167 170 169
3 168 138 170
3 133 169 134
3 169 170 136
3 169 136 134
3 170 138 136
3 171 172 173
3 172 174 175
3 172 175 173
3 174 176 175
3 171 173 177
3 173 175 178
3 173 178 177
3 175 176 178
3 171 177 179
3 177 178 180
3 177 180 179
3 178 176 180
3 171 179 181
3 179 180 182
3 179 182 181
3 180 176 182
3 171 181 183
3 181 182 184
3 181 184 183
3 182 176 184
3 171 183 185
3 183 184 186
3 183 186 185
3 184 176 186
3 171 185 187
3 185 186 188
3 185 188 187
3 186 176 188
3 171 187 189
3 187 188 190
3 187 190 189
3 188 176 190
3 171 189 191
3 189 190 192
3 189 192 191
3 190 176 192
3 171 191 193
3 191 192 194
3 191 194 193
3 192 176 194
3 171 193 195
3 193 194 196
3 193 196 195
3 194 176 196
3 171 195 197
3 195 196 198
3 195 198 197
3 196 176 198
3 171 197 199
3 197 198 200
3 197 200 199
3 198 176 200
3 171 199 201
3 199 200 202
3 199 202 201
3 200 176 202
3 171 201 203
3 201 202 204
3 201 204 203
3 202 176 204
3 171 203 205
3 203 204 206
3 203 206 205
3 204 176 206
3 171 205 207
3 205 206 208
3 205 208 207
3 206 176 208
3 171 207 172
3 207 208 174
3 207 174 172
3 208 176 174
3 209 210 211
3 209 211 212
3 40 44 48
3 48 16 213
3 48 213 40
3 214 4 33
3 33 215 216
3 33 216 214
3 36 215 217
3 36 217 37
3 37 217 218
3 37 218 38
3 38 218 219
3 38 219 39
3 220 221 222
3 220 222 223
3 218 217 32
3 218 32 31
3 224 225 226
3 224 226 227
3 223 228 229
3 223 229 220
3 219 45 230
3 231 232 233
3 231 233 234
3 235 231 234
3 235 234 236
3 237 238 41
3 237 41 40
3 42 41 238
3 238 239 240
3 238 240 42
3 42 240 241
3 42 241 34
3 241 240 242
3 240 239 242
3 241 242 12
3 241 12 5
3 13 239 238
3 13 238 14
3 243 244 245
3 246 247 248
3 246 248 249
3 250 251 252
3 250 252 253
3 241 214 35
3 241 35 34
3 35 214 216
3 216 215 36
3 216 36 35
