ply
format ascii 1.0
comment Created by Blender 2.80 (sub 75) - www.blender.org, source file: 'Tunnel.blend'
element vertex 100
property float x
property float y
property float z
property float nx
property float ny
property float nz
property float s
property float t
property uchar red
property uchar green
property uchar blue
property uchar alpha
element face 48
property list uchar uint vertex_indices
end_header
0.296778 0.021204 2.044750 -0.001676 0.435143 0.900360 0.097175 0.000000 255 255 255 255
0.712511 0.023286 2.044518 -0.001676 0.435143 0.900360 0.000000 0.000000 255 255 255 255
0.712014 2.444638 0.874281 -0.001676 0.435143 0.900360 0.000000 1.000000 255 255 255 255
0.712014 2.444638 0.874281 -0.001675 0.435076 0.900392 0.000000 1.000000 255 255 255 255
-3.566166 2.423214 0.876673 -0.001675 0.435076 0.900392 1.000000 1.000000 255 255 255 255
-3.565974 1.485480 1.329792 -0.001675 0.435076 0.900392 1.000000 0.968346 255 255 255 255
-3.565974 1.485480 1.329792 0.003590 -0.786313 -0.617818 1.000000 0.968346 255 255 255 255
-0.500082 1.500833 1.328078 0.003590 -0.786313 -0.617818 0.283365 0.968347 255 255 255 255
-0.200227 1.502335 1.327911 0.003590 -0.786313 -0.617818 0.213276 0.968347 255 255 255 255
-0.200227 1.502335 1.327911 0.716969 0.697105 -0.000000 0.213276 0.968347 255 255 255 255
-0.003338 1.299835 1.426157 0.716969 0.697105 -0.000000 0.167264 0.835533 255 255 255 255
-0.003338 1.299835 1.426157 0.716969 0.697105 -0.000000 0.167264 0.835533 255 255 255 255
0.296577 1.000703 1.571303 -0.001980 0.435184 0.900339 0.097175 0.639312 255 255 255 255
0.296778 0.021204 2.044750 -0.001980 0.435184 0.900339 0.097175 0.000000 255 255 255 255
0.712014 2.444638 0.874281 -0.001980 0.435184 0.900339 0.000000 1.000000 255 255 255 255
-0.200227 1.502335 1.327911 -0.001716 0.435152 0.900355 0.213276 0.968347 255 255 255 255
-0.003338 1.299835 1.426157 -0.001716 0.435152 0.900355 0.167264 0.835533 255 255 255 255
0.296577 1.000703 1.571303 -0.001716 0.435152 0.900355 0.097175 0.639312 255 255 255 255
0.712014 2.444638 0.874281 -0.001675 0.435075 0.900392 0.000000 1.000000 255 255 255 255
-3.565974 1.485480 1.329792 -0.001675 0.435075 0.900392 1.000000 0.968346 255 255 255 255
-0.200227 1.502335 1.327911 -0.001675 0.435075 0.900392 0.213276 0.968347 255 255 255 255
0.712014 2.444638 0.874281 -0.001745 0.435130 0.900366 0.000000 1.000000 255 255 255 255
-0.200227 1.502335 1.327911 -0.001745 0.435130 0.900366 0.213276 0.968347 255 255 255 255
0.296577 1.000703 1.571303 -0.001745 0.435130 0.900366 0.097175 0.639312 255 255 255 255
-6.704957 2.435759 0.875272 0.000000 0.435716 0.900084 0.000000 1.000000 255 255 255 255
-6.704957 0.019508 2.044939 0.000000 0.435716 0.900084 0.000000 0.000000 255 255 255 255
-6.289022 0.019508 2.044939 0.000000 0.435716 0.900084 0.097175 0.000000 255 255 255 255
-6.704957 2.435759 0.875272 0.000304 0.435758 0.900064 0.000000 1.000000 255 255 255 255
-6.289022 0.019508 2.044939 0.000304 0.435758 0.900064 0.097175 0.000000 255 255 255 255
-6.289022 0.996943 1.571722 0.000304 0.435758 0.900064 0.097175 0.639312 255 255 255 255
-2.424692 1.500000 1.328171 -0.000000 0.435649 0.900117 1.000000 0.968346 255 255 255 255
-2.424692 2.435759 0.875272 -0.000000 0.435649 0.900117 1.000000 1.000000 255 255 255 255
-6.704957 2.435759 0.875272 -0.000000 0.435649 0.900117 0.000000 1.000000 255 255 255 255
-5.792078 1.500000 1.328171 -0.000000 -0.707107 -0.707107 0.213276 0.968347 255 255 255 255
-5.492078 1.500000 1.328171 -0.000000 -0.707107 -0.707107 0.283365 0.968347 255 255 255 255
-2.424692 1.500000 1.328171 -0.000000 -0.707107 -0.707107 1.000000 0.968346 255 255 255 255
-5.989022 1.296943 1.426479 -0.717830 0.696218 0.000000 0.167264 0.835533 255 255 255 255
-5.989022 1.296943 1.426480 -0.717830 0.696218 0.000000 0.167264 0.835533 255 255 255 255
-5.792078 1.500000 1.328171 -0.717830 0.696218 0.000000 0.213276 0.968347 255 255 255 255
-5.792078 1.500000 1.328171 -0.000000 0.435649 0.900117 0.213276 0.968347 255 255 255 255
-6.704957 2.435759 0.875272 0.000069 0.435703 0.900090 0.000000 1.000000 255 255 255 255
-6.289022 0.996943 1.571722 0.000069 0.435703 0.900090 0.097175 0.639312 255 255 255 255
-5.989022 1.296943 1.426479 0.000069 0.435703 0.900090 0.167264 0.835533 255 255 255 255
-5.989022 1.296943 1.426479 0.000070 0.435704 0.900090 0.167264 0.835533 255 255 255 255
-5.792078 1.500000 1.328171 0.000070 0.435704 0.900090 0.213276 0.968347 255 255 255 255
-6.704957 2.435759 0.875272 0.000070 0.435704 0.900090 0.000000 1.000000 255 255 255 255
-27.234200 2.435759 0.875272 -0.000000 0.435716 0.900084 0.000000 1.000000 255 255 255 255
-27.234200 0.019508 2.044939 0.000000 0.435716 0.900084 0.000000 0.000000 255 255 255 255
-27.234200 2.435759 0.875272 0.000000 0.707106 0.707108 0.000000 1.000000 255 255 255 255
-6.704957 2.435759 0.875272 0.000000 0.707106 0.707108 0.000000 1.000000 255 255 255 255
-6.704957 2.568401 0.742630 0.000000 0.707106 0.707108 0.000000 1.000000 255 255 255 255
-27.234200 2.568401 0.742630 -0.000000 0.707106 0.707108 0.000000 1.000000 255 255 255 255
-2.424692 2.435759 0.875272 0.000000 0.707106 0.707108 1.000000 1.000000 255 255 255 255
-2.424692 2.568401 0.742630 0.000000 0.707106 0.707108 1.000000 1.000000 255 255 255 255
-3.566166 2.423214 0.876673 -0.003146 0.707102 0.707104 1.000000 1.000000 255 255 255 255
0.712014 2.444638 0.874281 -0.003146 0.707102 0.707104 0.000000 1.000000 255 255 255 255
0.712014 2.577281 0.741639 -0.003146 0.707102 0.707104 0.000000 1.000000 255 255 255 255
-3.566166 2.423214 0.876673 -0.003146 0.707103 0.707104 1.000000 1.000000 255 255 255 255
0.712014 2.577281 0.741639 -0.003146 0.707103 0.707104 0.000000 1.000000 255 255 255 255
-3.566166 2.555857 0.744030 -0.003146 0.707103 0.707104 1.000000 1.000000 255 255 255 255
-27.234200 2.568401 0.742630 0.000000 0.832051 0.554700 0.000000 1.000000 255 255 255 255
-6.704957 2.568401 0.742630 0.000000 0.832051 0.554700 0.000000 1.000000 255 255 255 255
-6.704957 2.701043 0.543667 0.000000 0.832051 0.554700 0.000000 1.000000 255 255 255 255
-27.234200 2.701043 0.543667 -0.000000 0.832051 0.554700 0.000000 1.000000 255 255 255 255
-2.424692 2.568401 0.742630 0.000000 0.832051 0.554700 1.000000 1.000000 255 255 255 255
-2.424692 2.701043 0.543667 0.000000 0.832051 0.554700 1.000000 1.000000 255 255 255 255
-3.566166 2.555857 0.744030 -0.003857 0.832045 0.554695 1.000000 1.000000 255 255 255 255
0.712014 2.577281 0.741639 -0.003857 0.832045 0.554695 0.000000 1.000000 255 255 255 255
0.712014 2.709922 0.542676 -0.003857 0.832045 0.554695 0.000000 1.000000 255 255 255 255
-3.566166 2.688498 0.545067 -0.003857 0.832045 0.554695 1.000000 1.000000 255 255 255 255
-27.234200 2.701043 0.543667 0.000000 0.981780 0.190023 0.000000 1.000000 255 255 255 255
-6.704957 2.701043 0.543667 0.000000 0.981780 0.190023 0.000000 1.000000 255 255 255 255
-6.704957 2.738235 0.351510 0.000000 0.981780 0.190023 0.000000 1.000000 255 255 255 255
-27.234200 2.738235 0.351510 -0.000000 0.981780 0.190023 0.000000 1.000000 255 255 255 255
-2.424692 2.701043 0.543667 0.000000 0.981780 0.190023 1.000000 1.000000 255 255 255 255
-2.424692 2.738235 0.351510 0.000000 0.981780 0.190023 1.000000 1.000000 255 255 255 255
-3.566166 2.688498 0.545067 -0.004810 0.981768 0.190020 1.000000 1.000000 255 255 255 255
0.712014 2.709922 0.542676 -0.004810 0.981768 0.190020 0.000000 1.000000 255 255 255 255
0.712014 2.747114 0.350519 -0.004810 0.981768 0.190020 0.000000 1.000000 255 255 255 255
-3.566166 2.725690 0.352910 -0.004810 0.981768 0.190020 1.000000 1.000000 255 255 255 255
-27.234200 2.738235 0.351510 0.000000 0.000000 0.000000 0.000000 1.000000 255 255 255 255
-6.704957 2.738235 0.351510 0.000000 0.000000 0.000000 0.000000 1.000000 255 255 255 255
-6.704957 2.738235 0.351510 0.000000 0.000000 0.000000 0.000000 1.000000 255 255 255 255
-27.234200 2.738235 0.351510 0.000000 0.000000 0.000000 0.000000 1.000000 255 255 255 255
-2.424692 2.738235 0.351510 0.000000 0.000000 0.000000 1.000000 1.000000 255 255 255 255
-2.424692 2.738235 0.351510 0.000000 0.000000 0.000000 1.000000 1.000000 255 255 255 255
-3.566166 2.725690 0.352910 0.000000 0.000000 0.000000 1.000000 1.000000 255 255 255 255
0.712014 2.747114 0.350519 0.000000 0.000000 0.000000 0.000000 1.000000 255 255 255 255
0.712014 2.747114 0.350519 0.000000 0.000000 0.000000 0.000000 1.000000 255 255 255 255
-3.566166 2.725690 0.352910 0.000000 0.000000 0.000000 1.000000 1.000000 255 255 255 255
-27.234200 2.738235 0.351510 0.000000 1.000000 -0.000000 0.000000 1.000000 255 255 255 255
-6.704957 2.738235 0.351510 0.000000 1.000000 -0.000000 0.000000 1.000000 255 255 255 255
-6.704957 2.738235 -55.406799 0.000000 1.000000 -0.000000 0.000000 1.000000 255 255 255 255
-27.234200 2.738235 -55.406799 0.000000 1.000000 -0.000000 0.000000 1.000000 255 255 255 255
-2.424692 2.738235 0.351510 0.000000 1.000000 -0.000000 1.000000 1.000000 255 255 255 255
-2.424692 2.738235 -55.406799 0.000000 1.000000 -0.000000 1.000000 1.000000 255 255 255 255
-3.566166 2.725690 0.352910 -0.005008 0.999987 -0.000000 1.000000 1.000000 255 255 255 255
0.712014 2.747114 0.350519 -0.005008 0.999987 -0.000000 0.000000 1.000000 255 255 255 255
0.712014 2.747114 -55.407791 -0.005008 0.999987 -0.000000 0.000000 1.000000 255 255 255 255
-3.566166 2.725690 -55.405399 -0.005008 0.999987 -0.000000 1.000000 1.000000 255 255 255 255
3 0 1 2
3 3 4 5
3 6 7 8
3 9 10 11
3 12 13 14
3 15 16 17
3 18 19 20
3 21 22 23
3 24 25 26
3 27 28 29
3 30 31 32
3 33 34 35
3 36 37 38
3 39 30 32
3 40 41 42
3 43 44 45
3 25 24 46
3 25 46 47
3 48 49 50
3 48 50 51
3 49 52 53
3 49 53 50
3 54 55 56
3 57 58 59
3 60 61 62
3 60 62 63
3 61 64 65
3 61 65 62
3 66 67 68
3 66 68 69
3 70 71 72
3 70 72 73
3 71 74 75
3 71 75 72
3 76 77 78
3 76 78 79
3 80 81 82
3 80 82 83
3 81 84 85
3 81 85 82
3 86 87 88
3 86 88 89
3 90 91 92
3 90 92 93
3 91 94 95
3 91 95 92
3 96 97 98
3 96 98 99
