ply
format ascii 1.0
comment Created by Blender 2.82 (sub 7) - www.blender.org, source file: 'trophy.blend'
element vertex 272
property float x
property float y
property float z
property float nx
property float ny
property float nz
property uchar red
property uchar green
property uchar blue
property uchar alpha
element face 520
property list uchar uint vertex_indices
end_header
-0.000801 0.033260 -0.006823 -0.643269 -0.183355 0.743339 255 199 12 255
-0.000801 0.035226 -0.006971 -0.645772 0.281289 0.709769 255 199 23 255
-0.000801 0.033260 -0.008192 -0.784356 0.148564 -0.602222 255 199 12 255
-0.000801 0.035226 -0.008340 -0.796258 -0.256172 -0.547990 255 199 12 255
-0.000801 0.031248 -0.008081 -0.612537 -0.691336 0.383190 255 199 12 255
-0.000801 0.031248 -0.009450 -0.553514 -0.403729 -0.728416 255 199 12 255
-0.000801 0.037615 -0.008902 -0.604938 0.752831 0.259316 255 199 13 255
-0.000801 0.036418 -0.009567 -0.878262 -0.476028 -0.044649 255 199 12 255
-0.000801 0.036925 -0.011879 -0.608356 0.573962 -0.548112 255 199 12 255
-0.000801 0.035549 -0.010881 -0.791925 -0.365093 0.489395 255 199 12 255
-0.000801 0.033084 -0.012957 -0.636647 -0.062380 -0.768578 255 199 12 255
-0.000801 0.033205 -0.011594 -0.798608 0.045900 0.600085 255 199 12 255
-0.000801 0.027240 -0.010238 -0.667318 -0.434919 -0.604541 255 199 18 255
-0.000801 0.027969 -0.009079 -0.747368 0.385113 0.541368 255 200 22 255
-0.000801 0.022693 -0.005444 -0.757775 -0.368053 -0.538774 255 199 12 255
-0.000801 0.023566 -0.004644 -0.672658 0.434462 0.598926 255 199 12 255
-0.000801 0.021317 -0.004884 -0.868435 0.123417 -0.480148 255 199 12 255
-0.000801 0.021351 -0.003530 -0.602527 -0.087924 0.793207 255 199 16 255
-0.000801 0.019707 -0.004878 -0.589099 -0.791498 0.162572 255 199 12 255
-0.000801 0.020338 -0.006093 -0.558733 -0.083621 -0.825098 255 199 12 255
0.000801 0.035226 -0.008340 0.796258 -0.256172 -0.547990 255 199 12 255
0.000801 0.035226 -0.006971 0.645772 0.281289 0.709769 255 199 12 255
0.000801 0.033260 -0.008192 0.784356 0.148564 -0.602222 255 199 12 255
0.000801 0.033260 -0.006823 0.643269 -0.183355 0.743339 255 199 12 255
0.000801 0.031248 -0.008081 0.612537 -0.691336 0.383190 255 199 12 255
0.000801 0.031248 -0.009450 0.553514 -0.403729 -0.728416 255 199 12 255
0.000801 0.036418 -0.009567 0.878262 -0.476028 -0.044649 255 199 12 255
0.000801 0.037615 -0.008902 0.604938 0.752831 0.259316 255 199 12 255
0.000801 0.035549 -0.010881 0.791925 -0.365093 0.489395 255 199 12 255
0.000801 0.036925 -0.011879 0.608356 0.573962 -0.548112 255 199 12 255
0.000801 0.033205 -0.011594 0.798608 0.045900 0.600085 255 199 12 255
0.000801 0.033084 -0.012957 0.636647 -0.062380 -0.768578 255 199 13 255
0.000801 0.027969 -0.009079 0.747368 0.385113 0.541368 255 199 12 255
0.000801 0.027240 -0.010238 0.667318 -0.434919 -0.604541 255 199 12 255
0.000801 0.023566 -0.004644 0.672658 0.434462 0.598926 255 199 12 255
0.000801 0.022693 -0.005444 0.757775 -0.368053 -0.538774 255 199 12 255
0.000801 0.021351 -0.003530 0.602527 -0.087924 0.793207 255 199 12 255
0.000801 0.021317 -0.004884 0.868435 0.123417 -0.480148 255 199 12 255
0.000801 0.019707 -0.004878 0.589099 -0.791498 0.162572 255 199 13 255
0.000801 0.020338 -0.006093 0.558733 -0.083621 -0.825098 255 199 12 255
-0.000801 0.035226 0.008340 -0.796258 -0.256172 0.547990 255 199 12 255
-0.000801 0.035226 0.006971 -0.647664 0.273354 -0.711173 255 199 12 255
-0.000801 0.033260 0.008192 -0.784356 0.148534 0.602222 255 199 12 255
-0.000801 0.033260 0.006823 -0.643269 -0.183355 -0.743339 255 199 12 255
-0.000801 0.031248 0.008081 -0.612537 -0.691336 -0.383190 255 199 12 255
-0.000801 0.031248 0.009450 -0.553514 -0.403729 0.728385 255 199 12 255
-0.000801 0.036418 0.009567 -0.854335 -0.510605 0.096683 255 199 12 255
-0.000801 0.037988 0.009111 -0.600085 0.760063 -0.249336 255 200 23 255
-0.000801 0.035727 0.011215 -0.834895 -0.339457 -0.433210 255 199 12 255
-0.000801 0.037103 0.012214 -0.606037 0.537400 0.586413 255 199 12 255
-0.000801 0.033618 0.011546 -0.776940 0.083285 -0.624012 255 199 12 255
-0.000801 0.033497 0.012909 -0.645924 -0.084689 0.758660 255 199 12 255
-0.000801 0.026998 0.008584 -0.758843 0.387555 -0.523362 255 199 12 255
-0.000801 0.026269 0.009743 -0.658803 -0.452193 0.601184 255 199 12 255
-0.000801 0.023566 0.004644 -0.660024 0.441633 -0.607685 255 199 12 255
-0.000801 0.022693 0.005444 -0.776360 -0.351299 0.523270 255 199 12 255
-0.000801 0.020948 0.003529 -0.606922 -0.112583 -0.786706 255 199 12 255
-0.000801 0.020915 0.004883 -0.857997 0.147984 0.491836 255 199 12 255
-0.000801 0.019305 0.004878 -0.589099 -0.791498 -0.162603 255 199 12 255
-0.000801 0.019935 0.006093 -0.558733 -0.083651 0.825098 255 199 12 255
0.000801 0.033260 0.006823 0.643269 -0.183355 -0.743339 255 199 12 255
0.000801 0.035226 0.006971 0.647664 0.273354 -0.711173 255 199 12 255
0.000801 0.033260 0.008192 0.784356 0.148534 0.602222 255 199 12 255
0.000801 0.035226 0.008340 0.796258 -0.256172 0.547990 255 199 12 255
0.000801 0.031248 0.008081 0.612537 -0.691336 -0.383190 255 199 12 255
0.000801 0.031248 0.009450 0.553514 -0.403729 0.728385 255 199 12 255
0.000801 0.036418 0.009567 0.854335 -0.510605 0.096683 255 199 12 255
0.000801 0.037988 0.009111 0.600085 0.760063 -0.249336 255 199 13 255
0.000801 0.037103 0.012214 0.606037 0.537400 0.586413 255 199 12 255
0.000801 0.035727 0.011215 0.834895 -0.339457 -0.433210 255 199 12 255
0.000801 0.033497 0.012909 0.645924 -0.084689 0.758660 255 199 12 255
0.000801 0.033618 0.011546 0.776940 0.083285 -0.624012 255 199 12 255
0.000801 0.026269 0.009743 0.658803 -0.452193 0.601184 255 199 12 255
0.000801 0.026998 0.008584 0.758843 0.387555 -0.523362 255 199 12 255
0.000801 0.022693 0.005444 0.776360 -0.351299 0.523270 255 199 12 255
0.000801 0.023566 0.004644 0.660024 0.441633 -0.607685 255 199 12 255
0.000801 0.020948 0.003529 0.606922 -0.112583 -0.786706 255 199 12 255
0.000801 0.020915 0.004883 0.857997 0.147984 0.491836 255 199 12 255
0.000801 0.019305 0.004878 0.589099 -0.791498 -0.162603 255 199 12 255
0.000801 0.019935 0.006093 0.558733 -0.083651 0.825098 255 199 12 255
-0.006081 0.002086 0.004418 -0.597797 0.673757 0.434309 176 78 14 255
-0.002323 0.002086 0.007148 -0.191931 0.783685 0.590716 176 78 14 255
-0.006081 0.008412 0.004418 -0.669851 0.560717 0.486679 176 78 14 255
-0.002323 0.008412 0.007148 -0.268075 0.554338 0.787896 176 78 14 255
0.002323 0.002086 0.007148 0.191931 0.783685 0.590716 176 77 14 255
0.002323 0.008651 0.007148 0.234016 0.644154 0.728172 176 78 14 255
0.006081 0.002086 0.004418 0.502487 0.783685 0.365062 176 78 14 255
0.006081 0.008651 0.004418 0.619098 0.643696 0.449782 176 78 14 255
0.007516 0.002086 -0.000000 0.621113 0.783685 0.000000 176 78 14 255
0.007516 0.008651 -0.000000 0.765252 0.643696 0.000000 176 78 14 255
0.006081 0.002086 -0.004418 0.502487 0.783685 -0.365062 176 78 14 255
0.006081 0.008651 -0.004418 0.619098 0.643696 -0.449782 176 78 14 255
0.002323 0.002086 -0.007148 0.191931 0.783685 -0.590716 176 78 14 255
0.002323 0.008651 -0.007148 0.234016 0.644154 -0.728172 176 78 14 255
-0.002323 0.002086 -0.007148 -0.228339 0.673757 -0.702750 176 78 14 255
-0.002323 0.008412 -0.007148 -0.258431 0.548112 -0.795434 176 78 14 255
-0.006081 0.002086 -0.004418 -0.502487 0.783685 -0.365062 176 78 14 255
-0.006081 0.008651 -0.004418 -0.618458 0.644612 -0.449355 176 78 14 255
-0.002573 0.002086 0.007918 -0.238044 0.644002 0.727012 176 78 14 255
-0.006735 0.001848 0.004893 -0.682669 0.536546 0.495987 176 78 14 255
0.002573 0.002086 0.007918 0.236457 0.643696 0.727805 176 78 14 255
0.006735 0.002086 0.004893 0.619098 0.643696 0.449782 176 78 14 255
0.008325 0.002086 -0.000000 0.765252 0.643696 0.000000 176 78 14 255
0.006735 0.002086 -0.004893 0.619098 0.643696 -0.449782 176 78 14 255
0.002573 0.002086 -0.007918 0.234748 0.644002 -0.728080 176 78 14 255
-0.002573 0.001848 -0.007918 -0.260750 0.536576 -0.802545 176 78 14 255
-0.006735 0.002086 -0.004893 -0.617878 0.644002 -0.451033 176 78 14 255
-0.007516 0.002086 -0.000000 -0.621113 0.783685 0.000000 176 78 14 255
-0.008325 0.002086 -0.000000 -0.764977 0.644002 0.001709 176 78 14 255
-0.002573 0.001133 0.007918 -0.212256 0.726768 0.653249 176 78 14 255
-0.006735 0.001133 0.004893 -0.502487 0.783685 0.365062 176 78 14 255
0.002573 0.001133 0.007918 0.191931 0.783685 0.590716 176 78 14 255
0.006735 0.001133 0.004893 0.555681 0.726768 0.403729 176 78 14 255
0.008325 0.001133 -0.000000 0.621113 0.783685 0.000000 176 78 14 255
0.006735 0.001133 -0.004893 0.502487 0.783685 -0.365062 176 78 14 255
0.002573 0.001133 -0.007918 0.212256 0.726768 -0.653249 176 78 14 255
-0.002573 0.001133 -0.007918 -0.191931 0.783685 -0.590716 176 78 14 255
-0.006735 0.001133 -0.004893 -0.555681 0.726768 -0.403729 176 78 14 255
-0.008325 0.001133 -0.000000 -0.621113 0.783685 0.000000 176 78 14 255
-0.007911 0.001133 0.005748 -0.617450 0.644154 0.451399 176 78 14 255
-0.003022 0.000894 0.009300 -0.251534 0.580828 0.774163 176 78 14 255
0.003022 0.001133 0.009300 0.236244 0.644581 0.727073 176 78 14 255
0.007911 0.000894 0.005748 0.658559 0.580828 0.478469 176 78 14 255
0.009779 0.001133 -0.000000 0.764885 0.644154 0.002258 176 78 14 255
0.007911 0.001133 -0.005748 0.617450 0.644154 -0.451399 176 78 14 255
0.003022 0.000894 -0.009300 0.251534 0.580828 -0.774163 176 78 14 255
-0.003022 0.001133 -0.009300 -0.236244 0.644581 -0.727073 176 78 14 255
-0.007911 0.000894 -0.005748 -0.658559 0.580828 -0.478469 176 78 14 255
-0.009779 0.001133 -0.000000 -0.764885 0.644154 -0.002258 176 78 14 255
-0.007911 0.000000 0.005748 -0.619098 -0.643696 0.449782 176 78 14 255
-0.003022 0.000000 0.009300 -0.236457 -0.643696 0.727805 176 78 14 255
0.003022 0.000000 0.009300 0.236457 -0.643696 0.727805 176 78 14 255
0.007911 0.000000 0.005748 0.619098 -0.643696 0.449782 176 78 14 255
0.009779 0.000000 -0.000000 0.765252 -0.643696 0.000000 176 78 14 255
0.007911 -0.000000 -0.005748 0.619098 -0.643696 -0.449782 176 78 14 255
0.003022 -0.000000 -0.009300 0.236457 -0.643696 -0.727805 177 80 22 255
-0.003022 -0.000000 -0.009300 -0.236457 -0.643696 -0.727805 176 78 14 255
-0.007911 -0.000000 -0.005748 -0.619098 -0.643696 -0.449782 176 78 14 255
-0.009779 0.000000 -0.000000 -0.765252 -0.643696 0.000000 176 78 14 255
0.000000 0.000000 0.000000 0.000000 -1.000000 0.000000 176 78 14 255
-0.005325 0.008651 0.003869 -0.593738 0.679220 0.431379 176 78 14 255
-0.002034 0.008651 0.006260 -0.243416 0.685263 0.686361 176 78 14 255
0.002034 0.008651 0.006260 0.191931 0.783685 0.590716 176 78 14 255
0.005325 0.008651 0.003869 0.502487 0.783685 0.365062 176 78 14 255
0.006582 0.008651 -0.000000 0.621113 0.783685 0.000000 176 78 14 255
0.005325 0.008651 -0.003869 0.502487 0.783685 -0.365062 176 78 14 255
0.002034 0.008651 -0.006260 0.191931 0.783685 -0.590716 176 78 14 255
-0.002034 0.008651 -0.006260 -0.223182 0.691580 -0.686911 176 78 14 255
-0.005325 0.008651 -0.003869 -0.502487 0.783685 -0.365062 176 78 14 255
-0.007516 0.008412 -0.000000 -0.832179 0.554338 0.011475 176 78 14 255
-0.006582 0.008651 -0.000000 -0.727989 0.685263 0.019410 176 78 14 255
-0.005325 0.009662 0.003869 -0.619098 0.643696 0.449782 176 78 14 255
-0.002034 0.009662 0.006260 -0.236457 0.643696 0.727805 176 78 14 255
0.002034 0.009662 0.006260 0.236457 0.643696 0.727805 176 78 14 255
0.005325 0.009662 0.003869 0.619098 0.643696 0.449782 177 79 20 255
0.006582 0.009662 -0.000000 0.765252 0.643696 0.000000 176 78 14 255
0.005325 0.009662 -0.003869 0.619098 0.643696 -0.449782 176 78 14 255
0.002034 0.009662 -0.006260 0.236457 0.643696 -0.727805 176 78 14 255
-0.002034 0.009662 -0.006260 -0.236457 0.643696 -0.727805 176 78 14 255
-0.005325 0.009662 -0.003869 -0.619098 0.643696 -0.449782 176 78 14 255
-0.006582 0.009662 -0.000000 -0.765252 0.643696 0.000000 176 78 14 255
0.000000 0.009662 -0.000000 0.000000 1.000000 0.000000 176 78 14 255
-0.008011 0.003079 -0.000000 -0.767907 -0.640522 0.000000 255 199 12 255
-0.008011 0.007492 -0.000000 -0.771722 0.635853 0.009552 255 199 12 255
-0.006576 0.003079 -0.004160 -0.465712 -0.596851 -0.653340 255 199 13 255
-0.006576 0.007658 -0.004160 -0.465438 0.610645 -0.640645 255 199 12 255
-0.006576 0.003079 0.004160 -0.465712 -0.596851 0.653340 255 199 12 255
-0.006576 0.007492 0.004160 -0.465712 0.596851 0.653340 255 199 12 255
-0.005866 0.003079 -0.004160 0.000000 -0.619160 -0.785241 255 236 203 255
-0.007302 0.003079 -0.000000 0.000000 -1.000000 0.000000 255 253 249 255
-0.005866 0.007658 -0.004160 0.000000 0.631123 -0.775658 255 199 12 255
-0.007302 0.007492 -0.000000 0.000000 0.999786 0.019990 255 199 12 255
-0.005866 0.003079 0.004160 0.000000 -0.619160 0.785241 255 199 12 255
-0.005866 0.007492 0.004160 0.000000 0.619160 0.785241 255 199 12 255
-0.001775 0.011776 0.001775 -0.481948 0.731712 0.481948 255 199 12 255
0.000000 0.011776 0.002510 0.000000 0.731712 0.681570 255 199 12 255
-0.001128 0.014775 0.001128 -0.698752 0.153050 0.698752 255 199 12 255
0.000000 0.014775 0.001595 0.000000 0.153050 0.988189 255 199 12 255
0.001775 0.011776 0.001775 0.481948 0.731712 0.481948 255 199 12 255
0.001128 0.014775 0.001128 0.698752 0.153050 0.698752 255 199 12 255
0.002510 0.011776 -0.000000 0.681570 0.731712 0.000000 255 199 12 255
0.001595 0.014775 -0.000000 0.988189 0.153050 0.000000 255 199 12 255
0.001775 0.011776 -0.001775 0.481948 0.731712 -0.481948 255 199 12 255
0.001128 0.014775 -0.001128 0.698752 0.153050 -0.698752 255 199 12 255
0.000000 0.011776 -0.002510 0.000000 0.731712 -0.681570 255 199 12 255
0.000000 0.014775 -0.001595 0.000000 0.153050 -0.988189 255 199 12 255
-0.001775 0.011776 -0.001775 -0.481948 0.731712 -0.481948 255 199 12 255
-0.001128 0.014775 -0.001128 -0.698752 0.153050 -0.698752 255 199 12 255
-0.002510 0.011776 -0.000000 -0.681570 0.731712 0.000000 255 199 12 255
-0.001595 0.014775 -0.000000 -0.988189 0.153050 0.000000 255 199 12 255
0.000000 0.009662 0.005522 0.000000 -0.630238 0.776360 255 199 12 255
-0.003905 0.009662 0.003905 -0.548967 -0.630238 0.548967 255 199 13 255
0.000000 0.009662 -0.000000 0.000000 -1.000000 0.000000 255 255 255 255
0.003905 0.009662 0.003905 0.548967 -0.630238 0.548967 255 199 12 255
0.005522 0.009662 -0.000000 0.776360 -0.630238 0.000000 255 199 16 255
0.003905 0.009662 -0.003905 0.548967 -0.630238 -0.548967 255 199 12 255
0.000000 0.009662 -0.005522 0.000000 -0.630238 -0.776360 255 199 12 255
-0.003905 0.009662 -0.003905 -0.548967 -0.630238 -0.548967 255 199 12 255
-0.005522 0.009662 -0.000000 -0.776360 -0.630238 0.000000 255 199 13 255
-0.001759 0.026254 0.001759 0.603961 0.520035 -0.603961 255 199 12 255
0.000000 0.026254 0.002487 0.000000 0.520035 -0.854122 255 199 12 255
0.000000 0.023314 -0.000000 0.000000 1.000000 0.000000 255 199 12 255
0.001759 0.026254 0.001759 -0.603961 0.520035 -0.603961 255 199 12 255
0.002487 0.026254 -0.000000 -0.854122 0.520035 0.000000 255 199 12 255
0.001759 0.026254 -0.001759 -0.603961 0.520035 0.603961 255 199 12 255
0.000000 0.026254 -0.002487 0.000000 0.520035 0.854122 255 199 12 255
-0.001759 0.026254 -0.001759 0.603961 0.520035 0.603961 255 199 12 255
-0.002487 0.026254 -0.000000 0.854122 0.520035 0.000000 255 199 12 255
0.000000 0.010551 0.005522 0.000000 0.502884 0.864345 255 199 12 255
-0.003905 0.010551 0.003905 -0.611164 0.502884 0.611164 255 199 12 255
0.003905 0.010551 0.003905 0.611164 0.502884 0.611164 255 199 12 255
0.005522 0.010551 -0.000000 0.864345 0.502884 0.000000 255 199 13 255
0.003905 0.010551 -0.003905 0.611164 0.502884 -0.611164 255 199 12 255
0.000000 0.010551 -0.005522 0.000000 0.502884 -0.864345 255 199 12 255
-0.003905 0.010551 -0.003905 -0.611164 0.502884 -0.611164 255 199 12 255
-0.005522 0.010551 -0.000000 -0.864345 0.502884 0.000000 255 199 12 255
-0.001128 0.020242 0.001128 -0.640217 -0.425581 0.639515 255 199 12 255
0.000000 0.020242 0.001595 0.001343 -0.437330 0.899258 255 199 12 255
0.001128 0.020242 0.001128 0.626240 -0.445235 0.639943 255 199 12 255
0.001595 0.020242 -0.000000 0.895932 -0.444075 -0.007080 255 199 12 255
0.001128 0.020242 -0.001128 0.635517 -0.438368 -0.635517 255 199 12 255
0.000000 0.020242 -0.001595 0.000000 -0.438368 -0.898770 255 199 12 255
-0.001128 0.020242 -0.001128 -0.635517 -0.438368 -0.635517 255 199 12 255
-0.001595 0.020242 -0.000000 -0.898770 -0.438368 0.000000 255 199 12 255
0.000000 0.023759 0.005352 -0.000610 -0.531602 0.846980 255 199 12 255
-0.003679 0.024243 0.003952 -0.618091 -0.477950 0.624104 255 200 12 255
0.003923 0.023522 0.003428 0.627400 -0.524522 0.575518 255 199 12 255
0.005352 0.023759 -0.000000 0.864895 -0.501755 -0.012757 255 199 12 255
0.003785 0.023759 -0.003785 0.610279 -0.501938 -0.612842 255 199 12 255
0.000000 0.023759 -0.005352 0.008820 -0.512040 -0.858882 255 199 12 255
-0.003785 0.023759 -0.003785 -0.605152 -0.525224 -0.598224 255 199 12 255
-0.005352 0.023759 -0.000000 -0.858882 -0.510910 0.035371 255 199 12 255
0.000323 0.029029 0.007411 0.041139 -0.182592 0.982299 255 199 12 255
-0.005027 0.029371 0.005027 -0.711478 -0.181371 0.678854 255 199 12 255
0.005027 0.029371 0.005027 0.711295 -0.173833 0.681021 255 199 12 255
0.007109 0.029371 -0.000000 0.983886 -0.178594 0.007630 255 199 12 255
0.005320 0.029694 -0.004732 0.724815 -0.170598 -0.667440 255 199 12 255
0.000000 0.029371 -0.007109 0.029878 -0.173284 -0.984405 255 199 12 255
-0.004905 0.028811 -0.005227 -0.669424 -0.199072 -0.715690 255 199 12 255
-0.007098 0.029185 -0.000376 -0.981872 -0.187994 -0.023041 255 199 12 255
0.000000 0.034884 0.007448 -0.000244 0.100681 0.994903 255 199 12 255
-0.005266 0.034884 0.005266 -0.704489 0.085910 0.704489 255 199 12 255
0.005266 0.034884 0.005266 0.703360 0.102542 0.703360 255 199 12 255
0.007448 0.034884 -0.000000 0.995849 0.090548 0.004791 255 199 12 255
0.005266 0.034884 -0.005266 0.700522 0.087985 -0.708152 255 199 13 255
0.000000 0.034884 -0.007448 0.005585 0.091494 -0.995788 255 199 12 255
-0.005275 0.034522 -0.005410 -0.692740 0.099673 -0.714225 255 205 11 255
-0.007448 0.034884 -0.000000 -0.995727 0.091922 0.006287 255 199 12 255
-0.005043 0.036178 0.005043 -0.492294 0.717826 0.492294 255 199 12 255
0.000000 0.036178 0.007132 0.009247 0.720603 0.693258 255 199 12 255
0.005043 0.036004 0.005043 0.489151 0.722892 0.487960 255 199 12 255
0.007132 0.036178 -0.000000 0.692740 0.721091 0.010132 255 199 12 255
0.005043 0.036178 -0.005043 0.492294 0.717826 -0.492294 255 199 13 255
0.000000 0.036178 -0.007132 -0.009247 0.720603 -0.693258 255 199 12 255
-0.005043 0.036004 -0.005043 -0.494369 0.723624 -0.481552 255 199 12 255
-0.007132 0.036178 -0.000000 -0.692740 0.721091 -0.010132 255 199 12 255
-0.004336 0.036178 0.004336 0.358013 0.862331 -0.358013 255 203 14 255
0.000000 0.036178 0.006132 0.017212 0.863735 -0.503586 255 199 12 255
0.004336 0.036004 0.004336 -0.359386 0.859828 -0.362590 255 199 12 255
0.006132 0.036178 -0.000000 -0.502884 0.864101 0.019501 255 199 12 255
0.004336 0.036178 -0.004336 -0.358013 0.862331 0.358013 255 199 12 255
0.000000 0.036178 -0.006132 -0.017212 0.863735 0.503586 255 199 12 255
-0.004336 0.036004 -0.004336 0.359386 0.859828 0.362590 255 199 12 255
-0.006132 0.036178 -0.000000 0.502884 0.864101 -0.019501 255 199 12 255
-0.003676 0.032225 0.003676 0.670827 0.316111 -0.670827 255 251 244 255
0.000000 0.032225 0.005198 0.001282 0.317209 -0.948332 255 201 39 255
0.003676 0.032225 0.003676 -0.669607 0.321238 -0.669607 255 200 18 255
0.005198 0.032225 -0.000000 -0.948332 0.317209 0.001282 255 199 12 255
0.003676 0.032225 -0.003676 -0.670827 0.316111 0.670827 255 199 12 255
0.000000 0.032225 -0.005198 -0.001282 0.317209 0.948332 255 199 13 255
-0.003676 0.032225 -0.003676 0.669607 0.321238 0.669607 255 201 49 255
-0.005198 0.032225 -0.000000 0.948332 0.317209 -0.001282 255 202 52 255
3 0 1 2
3 2 1 3
3 0 2 4
3 4 2 5
3 1 6 3
3 3 6 7
3 6 8 7
3 7 8 9
3 8 10 9
3 9 10 11
3 10 12 11
3 11 12 13
3 12 14 13
3 13 14 15
3 14 16 15
3 15 16 17
3 17 16 18
3 18 16 19
3 20 21 22
3 22 21 23
3 23 24 22
3 22 24 25
3 26 27 20
3 20 27 21
3 28 29 26
3 26 29 27
3 30 31 28
3 28 31 29
3 32 33 30
3 30 33 31
3 34 35 32
3 32 35 33
3 36 37 34
3 34 37 35
3 36 38 37
3 37 38 39
3 23 21 0
3 0 21 1
3 20 22 3
3 3 22 2
3 22 25 2
3 2 25 5
3 25 24 5
3 5 24 4
3 24 23 4
3 4 23 0
3 21 27 1
3 1 27 6
3 26 20 7
3 7 20 3
3 27 29 6
3 6 29 8
3 28 26 9
3 9 26 7
3 29 31 8
3 8 31 10
3 30 28 11
3 11 28 9
3 31 33 10
3 10 33 12
3 32 30 13
3 13 30 11
3 33 35 12
3 12 35 14
3 34 32 15
3 15 32 13
3 35 37 14
3 14 37 16
3 36 34 17
3 17 34 15
3 37 39 16
3 16 39 19
3 39 38 19
3 19 38 18
3 38 36 18
3 18 36 17
3 40 41 42
3 42 41 43
3 43 44 42
3 42 44 45
3 40 46 41
3 41 46 47
3 48 49 46
3 46 49 47
3 50 51 48
3 48 51 49
3 52 53 50
3 50 53 51
3 54 55 52
3 52 55 53
3 54 56 55
3 55 56 57
3 56 58 57
3 57 58 59
3 60 61 62
3 62 61 63
3 60 62 64
3 64 62 65
3 63 61 66
3 66 61 67
3 67 68 66
3 66 68 69
3 68 70 69
3 69 70 71
3 70 72 71
3 71 72 73
3 72 74 73
3 73 74 75
3 75 74 76
3 76 74 77
3 76 77 78
3 78 77 79
3 60 43 61
3 61 43 41
3 63 40 62
3 62 40 42
3 62 42 65
3 65 42 45
3 65 45 64
3 64 45 44
3 64 44 60
3 60 44 43
3 61 41 67
3 67 41 47
3 66 46 63
3 63 46 40
3 67 47 68
3 68 47 49
3 69 48 66
3 66 48 46
3 68 49 70
3 70 49 51
3 71 50 69
3 69 50 48
3 70 51 72
3 72 51 53
3 73 52 71
3 71 52 50
3 72 53 74
3 74 53 55
3 75 54 73
3 73 54 52
3 74 55 77
3 77 55 57
3 76 56 75
3 75 56 54
3 77 57 79
3 79 57 59
3 79 59 78
3 78 59 58
3 78 58 76
3 76 58 56
3 80 81 82
3 82 81 83
3 81 84 83
3 83 84 85
3 84 86 85
3 85 86 87
3 86 88 87
3 87 88 89
3 88 90 89
3 89 90 91
3 90 92 91
3 91 92 93
3 94 95 92
3 92 95 93
3 94 96 95
3 95 96 97
3 81 80 98
3 98 80 99
3 84 81 100
3 100 81 98
3 86 84 101
3 101 84 100
3 88 86 102
3 102 86 101
3 90 88 103
3 103 88 102
3 92 90 104
3 104 90 103
3 92 104 94
3 94 104 105
3 96 94 106
3 106 94 105
3 107 96 108
3 108 96 106
3 107 108 80
3 80 108 99
3 98 99 109
3 109 99 110
3 100 98 111
3 111 98 109
3 101 100 112
3 112 100 111
3 102 101 113
3 113 101 112
3 103 102 114
3 114 102 113
3 104 103 115
3 115 103 114
3 104 115 105
3 105 115 116
3 106 105 117
3 117 105 116
3 108 106 118
3 118 106 117
3 108 118 99
3 99 118 110
3 110 119 109
3 109 119 120
3 111 109 121
3 121 109 120
3 111 121 112
3 112 121 122
3 113 112 123
3 123 112 122
3 114 113 124
3 124 113 123
3 114 124 115
3 115 124 125
3 116 115 126
3 126 115 125
3 116 126 117
3 117 126 127
3 118 117 128
3 128 117 127
3 110 118 119
3 119 118 128
3 119 129 120
3 120 129 130
3 121 120 131
3 131 120 130
3 121 131 122
3 122 131 132
3 123 122 133
3 133 122 132
3 124 123 134
3 134 123 133
3 124 134 125
3 125 134 135
3 126 125 136
3 136 125 135
3 126 136 127
3 127 136 137
3 128 127 138
3 138 127 137
3 119 128 129
3 129 128 138
3 130 129 139
3 131 130 139
3 132 131 139
3 133 132 139
3 134 133 139
3 135 134 139
3 136 135 139
3 137 136 139
3 138 137 139
3 129 138 139
3 82 83 140
3 140 83 141
3 83 85 141
3 141 85 142
3 85 87 142
3 142 87 143
3 87 89 143
3 143 89 144
3 89 91 144
3 144 91 145
3 91 93 145
3 145 93 146
3 95 147 93
3 93 147 146
3 95 97 147
3 147 97 148
3 149 150 97
3 97 150 148
3 149 82 150
3 150 82 140
3 140 141 151
3 151 141 152
3 141 142 152
3 152 142 153
3 142 143 153
3 153 143 154
3 143 144 154
3 154 144 155
3 144 145 155
3 155 145 156
3 145 146 156
3 156 146 157
3 146 147 157
3 157 147 158
3 147 148 158
3 158 148 159
3 148 150 159
3 159 150 160
3 150 140 160
3 160 140 151
3 151 152 161
3 152 153 161
3 153 154 161
3 154 155 161
3 155 156 161
3 156 157 161
3 157 158 161
3 158 159 161
3 159 160 161
3 160 151 161
3 97 96 149
3 149 96 107
3 149 107 82
3 82 107 80
3 162 163 164
3 164 163 165
3 162 166 163
3 163 166 167
3 168 169 164
3 164 169 162
3 170 165 171
3 171 165 163
3 170 168 165
3 165 168 164
3 172 166 169
3 169 166 162
3 172 173 166
3 166 173 167
3 173 171 167
3 167 171 163
3 174 175 176
3 176 175 177
3 175 178 177
3 177 178 179
3 178 180 179
3 179 180 181
3 180 182 181
3 181 182 183
3 182 184 183
3 183 184 185
3 184 186 185
3 185 186 187
3 186 188 187
3 187 188 189
3 188 174 189
3 189 174 176
3 190 191 192
3 193 190 192
3 194 193 192
3 195 194 192
3 196 195 192
3 197 196 192
3 198 197 192
3 191 198 192
3 199 200 201
3 200 202 201
3 202 203 201
3 203 204 201
3 204 205 201
3 205 206 201
3 206 207 201
3 207 199 201
3 175 174 208
3 208 174 209
3 178 175 210
3 210 175 208
3 180 178 211
3 211 178 210
3 182 180 212
3 212 180 211
3 184 182 213
3 213 182 212
3 186 184 214
3 214 184 213
3 188 186 215
3 215 186 214
3 174 188 209
3 209 188 215
3 208 209 190
3 190 209 191
3 210 208 193
3 193 208 190
3 211 210 194
3 194 210 193
3 212 211 195
3 195 211 194
3 213 212 196
3 196 212 195
3 214 213 197
3 197 213 196
3 215 214 198
3 198 214 197
3 209 215 191
3 191 215 198
3 176 177 216
3 216 177 217
3 177 179 217
3 217 179 218
3 179 181 218
3 218 181 219
3 181 183 219
3 219 183 220
3 183 185 220
3 220 185 221
3 185 187 221
3 221 187 222
3 187 189 222
3 222 189 223
3 189 176 223
3 223 176 216
3 217 224 216
3 216 224 225
3 218 226 217
3 217 226 224
3 218 219 226
3 226 219 227
3 219 220 227
3 227 220 228
3 220 221 228
3 228 221 229
3 221 222 229
3 229 222 230
3 222 223 230
3 230 223 231
3 223 216 231
3 231 216 225
3 224 232 225
3 225 232 233
3 226 234 224
3 224 234 232
3 227 235 226
3 226 235 234
3 227 228 235
3 235 228 236
3 229 237 228
3 228 237 236
3 230 238 229
3 229 238 237
3 231 239 230
3 230 239 238
3 231 225 239
3 239 225 233
3 232 240 233
3 233 240 241
3 232 234 240
3 240 234 242
3 234 235 242
3 242 235 243
3 235 236 243
3 243 236 244
3 236 237 244
3 244 237 245
3 238 246 237
3 237 246 245
3 238 239 246
3 246 239 247
3 239 233 247
3 247 233 241
3 241 240 248
3 248 240 249
3 242 250 240
3 240 250 249
3 242 243 250
3 250 243 251
3 243 244 251
3 251 244 252
3 244 245 252
3 252 245 253
3 246 254 245
3 245 254 253
3 246 247 254
3 254 247 255
3 247 241 255
3 255 241 248
3 248 249 256
3 256 249 257
3 249 250 257
3 257 250 258
3 250 251 258
3 258 251 259
3 251 252 259
3 259 252 260
3 252 253 260
3 260 253 261
3 253 254 261
3 261 254 262
3 254 255 262
3 262 255 263
3 255 248 263
3 263 248 256
3 256 257 264
3 264 257 265
3 257 258 265
3 265 258 266
3 259 267 258
3 258 267 266
3 259 260 267
3 267 260 268
3 260 261 268
3 268 261 269
3 261 262 269
3 269 262 270
3 263 271 262
3 262 271 270
3 263 256 271
3 271 256 264
3 264 265 199
3 199 265 200
3 265 266 200
3 200 266 202
3 266 267 202
3 202 267 203
3 267 268 203
3 203 268 204
3 268 269 204
3 204 269 205
3 269 270 205
3 205 270 206
3 270 271 206
3 206 271 207
3 271 264 207
3 207 264 199
