ply
format ascii 1.0
comment Created by Blender 2.80 (sub 75) - www.blender.org, source file: 'Tunnel.blend'
element vertex 106
property float x
property float y
property float z
property float nx
property float ny
property float nz
property float s
property float t
element face 68
property list uchar uint vertex_indices
end_header
0.000000 -2.500000 0.000000 1.000000 0.000000 0.000000 0.375000 0.000000
0.000000 2.500000 0.000000 1.000000 0.000000 0.000000 0.375000 0.250000
0.000000 2.500000 1.000000 1.000000 0.000000 0.000000 0.625000 0.250000
0.000000 -2.500000 1.000000 1.000000 -0.000000 0.000000 0.625000 0.000000
0.000000 2.500000 0.000000 -0.000000 -1.000000 -0.000000 0.375000 0.250000
0.300000 2.500000 0.000000 -0.000000 -1.000000 -0.000000 0.375000 0.500000
0.300000 2.500000 1.000000 -0.000000 -1.000000 -0.000000 0.625000 0.500000
0.000000 2.500000 1.000000 0.000000 -1.000000 -0.000000 0.625000 0.250000
0.300000 2.500000 0.000000 -1.000000 0.000000 0.000000 0.375000 0.500000
0.300000 -2.500000 0.000000 -1.000000 0.000000 0.000000 0.375000 0.750000
0.300000 -2.500000 1.000000 -1.000000 0.000000 0.000000 0.625000 0.750000
0.300000 2.500000 1.000000 -1.000000 -0.000000 -0.000000 0.625000 0.500000
0.300000 -2.500000 0.000000 -0.000000 1.000000 0.000000 0.375000 0.750000
0.000000 -2.500000 0.000000 -0.000000 1.000000 0.000000 0.375000 1.000000
0.000000 -2.500000 1.000000 -0.000000 1.000000 0.000000 0.625000 1.000000
0.300000 -2.500000 1.000000 0.000000 1.000000 0.000000 0.625000 0.750000
0.000000 2.500000 0.000000 0.000000 -0.000000 1.000000 0.125000 0.500000
0.000000 -2.500000 0.000000 0.000000 -0.000000 1.000000 0.125000 0.750000
0.300000 -2.500000 0.000000 0.000000 -0.000000 1.000000 0.375000 0.750000
0.300000 2.500000 0.000000 0.000000 0.000000 1.000000 0.375000 0.500000
0.003057 2.500000 1.296943 0.000000 -1.000000 0.000000 0.625000 0.500000
-0.200000 2.500000 1.500000 0.000000 -1.000000 0.000000 0.625000 0.500000
-0.500000 2.500000 1.500000 0.000000 -1.000000 0.000000 0.625000 0.250000
-0.296943 2.500000 1.296943 0.000000 -1.000000 0.000000 0.625000 0.250000
-0.200000 2.500000 1.500000 0.000000 0.000000 -1.000000 0.625000 0.500000
-0.200000 -2.500000 1.500000 0.000000 0.000000 -1.000000 0.625000 0.750000
-0.500000 -2.500000 1.500000 0.000000 0.000000 -1.000000 0.875000 0.750000
-0.500000 2.500000 1.500000 0.000000 0.000000 -1.000000 0.875000 0.500000
0.003057 -2.500000 1.296943 -0.707107 -0.000000 -0.707107 0.625000 0.750000
-0.200000 -2.500000 1.500000 -0.707107 -0.000000 -0.707107 0.625000 0.750000
-0.200000 2.500000 1.500000 -0.707107 -0.000000 -0.707107 0.625000 0.500000
0.003057 2.500000 1.296943 -0.707107 0.000000 -0.707107 0.625000 0.500000
-5.500000 -2.500000 1.500000 0.000000 0.000000 -1.000000 0.875000 0.750000
-5.500000 2.500000 1.500000 0.000000 0.000000 -1.000000 0.875000 0.500000
-0.296943 -2.500000 1.296943 0.000000 1.000000 0.000000 0.625000 1.000000
-0.500000 -2.500000 1.500000 0.000000 1.000000 0.000000 0.625000 1.000000
-0.200000 -2.500000 1.500000 0.000000 1.000000 0.000000 0.625000 0.750000
0.003057 -2.500000 1.296943 0.000000 1.000000 0.000000 0.625000 0.750000
0.000000 2.500000 1.000000 0.707107 -0.000000 0.707107 0.625000 0.250000
-0.296943 2.500000 1.296943 0.707107 -0.000000 0.707107 0.625000 0.250000
-0.296943 -2.500000 1.296943 0.707107 -0.000000 0.707107 0.625000 0.000000
0.000000 -2.500000 1.000000 0.707107 0.000000 0.707107 0.625000 0.000000
0.300000 -2.500000 1.000000 -0.707107 -0.000000 -0.707107 0.625000 0.750000
0.300000 2.500000 1.000000 -0.707107 0.000000 -0.707107 0.625000 0.500000
-5.696943 2.500000 1.296943 0.000000 0.000000 0.000000 0.625000 0.250000
-5.696943 2.500000 1.296943 0.000000 0.000000 0.000000 0.625000 0.250000
-5.696943 -2.500000 1.296943 0.000000 0.000000 0.000000 0.625000 0.000000
-5.696943 -2.500000 1.296943 0.000000 0.000000 0.000000 0.625000 0.000000
-5.696943 -2.500000 1.296943 -0.000000 1.000000 0.000000 0.625000 1.000000
-5.500000 -2.500000 1.500000 -0.000000 1.000000 0.000000 0.625000 1.000000
-5.500000 2.500000 1.500000 0.000000 -1.000000 0.000000 0.625000 0.250000
-5.696943 2.500000 1.296943 0.000000 -1.000000 0.000000 0.625000 0.250000
-0.296943 2.500000 1.296943 0.000000 0.000000 1.000000 0.625000 0.250000
-5.696943 2.500000 1.296943 0.000000 0.000000 1.000000 0.625000 0.250000
-5.696943 -2.500000 1.296943 0.000000 0.000000 1.000000 0.625000 0.000000
-0.296943 -2.500000 1.296943 0.000000 -0.000000 1.000000 0.625000 0.000000
-5.996943 2.500000 1.296943 0.717830 0.000000 -0.696218 0.625000 0.250000
-5.800000 2.500000 1.500000 0.717830 0.000000 -0.696218 0.625000 0.250000
-5.800000 -2.500000 1.500000 0.717830 0.000000 -0.696218 0.625000 0.000000
-5.996943 -2.500000 1.296943 0.717830 0.000000 -0.696218 0.625000 0.000000
-5.800000 2.500000 1.500000 0.000000 -1.000000 0.000000 0.625000 0.250000
-5.996943 2.500000 1.296943 0.000000 -1.000000 0.000000 0.625000 0.250000
-5.996943 -2.500000 1.296943 -0.000000 1.000000 0.000000 0.625000 1.000000
-5.800000 -2.500000 1.500000 -0.000000 1.000000 0.000000 0.625000 1.000000
-5.800000 -2.500000 1.500000 0.000000 0.000000 -1.000000 0.875000 0.750000
-5.800000 2.500000 1.500000 0.000000 0.000000 -1.000000 0.875000 0.500000
-5.696943 -2.500000 1.296943 0.000000 1.000000 0.000000 0.625000 1.000000
-5.996943 -2.500000 0.996943 0.000000 1.000000 0.000000 0.625000 1.000000
-6.296943 -2.500000 0.996943 0.000000 1.000000 0.000000 0.625000 1.000000
-5.996943 -2.500000 1.296943 -0.000000 1.000000 0.000000 0.625000 1.000000
-5.696943 -2.500000 1.296943 0.000000 0.000000 0.000000 0.625000 1.000000
-5.696943 -2.500000 1.296943 0.000000 0.000000 0.000000 0.625000 1.000000
-5.996943 -2.500000 1.296943 0.000000 0.000000 0.000000 0.625000 1.000000
-5.996943 -2.500000 1.296943 0.000000 0.000000 0.000000 0.625000 1.000000
-5.996943 2.500000 1.296943 0.000000 0.000000 0.000000 0.625000 0.250000
-5.996943 2.500000 1.296943 0.000000 0.000000 0.000000 0.625000 0.250000
-5.996943 -2.500000 1.296943 0.000000 0.000000 0.000000 0.625000 0.000000
-5.996943 -2.500000 1.296943 0.000000 0.000000 0.000000 0.625000 0.000000
-6.296943 2.500000 0.996943 0.000000 -1.000000 0.000000 0.625000 0.250000
-6.296943 2.500000 -0.003057 0.000000 -1.000000 0.000000 0.625000 0.250000
-5.996943 2.500000 -0.003057 0.000000 -1.000000 0.000000 0.625000 0.250000
-5.996943 2.500000 0.996943 -0.000000 -1.000000 -0.000000 0.625000 0.250000
-5.696943 2.500000 1.296943 -0.707107 0.000000 0.707107 0.625000 0.250000
-5.996943 2.500000 0.996943 -0.707107 0.000000 0.707107 0.625000 0.250000
-5.996943 -2.500000 0.996943 -0.707107 0.000000 0.707107 0.625000 0.000000
-5.696943 -2.500000 1.296943 -0.707107 0.000000 0.707107 0.625000 0.000000
-5.996943 2.500000 1.296943 0.000000 -1.000000 0.000000 0.625000 0.250000
-5.696943 2.500000 1.296943 -0.000000 -1.000000 0.000000 0.625000 0.250000
-5.996943 -2.500000 1.296943 0.707107 0.000000 -0.707107 0.625000 0.000000
-6.296943 -2.500000 0.996943 0.707107 0.000000 -0.707107 0.625000 0.000000
-6.296943 2.500000 0.996943 0.707107 0.000000 -0.707107 0.625000 0.250000
-5.996943 2.500000 1.296943 0.707107 0.000000 -0.707107 0.625000 0.250000
-5.996943 2.500000 -0.003057 0.000000 0.000000 1.000000 0.625000 0.250000
-6.296943 2.500000 -0.003057 0.000000 0.000000 1.000000 0.625000 0.250000
-6.296943 -2.500000 -0.003057 0.000000 0.000000 1.000000 0.625000 0.000000
-5.996943 -2.500000 -0.003057 0.000000 -0.000000 1.000000 0.625000 0.000000
-6.296943 -2.500000 0.996943 1.000000 0.000000 -0.000000 0.625000 0.000000
-6.296943 -2.500000 -0.003057 1.000000 0.000000 -0.000000 0.625000 0.000000
-6.296943 2.500000 -0.003057 1.000000 0.000000 -0.000000 0.625000 0.250000
-6.296943 2.500000 0.996943 1.000000 0.000000 0.000000 0.625000 0.250000
-5.996943 -2.500000 -0.003057 0.000000 1.000000 0.000000 0.625000 1.000000
-6.296943 -2.500000 -0.003057 0.000000 1.000000 0.000000 0.625000 1.000000
-5.996943 2.500000 0.996943 -1.000000 0.000000 0.000000 0.625000 0.250000
-5.996943 2.500000 -0.003057 -1.000000 0.000000 0.000000 0.625000 0.250000
-5.996943 -2.500000 -0.003057 -1.000000 0.000000 0.000000 0.625000 0.000000
-5.996943 -2.500000 0.996943 -1.000000 0.000000 0.000000 0.625000 0.000000
3 0 1 2
3 0 2 3
3 4 5 6
3 4 6 7
3 8 9 10
3 8 10 11
3 12 13 14
3 12 14 15
3 16 17 18
3 16 18 19
3 20 21 22
3 20 22 23
3 24 25 26
3 24 26 27
3 28 29 30
3 28 30 31
3 26 32 33
3 26 33 27
3 34 35 36
3 34 36 37
3 14 34 37
3 14 37 15
3 38 39 40
3 38 40 41
3 42 28 31
3 42 31 43
3 6 20 23
3 6 23 7
3 44 45 46
3 44 46 47
3 34 48 49
3 34 49 35
3 22 50 51
3 22 51 23
3 52 53 54
3 52 54 55
3 56 57 58
3 56 58 59
3 50 60 61
3 50 61 51
3 48 62 63
3 48 63 49
3 32 64 65
3 32 65 33
3 66 67 68
3 66 68 69
3 70 71 72
3 70 72 73
3 74 75 45
3 74 45 44
3 76 77 75
3 76 75 74
3 78 79 80
3 78 80 81
3 82 83 84
3 82 84 85
3 86 78 81
3 86 81 87
3 88 89 90
3 88 90 91
3 92 93 94
3 92 94 95
3 96 97 98
3 96 98 99
3 67 100 101
3 67 101 68
3 102 103 104
3 102 104 105
