ply
format ascii 1.0
comment Created by Blender 2.80 (sub 75) - www.blender.org, source file: 'turtle.blend'
element vertex 645
property float x
property float y
property float z
property float nx
property float ny
property float nz
property uchar red
property uchar green
property uchar blue
property uchar alpha
element face 266
property list uchar uint vertex_indices
end_header
-0.000000 2.359695 -33.394455 0.819992 0.498157 -0.281872 124 171 0 255
3.460885 2.359695 -23.326427 0.819992 0.498157 -0.281872 124 171 0 255
4.894434 0.000000 -23.326427 0.819992 0.498157 -0.281872 124 171 3 255
0.000000 0.000000 -37.564781 0.819992 0.498157 -0.281872 129 174 41 255
-4.894434 0.000000 -23.326427 -0.819992 0.498157 -0.281872 126 172 27 255
-3.460885 2.359695 -23.326427 -0.819992 0.498157 -0.281872 124 171 0 255
-0.000000 2.359695 -33.394455 -0.819992 0.498157 -0.281872 124 171 0 255
0.000000 0.000000 -37.564781 -0.819992 0.498157 -0.281872 129 174 41 255
0.000000 3.337114 -23.326427 0.270609 0.958185 -0.093022 124 171 0 255
3.460885 2.359695 -23.326427 0.270609 0.958185 -0.093022 124 171 0 255
-0.000000 2.359695 -33.394455 0.270609 0.958185 -0.093022 124 171 0 255
-3.460885 2.359695 -23.326427 -0.270609 0.958185 -0.093022 124 171 0 255
0.000000 3.337114 -23.326427 -0.270609 0.958185 -0.093022 124 171 0 255
-0.000000 2.359695 -33.394455 -0.270609 0.958185 -0.093022 124 171 0 255
-4.894434 0.000000 -23.326427 0.000000 1.000000 0.000000 126 172 27 255
4.894434 0.000000 -23.326427 0.000000 1.000000 0.000000 124 171 3 255
0.000000 0.000000 -37.564781 0.000000 1.000000 0.000000 129 174 41 255
-20.044220 0.000000 -11.510463 0.000000 -1.000000 0.000000 125 171 15 255
-13.871048 0.000000 -19.251410 0.000000 -1.000000 0.000000 124 171 6 255
-4.950498 0.000000 -23.547298 0.000000 -1.000000 0.000000 124 171 0 255
4.950498 0.000000 -23.547298 0.000000 -1.000000 0.000000 124 171 0 255
13.871048 0.000000 -19.251410 -0.000000 -1.000000 0.000000 124 171 0 255
20.044220 0.000000 -11.510463 -0.000000 -1.000000 0.000000 124 171 1 255
22.247427 0.000000 -1.857660 -0.000000 -1.000000 0.000000 124 171 5 255
20.044220 0.000000 7.795142 0.000000 -1.000000 -0.000000 124 171 0 255
13.871048 0.000000 15.536089 0.000000 -1.000000 -0.000000 124 171 0 255
4.950498 0.000000 19.831978 -0.000000 -1.000000 -0.000000 124 171 0 255
-4.950498 0.000000 19.831978 0.000000 -1.000000 -0.000000 124 171 0 255
-13.871048 0.000000 15.536089 0.000000 -1.000000 -0.000000 124 171 0 255
-20.044220 0.000000 7.795142 -0.000000 -1.000000 0.000000 124 171 3 255
-22.247427 0.000000 -1.857660 0.000000 -1.000000 0.000000 124 171 9 255
-20.044220 0.000000 7.795142 -0.974928 0.000000 0.222523 124 171 3 255
-20.044220 4.449485 7.795142 -0.974928 0.000000 0.222523 124 171 2 255
-22.247427 4.449485 -1.857660 -0.974928 0.000000 0.222523 124 171 0 255
-22.247427 0.000000 -1.857660 -0.974928 0.000000 0.222523 124 171 9 255
-13.871048 0.000000 15.536089 -0.781833 0.000000 0.623488 124 171 0 255
-13.871048 4.449485 15.536089 -0.781833 0.000000 0.623488 124 171 0 255
-20.044220 4.449485 7.795142 -0.781833 0.000000 0.623488 124 171 2 255
-20.044220 0.000000 7.795142 -0.781833 0.000000 0.623488 124 171 3 255
-4.950498 0.000000 19.831978 -0.433882 0.000000 0.900970 124 171 0 255
-4.950498 4.449485 19.831978 -0.433882 0.000000 0.900970 124 171 0 255
-13.871048 4.449485 15.536089 -0.433882 0.000000 0.900970 124 171 0 255
-13.871048 0.000000 15.536089 -0.433882 0.000000 0.900970 124 171 0 255
4.950498 4.449485 19.831978 0.000000 0.000000 1.000000 124 171 0 255
-4.950498 4.449485 19.831978 0.000000 0.000000 1.000000 124 171 0 255
-4.950498 0.000000 19.831978 0.000000 0.000000 1.000000 124 171 0 255
4.950498 0.000000 19.831978 0.000000 -0.000000 1.000000 124 171 0 255
13.871048 4.449485 15.536089 0.433882 -0.000000 0.900970 124 171 0 255
4.950498 4.449485 19.831978 0.433882 -0.000000 0.900970 124 171 0 255
4.950498 0.000000 19.831978 0.433882 -0.000000 0.900970 124 171 0 255
13.871048 0.000000 15.536089 0.433882 0.000000 0.900970 124 171 0 255
20.044220 4.449485 7.795142 0.781833 -0.000000 0.623488 124 171 0 255
13.871048 4.449485 15.536089 0.781833 -0.000000 0.623488 124 171 0 255
13.871048 0.000000 15.536089 0.781833 -0.000000 0.623488 124 171 0 255
20.044220 0.000000 7.795142 0.781833 0.000000 0.623488 124 171 0 255
22.247427 4.449485 -1.857660 0.974928 -0.000000 0.222523 124 171 0 255
20.044220 4.449485 7.795142 0.974928 -0.000000 0.222523 124 171 0 255
20.044220 0.000000 7.795142 0.974928 -0.000000 0.222523 124 171 0 255
22.247427 0.000000 -1.857660 0.974928 0.000000 0.222523 124 171 5 255
20.044220 4.449485 -11.510463 0.974928 0.000000 -0.222523 124 171 0 255
22.247427 4.449485 -1.857660 0.974928 0.000000 -0.222523 124 171 0 255
22.247427 0.000000 -1.857660 0.974928 0.000000 -0.222523 124 171 5 255
20.044220 0.000000 -11.510463 0.974928 0.000000 -0.222523 124 171 1 255
13.871048 4.449485 -19.251410 0.781833 0.000000 -0.623488 124 171 0 255
20.044220 4.449485 -11.510463 0.781833 0.000000 -0.623488 124 171 0 255
20.044220 0.000000 -11.510463 0.781833 0.000000 -0.623488 124 171 1 255
13.871048 0.000000 -19.251410 0.781833 0.000000 -0.623488 124 171 0 255
4.950498 4.449485 -23.547298 0.433882 0.000000 -0.900970 124 171 0 255
13.871048 4.449485 -19.251410 0.433882 0.000000 -0.900970 124 171 0 255
13.871048 0.000000 -19.251410 0.433882 0.000000 -0.900970 124 171 0 255
4.950498 0.000000 -23.547298 0.433882 0.000000 -0.900970 124 171 0 255
-4.950498 4.449485 -23.547298 0.000000 0.000000 -1.000000 124 171 0 255
4.950498 4.449485 -23.547298 0.000000 0.000000 -1.000000 124 171 0 255
4.950498 0.000000 -23.547298 0.000000 0.000000 -1.000000 124 171 0 255
-4.950498 0.000000 -23.547298 0.000000 0.000000 -1.000000 124 171 0 255
-13.871048 0.000000 -19.251410 -0.433882 -0.000000 -0.900970 124 171 6 255
-13.871048 4.449485 -19.251410 -0.433882 -0.000000 -0.900970 124 171 8 255
-4.950498 4.449485 -23.547298 -0.433882 -0.000000 -0.900970 124 171 0 255
-4.950498 0.000000 -23.547298 -0.433882 0.000000 -0.900970 124 171 0 255
-20.044220 0.000000 -11.510463 -0.781833 -0.000000 -0.623488 125 171 15 255
-20.044220 4.449485 -11.510463 -0.781833 -0.000000 -0.623488 124 171 0 255
-13.871048 4.449485 -19.251410 -0.781833 -0.000000 -0.623488 124 171 8 255
-13.871048 0.000000 -19.251410 -0.781833 0.000000 -0.623488 124 171 6 255
-22.247427 0.000000 -1.857660 -0.974928 -0.000000 -0.222523 124 171 9 255
-22.247427 4.449485 -1.857660 -0.974928 -0.000000 -0.222523 124 171 0 255
-20.044220 4.449485 -11.510463 -0.974928 -0.000000 -0.222523 124 171 0 255
-20.044220 0.000000 -11.510463 -0.974928 0.000000 -0.222523 125 171 15 255
-20.044220 4.449485 7.795142 0.000000 1.000000 0.000000 124 171 2 255
-13.871048 4.449485 15.536089 0.000000 1.000000 0.000000 124 171 0 255
-4.950498 4.449485 19.831978 0.000000 1.000000 0.000000 124 171 0 255
4.950498 4.449485 19.831978 0.000000 1.000000 0.000000 124 171 0 255
13.871048 4.449485 15.536089 0.000000 1.000000 0.000000 124 171 0 255
20.044220 4.449485 7.795142 0.000000 1.000000 0.000000 124 171 0 255
22.247427 4.449485 -1.857660 0.000000 1.000000 0.000000 124 171 0 255
20.044220 4.449485 -11.510463 0.000000 1.000000 -0.000000 124 171 0 255
13.871048 4.449485 -19.251410 0.000000 1.000000 -0.000000 124 171 0 255
4.950498 4.449485 -23.547298 0.000000 1.000000 -0.000000 124 171 0 255
-4.950498 4.449485 -23.547298 0.000000 1.000000 -0.000000 124 171 0 255
-13.871048 4.449485 -19.251410 -0.000000 1.000000 -0.000000 124 171 8 255
-20.044220 4.449485 -11.510463 -0.000000 1.000000 -0.000000 124 171 0 255
-22.247427 4.449485 -1.857660 -0.000000 1.000000 0.000000 124 171 0 255
0.000000 8.446224 9.370660 -0.045247 0.997033 0.062277 255 7 8 255
0.000000 9.147575 -1.857660 -0.045247 0.997033 0.062277 255 5 5 255
-10.678764 8.446224 1.612080 -0.045247 0.997033 0.062277 255 0 2 255
-10.678764 6.920376 12.840413 -0.202633 0.970336 0.131862 255 0 2 255
-10.678764 8.446224 1.612080 -0.202633 0.970336 0.131862 255 0 2 255
-18.167782 6.551639 4.045427 -0.202633 0.970336 0.131862 255 0 2 255
0.000000 8.446224 9.370660 -0.062791 0.970336 0.233463 255 7 8 255
-10.678764 6.920376 12.840413 -0.062791 0.970336 0.233463 255 0 2 255
0.000000 6.551639 17.245092 -0.062791 0.970336 0.233463 255 38 38 255
0.000000 8.446224 9.370660 -0.097368 0.986184 0.134015 255 7 8 255
-10.678764 8.446224 1.612080 -0.097368 0.986184 0.134015 255 0 2 255
-10.678764 6.920376 12.840413 -0.097368 0.986184 0.134015 255 0 2 255
-10.678764 8.446224 1.612080 -0.073211 0.997033 -0.023788 255 0 2 255
0.000000 9.147575 -1.857660 -0.073211 0.997033 -0.023788 255 5 5 255
-6.599833 8.446224 -10.941551 -0.073211 0.997033 -0.023788 255 3 4 255
-17.278597 6.920376 -7.471798 -0.188025 0.970336 -0.151967 255 0 2 255
-6.599833 8.446224 -10.941551 -0.188025 0.970336 -0.151967 255 3 4 255
-11.228320 6.551639 -17.312103 -0.188025 0.970336 -0.151967 255 12 12 255
-10.678764 8.446224 1.612080 -0.241440 0.970336 0.012426 255 0 2 255
-17.278597 6.920376 -7.471798 -0.241440 0.970336 0.012426 255 0 2 255
-18.167782 6.551639 4.045427 -0.241440 0.970336 0.012426 255 0 2 255
-10.678764 8.446224 1.612080 -0.157545 0.986184 -0.051189 255 0 2 255
-6.599833 8.446224 -10.941551 -0.157545 0.986184 -0.051189 255 3 4 255
-17.278597 6.920376 -7.471798 -0.157545 0.986184 -0.051189 255 0 2 255
-6.599833 8.446224 -10.941551 0.000000 0.997033 -0.076979 255 3 4 255
0.000000 9.147575 -1.857660 0.000000 0.997033 -0.076979 255 5 5 255
6.599833 8.446224 -10.941551 0.000000 0.997033 -0.076979 255 0 2 255
0.000000 6.920376 -20.025442 0.086426 0.970336 -0.225783 255 2 3 255
6.599833 8.446224 -10.941551 0.086426 0.970336 -0.225783 255 0 2 255
11.228320 6.551639 -17.312103 0.086426 0.970336 -0.225783 255 1 3 255
-6.599833 8.446224 -10.941551 -0.086426 0.970336 -0.225783 255 3 4 255
0.000000 6.920376 -20.025442 -0.086426 0.970336 -0.225783 255 2 3 255
-11.228320 6.551639 -17.312103 -0.086426 0.970336 -0.225783 255 12 12 255
-6.599833 8.446224 -10.941551 0.000000 0.986184 -0.165652 255 3 4 255
6.599833 8.446224 -10.941551 0.000000 0.986184 -0.165652 255 0 2 255
0.000000 6.920376 -20.025442 0.000000 0.986184 -0.165652 255 2 3 255
0.000000 9.147575 -1.857660 0.073211 0.997033 -0.023788 255 5 5 255
10.678764 8.446224 1.612080 0.073211 0.997033 -0.023788 255 30 30 255
6.599833 8.446224 -10.941551 0.073211 0.997033 -0.023788 255 0 2 255
17.278597 6.920376 -7.471798 0.241440 0.970336 0.012426 255 0 2 255
10.678764 8.446224 1.612080 0.241440 0.970336 0.012426 255 30 30 255
18.167782 6.551639 4.045427 0.241440 0.970336 0.012426 255 7 7 255
6.599833 8.446224 -10.941551 0.188025 0.970336 -0.151967 255 0 2 255
17.278597 6.920376 -7.471798 0.188025 0.970336 -0.151967 255 0 2 255
11.228320 6.551639 -17.312103 0.188025 0.970336 -0.151967 255 1 3 255
6.599833 8.446224 -10.941551 0.157545 0.986184 -0.051189 255 0 2 255
10.678764 8.446224 1.612080 0.157545 0.986184 -0.051189 255 30 30 255
17.278597 6.920376 -7.471798 0.157545 0.986184 -0.051189 255 0 2 255
0.000000 9.147575 -1.857660 0.045247 0.997033 0.062277 255 5 5 255
0.000000 8.446224 9.370660 0.045247 0.997033 0.062277 255 7 8 255
10.678764 8.446224 1.612080 0.045247 0.997033 0.062277 255 30 30 255
10.678764 6.920376 12.840413 0.062791 0.970336 0.233463 255 33 33 255
0.000000 8.446224 9.370660 0.062791 0.970336 0.233463 255 7 8 255
0.000000 6.551639 17.245092 0.062791 0.970336 0.233463 255 38 38 255
10.678764 8.446224 1.612080 0.202633 0.970336 0.131862 255 30 30 255
10.678764 6.920376 12.840413 0.202633 0.970336 0.131862 255 33 33 255
18.167782 6.551639 4.045427 0.202633 0.970336 0.131862 255 7 7 255
10.678764 8.446224 1.612080 0.097368 0.986184 0.134015 255 30 30 255
0.000000 8.446224 9.370660 0.097368 0.986184 0.134015 255 7 8 255
10.678764 6.920376 12.840413 0.097368 0.986184 0.134015 255 33 33 255
0.000000 6.551639 17.245092 -0.177575 0.846795 0.501404 255 38 38 255
-10.678764 6.920376 12.840413 -0.177575 0.846795 0.501404 255 0 2 255
-6.599833 4.451497 18.454552 -0.177575 0.846795 0.501404 255 11 11 255
-10.678764 6.920376 12.840413 -0.421989 0.846795 0.323825 255 0 2 255
-18.167782 6.551639 4.045427 -0.421989 0.846795 0.323825 255 0 2 255
-17.278597 4.451497 10.695984 -0.421989 0.846795 0.323825 255 0 2 255
-6.599833 4.451497 18.454552 -0.443764 0.655752 0.610789 255 11 11 255
-10.678764 6.920376 12.840413 -0.443764 0.655752 0.610789 255 0 2 255
-17.278597 4.451497 10.695984 -0.443764 0.655752 0.610789 255 0 2 255
-18.167782 6.551639 4.045427 -0.531734 0.846797 -0.013941 255 0 2 255
-17.278597 6.920376 -7.471798 -0.531734 0.846797 -0.013941 255 0 2 255
-21.357529 4.451497 -1.857660 -0.531734 0.846797 -0.013941 255 0 2 255
-17.278597 6.920376 -7.471798 -0.438378 0.846796 -0.301266 255 0 2 255
-11.228320 6.551639 -17.312103 -0.438378 0.846796 -0.301266 255 12 12 255
-17.278597 4.451497 -14.411304 -0.438378 0.846796 -0.301266 255 72 72 255
-21.357529 4.451497 -1.857660 -0.718021 0.655757 -0.233300 255 0 2 255
-17.278597 6.920376 -7.471798 -0.718021 0.655757 -0.233300 255 0 2 255
-17.278597 4.451497 -14.411304 -0.718021 0.655757 -0.233300 255 72 72 255
-11.228320 6.551639 -17.312103 -0.151055 0.846796 -0.510018 255 12 12 255
0.000000 6.920376 -20.025442 -0.151055 0.846796 -0.510018 255 2 3 255
-6.599833 4.451497 -22.169872 -0.151055 0.846796 -0.510018 255 0 2 255
0.000000 6.920376 -20.025442 0.151055 0.846796 -0.510018 255 2 3 255
11.228320 6.551639 -17.312103 0.151055 0.846796 -0.510018 255 1 3 255
6.599833 4.451497 -22.169872 0.151055 0.846796 -0.510018 255 0 2 255
0.000000 6.920376 -20.025442 0.000000 0.655757 -0.754972 255 2 3 255
6.599833 4.451497 -22.169872 0.000000 0.655757 -0.754972 255 0 2 255
-6.599833 4.451497 -22.169872 0.000000 0.655757 -0.754972 255 0 2 255
11.228320 6.551639 -17.312103 0.438378 0.846796 -0.301266 255 1 3 255
17.278597 6.920376 -7.471798 0.438378 0.846796 -0.301266 255 0 2 255
17.278597 4.451497 -14.411304 0.438378 0.846796 -0.301266 255 0 2 255
17.278597 6.920376 -7.471798 0.531734 0.846797 -0.013941 255 0 2 255
18.167782 6.551639 4.045427 0.531734 0.846797 -0.013941 255 7 7 255
21.357529 4.451497 -1.857660 0.531734 0.846797 -0.013941 255 4 5 255
17.278597 6.920376 -7.471798 0.718021 0.655757 -0.233300 255 0 2 255
21.357529 4.451497 -1.857660 0.718021 0.655757 -0.233300 255 4 5 255
17.278597 4.451497 -14.411304 0.718021 0.655757 -0.233300 255 0 2 255
18.167782 6.551639 4.045427 0.421989 0.846795 0.323825 255 7 7 255
10.678764 6.920376 12.840413 0.421989 0.846795 0.323825 255 33 33 255
17.278597 4.451497 10.695984 0.421989 0.846795 0.323825 255 85 85 255
10.678764 6.920376 12.840413 0.177575 0.846795 0.501404 255 33 33 255
0.000000 6.551639 17.245092 0.177575 0.846795 0.501404 255 38 38 255
6.599833 4.451497 18.454552 0.177575 0.846795 0.501404 255 2 3 255
10.678764 6.920376 12.840413 0.443764 0.655752 0.610789 255 33 33 255
6.599833 4.451497 18.454552 0.443764 0.655752 0.610789 255 2 3 255
17.278597 4.451497 10.695984 0.443764 0.655752 0.610789 255 85 85 255
-17.278597 4.451497 10.695984 -0.824156 0.499057 0.267785 255 0 2 255
-18.167782 6.551639 4.045427 -0.824156 0.499057 0.267785 255 0 2 255
-21.357529 4.451497 -1.857660 -0.824156 0.499057 0.267785 255 0 2 255
-17.278597 4.451497 -14.411304 -0.509357 0.499055 -0.701070 255 72 72 255
-11.228320 6.551639 -17.312103 -0.509357 0.499055 -0.701070 255 12 12 255
-6.599833 4.451497 -22.169872 -0.509357 0.499055 -0.701070 255 0 2 255
11.228320 6.551639 -17.312103 0.509357 0.499055 -0.701070 255 1 3 255
17.278597 4.451497 -14.411304 0.509357 0.499055 -0.701070 255 0 2 255
6.599833 4.451497 -22.169872 0.509357 0.499055 -0.701070 255 0 2 255
18.167782 6.551639 4.045427 0.824156 0.499057 0.267785 255 7 7 255
17.278597 4.451497 10.695984 0.824156 0.499057 0.267785 255 85 85 255
21.357529 4.451497 -1.857660 0.824156 0.499057 0.267785 255 4 5 255
0.000000 6.551639 17.245092 0.000000 0.499053 0.866571 255 38 38 255
-6.599833 4.451497 18.454552 0.000000 0.499053 0.866571 255 11 11 255
6.599833 4.451497 18.454552 0.000000 0.499053 0.866571 255 2 3 255
-4.719391 0.000000 34.306732 -0.942863 0.236851 0.234329 124 171 1 255
-4.087115 3.559588 33.252914 -0.942863 0.236851 0.234329 124 171 0 255
-5.780059 3.559588 26.441067 -0.942863 0.236851 0.234329 124 171 0 255
-4.719391 0.000000 34.306732 -0.942865 0.236848 0.234328 124 171 1 255
-5.780059 3.559588 26.441067 -0.942865 0.236848 0.234328 124 171 0 255
-6.674228 0.000000 26.441067 -0.942865 0.236848 0.234328 124 171 0 255
0.000000 0.000000 37.564781 -0.537134 0.325753 0.778056 124 171 7 255
-0.000000 3.559588 36.074471 -0.537134 0.325753 0.778056 124 171 0 255
-4.087115 3.559588 33.252914 -0.537134 0.325753 0.778056 124 171 0 255
-4.719391 0.000000 34.306732 -0.537134 0.325753 0.778056 124 171 1 255
4.087115 3.559588 33.252914 0.537134 0.325753 0.778056 126 172 24 255
-0.000000 3.559588 36.074471 0.537134 0.325753 0.778056 124 171 0 255
0.000000 0.000000 37.564781 0.537134 0.325753 0.778056 124 171 7 255
4.719391 0.000000 34.306732 0.537134 0.325753 0.778056 131 175 50 255
5.780059 3.559588 26.441067 0.942863 0.236851 0.234329 124 171 0 255
4.087115 3.559588 33.252914 0.942863 0.236851 0.234329 126 172 24 255
4.719391 0.000000 34.306732 0.942863 0.236851 0.234329 131 175 50 255
5.780059 3.559588 26.441067 0.942865 0.236848 0.234328 124 171 0 255
4.719391 0.000000 34.306732 0.942865 0.236848 0.234328 131 175 50 255
6.674228 0.000000 26.441067 0.942865 0.236848 0.234328 124 171 1 255
-4.087115 3.559588 33.252914 -0.717832 0.672971 0.178402 124 171 0 255
-2.359695 6.165384 30.373877 -0.717832 0.672971 0.178402 124 171 0 255
-3.337114 6.165384 26.441067 -0.717832 0.672971 0.178402 124 171 0 255
-5.780059 3.559588 26.441067 -0.717832 0.672971 0.178402 124 171 0 255
-0.000000 3.559588 36.074471 -0.348775 0.789382 0.505205 124 171 0 255
-0.000000 6.165384 32.002922 -0.348775 0.789382 0.505205 124 171 5 255
-2.359695 6.165384 30.373877 -0.348775 0.789382 0.505205 124 171 0 255
-0.000000 3.559588 36.074471 -0.348770 0.789384 0.505205 124 171 0 255
-2.359695 6.165384 30.373877 -0.348770 0.789384 0.505205 124 171 0 255
-4.087115 3.559588 33.252914 -0.348770 0.789384 0.505205 124 171 0 255
2.359695 6.165384 30.373877 0.348775 0.789382 0.505205 124 171 2 255
-0.000000 6.165384 32.002922 0.348775 0.789382 0.505205 124 171 5 255
-0.000000 3.559588 36.074471 0.348775 0.789382 0.505205 124 171 0 255
2.359695 6.165384 30.373877 0.348770 0.789385 0.505205 124 171 2 255
-0.000000 3.559588 36.074471 0.348770 0.789385 0.505205 124 171 0 255
4.087115 3.559588 33.252914 0.348770 0.789385 0.505205 126 172 24 255
3.337114 6.165384 26.441067 0.717832 0.672971 0.178402 127 173 29 255
2.359695 6.165384 30.373877 0.717832 0.672971 0.178402 124 171 2 255
4.087115 3.559588 33.252914 0.717832 0.672971 0.178402 126 172 24 255
5.780059 3.559588 26.441067 0.717832 0.672971 0.178402 124 171 0 255
-2.359695 6.165384 30.373877 -0.274171 0.959264 0.068139 124 171 0 255
0.000000 7.119176 26.441067 -0.274171 0.959264 0.068139 127 173 30 255
-3.337114 6.165384 26.441067 -0.274171 0.959264 0.068139 124 171 0 255
-0.000000 6.165384 32.002922 -0.115899 0.978970 0.167882 124 171 5 255
0.000000 7.119176 26.441067 -0.115899 0.978970 0.167882 127 173 30 255
-2.359695 6.165384 30.373877 -0.115899 0.978970 0.167882 124 171 0 255
0.000000 7.119176 26.441067 0.115899 0.978970 0.167882 127 173 30 255
-0.000000 6.165384 32.002922 0.115899 0.978970 0.167882 124 171 5 255
2.359695 6.165384 30.373877 0.115899 0.978970 0.167882 124 171 2 255
0.000000 7.119176 26.441067 0.274171 0.959264 0.068139 127 173 30 255
2.359695 6.165384 30.373877 0.274171 0.959264 0.068139 124 171 2 255
3.337114 6.165384 26.441067 0.274171 0.959264 0.068139 127 173 29 255
0.000000 7.119176 26.441067 0.274171 0.959264 -0.068139 127 173 30 255
3.337114 6.165384 26.441067 0.274171 0.959264 -0.068139 127 173 29 255
2.359695 6.165384 22.508255 0.274171 0.959264 -0.068139 128 173 38 255
0.000000 7.119176 26.441067 0.115899 0.978970 -0.167882 127 173 30 255
2.359695 6.165384 22.508255 0.115899 0.978970 -0.167882 128 173 38 255
-0.000000 6.165384 20.879210 0.115899 0.978970 -0.167882 124 171 0 255
-2.359695 6.165384 22.508255 -0.115899 0.978970 -0.167882 124 171 0 255
0.000000 7.119176 26.441067 -0.115899 0.978970 -0.167882 127 173 30 255
-0.000000 6.165384 20.879210 -0.115899 0.978970 -0.167882 124 171 0 255
-3.337114 6.165384 26.441067 -0.274171 0.959264 -0.068139 124 171 0 255
0.000000 7.119176 26.441067 -0.274171 0.959264 -0.068139 127 173 30 255
-2.359695 6.165384 22.508255 -0.274171 0.959264 -0.068139 124 171 0 255
-4.099200 3.559588 19.677849 -0.942864 0.236853 -0.234326 151 187 99 255
-4.993390 0.000000 19.677849 -0.942864 0.236853 -0.234326 124 171 2 255
-6.674228 0.000000 26.441067 -0.942864 0.236853 -0.234326 124 171 0 255
-4.099200 3.559588 19.677849 -0.942864 0.236847 -0.234330 151 187 99 255
-6.674228 0.000000 26.441067 -0.942864 0.236847 -0.234330 124 171 0 255
-5.780059 3.559588 26.441067 -0.942864 0.236847 -0.234330 124 171 0 255
-3.337114 6.165384 26.441067 -0.717833 0.672970 -0.178402 124 171 0 255
-2.359695 6.165384 22.508255 -0.717833 0.672970 -0.178402 124 171 0 255
-4.057930 3.603607 19.677849 -0.717833 0.672970 -0.178402 146 183 87 255
-3.337114 6.165384 26.441067 -0.717821 0.672982 -0.178408 124 171 0 255
-4.057930 3.603607 19.677849 -0.717821 0.672982 -0.178408 146 183 87 255
-4.099200 3.559588 19.677849 -0.717821 0.672982 -0.178408 151 187 99 255
-3.337114 6.165384 26.441067 -0.717832 0.672971 -0.178402 124 171 0 255
-4.099200 3.559588 19.677849 -0.717832 0.672971 -0.178402 151 187 99 255
-5.780059 3.559588 26.441067 -0.717832 0.672971 -0.178402 124 171 0 255
-2.359695 6.165384 22.508255 -0.348774 0.789382 -0.505205 124 171 0 255
-0.000000 6.165384 20.879210 -0.348774 0.789382 -0.505205 124 171 0 255
-0.000000 5.396513 19.677849 -0.348774 0.789382 -0.505205 124 171 0 255
-2.359695 6.165384 22.508255 -0.348772 0.789384 -0.505203 124 171 0 255
-0.000000 5.396513 19.677849 -0.348772 0.789384 -0.505203 124 171 0 255
-4.057930 3.603607 19.677849 -0.348772 0.789384 -0.505203 146 183 87 255
4.099200 3.559588 19.677849 0.717819 0.672980 -0.178419 124 171 1 255
4.057930 3.603607 19.677849 0.717819 0.672980 -0.178419 124 171 0 255
2.359695 6.165384 22.508255 0.717819 0.672980 -0.178419 128 173 38 255
4.099200 3.559588 19.677849 0.717832 0.672970 -0.178402 124 171 1 255
2.359695 6.165384 22.508255 0.717832 0.672970 -0.178402 128 173 38 255
3.337114 6.165384 26.441067 0.717832 0.672970 -0.178402 127 173 29 255
4.099200 3.559588 19.677849 0.717832 0.672971 -0.178402 124 171 1 255
3.337114 6.165384 26.441067 0.717832 0.672971 -0.178402 127 173 29 255
5.780059 3.559588 26.441067 0.717832 0.672971 -0.178402 124 171 0 255
4.057930 3.603607 19.677849 0.717825 0.672986 -0.178373 124 171 0 255
4.099200 3.559588 19.677849 0.717825 0.672986 -0.178373 124 171 1 255
4.087115 3.559588 19.629215 0.717825 0.672986 -0.178373 124 171 1 255
-0.000000 5.396513 19.677849 0.348774 0.789382 -0.505205 124 171 0 255
-0.000000 6.165384 20.879210 0.348774 0.789382 -0.505205 124 171 0 255
2.359695 6.165384 22.508255 0.348774 0.789382 -0.505205 128 173 38 255
-0.000000 5.396513 19.677849 0.348772 0.789384 -0.505203 124 171 0 255
2.359695 6.165384 22.508255 0.348772 0.789384 -0.505203 128 173 38 255
4.057930 3.603607 19.677849 0.348772 0.789384 -0.505203 124 171 0 255
6.674228 0.000000 26.441067 0.942864 0.236853 -0.234326 124 171 1 255
4.993390 0.000000 19.677849 0.942864 0.236853 -0.234326 124 171 0 255
4.099200 3.559588 19.677849 0.942864 0.236853 -0.234326 124 171 1 255
6.674228 0.000000 26.441067 0.942864 0.236848 -0.234330 124 171 1 255
4.099200 3.559588 19.677849 0.942864 0.236848 -0.234330 124 171 1 255
5.780059 3.559588 26.441067 0.942864 0.236848 -0.234330 124 171 0 255
-4.993390 0.000000 19.677849 0.000000 1.000000 0.000000 124 171 2 255
-6.674228 0.000000 26.441067 0.000000 1.000000 0.000000 124 171 0 255
-4.719391 0.000000 34.306732 0.000000 1.000000 0.000000 124 171 1 255
0.000000 0.000000 37.564781 -0.000000 1.000000 0.000000 124 171 7 255
4.719391 0.000000 34.306732 0.000000 1.000000 0.000000 131 175 50 255
6.674228 0.000000 26.441067 -0.000000 1.000000 0.000000 124 171 1 255
4.993390 0.000000 19.677849 0.000000 1.000000 -0.000000 124 171 0 255
-4.057930 3.603607 19.677849 -0.000000 0.000000 -1.000000 146 183 87 255
-0.000000 5.396513 19.677849 -0.000000 0.000000 -1.000000 124 171 0 255
4.057930 3.603607 19.677849 -0.000000 0.000000 -1.000000 124 171 0 255
-4.057930 3.603607 19.677849 0.000000 0.741405 -0.671057 146 183 87 255
4.057930 3.603607 19.677849 0.000000 0.741405 -0.671057 124 171 0 255
4.087115 3.559588 19.629215 0.000000 0.741405 -0.671057 124 171 1 255
-4.057930 3.603607 19.677849 -0.005396 -0.999985 0.001341 146 183 87 255
4.087115 3.559588 19.629215 -0.005396 -0.999985 0.001341 124 171 1 255
4.099200 3.559588 19.677849 -0.005396 -0.999985 0.001341 124 171 1 255
4.099200 3.559588 19.677849 0.000000 0.000000 -1.000000 124 171 1 255
4.993390 0.000000 19.677849 0.000000 0.000000 -1.000000 124 171 0 255
-4.993390 0.000000 19.677849 0.000000 0.000000 -1.000000 124 171 2 255
-4.099200 3.559588 19.677849 0.000000 -0.000000 -1.000000 151 187 99 255
-4.057930 3.603607 19.677849 0.717825 -0.672986 0.178373 146 183 87 255
-4.099200 3.559588 19.677849 0.717825 -0.672986 0.178373 151 187 99 255
-4.087115 3.559588 19.629215 0.717825 -0.672986 0.178373 239 244 233 255
-16.799921 1.989872 19.335283 0.058585 0.909309 0.411976 124 171 2 255
-20.617313 4.449485 14.449303 0.058585 0.909309 0.411976 124 171 0 255
-25.307426 1.989872 20.545099 0.058585 0.909309 0.411976 124 171 0 255
-25.307426 1.989872 20.545099 -0.356837 0.928777 0.100204 124 171 0 255
-20.617313 4.449485 14.449303 -0.356837 0.928777 0.100204 124 171 0 255
-27.333323 1.989872 13.330703 -0.356837 0.928777 0.100204 124 171 0 255
-27.500000 0.000000 15.428011 -0.904229 0.343354 0.253925 124 171 0 255
-26.487028 0.000000 19.035210 -0.904229 0.343354 0.253925 124 171 4 255
-25.307426 1.989872 20.545099 -0.904229 0.343354 0.253925 124 171 0 255
-27.500000 0.000000 15.428011 -0.904226 0.343368 0.253918 124 171 0 255
-25.307426 1.989872 20.545099 -0.904226 0.343368 0.253918 124 171 0 255
-27.333323 1.989872 13.330703 -0.904226 0.343368 0.253918 124 171 0 255
-25.883991 0.000000 11.446968 -0.882792 -0.303751 -0.358348 124 171 0 255
-27.500000 0.000000 15.428011 -0.882792 -0.303751 -0.358348 124 171 0 255
-27.333323 1.989872 13.330703 -0.882792 -0.303751 -0.358348 124 171 0 255
-26.487028 0.000000 19.035210 -0.465127 -0.343388 0.815930 124 171 4 255
-23.232054 0.000000 20.890734 -0.465127 -0.343388 0.815930 124 171 0 255
-25.307426 1.989872 20.545099 -0.465127 -0.343388 0.815930 124 171 0 255
-23.232054 0.000000 20.890734 0.134127 0.303772 0.943256 124 171 0 255
-18.978302 0.000000 20.285870 0.134127 0.303772 0.943256 124 171 1 255
-16.799921 1.989872 19.335283 0.134127 0.303772 0.943256 124 171 2 255
-23.232054 0.000000 20.890734 0.134138 0.303743 0.943264 124 171 0 255
-16.799921 1.989872 19.335283 0.134138 0.303743 0.943264 124 171 2 255
-25.307426 1.989872 20.545099 0.134138 0.303743 0.943264 124 171 0 255
-18.978302 0.000000 20.285870 0.590098 -0.285193 0.755281 124 171 1 255
-15.350636 0.000000 17.451591 0.590098 -0.285193 0.755281 124 171 0 255
-16.799921 1.989872 19.335283 0.590098 -0.285193 0.755281 124 171 2 255
-20.617313 4.449485 14.449303 -0.271129 0.897850 -0.346921 124 171 0 255
-20.082750 2.011933 7.723015 -0.271129 0.897850 -0.346921 124 171 1 255
-20.110828 1.989872 7.687865 -0.271129 0.897850 -0.346921 124 171 1 255
-20.617313 4.449485 14.449303 -0.271047 0.897874 -0.346924 124 171 0 255
-20.110828 1.989872 7.687865 -0.271047 0.897874 -0.346924 124 171 1 255
-27.333323 1.989872 13.330703 -0.271047 0.897874 -0.346924 124 171 0 255
-20.110828 1.989872 7.687865 -0.271259 0.897851 -0.346818 124 171 1 255
-20.082750 2.011933 7.723015 -0.271259 0.897851 -0.346818 124 171 1 255
-20.077946 1.989872 7.662147 -0.271259 0.897851 -0.346818 124 171 1 255
-20.110828 1.989872 7.687865 -0.590020 0.285069 -0.755388 124 171 1 255
-20.117546 1.953684 7.679456 -0.590020 0.285069 -0.755388 124 171 0 255
-22.256325 0.000000 8.612735 -0.590020 0.285069 -0.755388 127 172 30 255
-20.110828 1.989872 7.687865 -0.590092 0.285194 -0.755286 124 171 1 255
-22.256325 0.000000 8.612735 -0.590092 0.285194 -0.755286 127 172 30 255
-25.883991 0.000000 11.446968 -0.590092 0.285194 -0.755286 124 171 0 255
-20.110828 1.989872 7.687865 -0.590092 0.285201 -0.755283 124 171 1 255
-25.883991 0.000000 11.446968 -0.590092 0.285201 -0.755283 124 171 0 255
-27.333323 1.989872 13.330703 -0.590092 0.285201 -0.755283 124 171 0 255
-20.117546 1.953684 7.679456 -0.590513 0.285071 -0.755002 124 171 0 255
-20.110828 1.989872 7.687865 -0.590513 0.285071 -0.755002 124 171 1 255
-20.077946 1.989872 7.662147 -0.590513 0.285071 -0.755002 124 171 1 255
-20.117546 1.953684 7.679456 -0.134133 -0.303756 -0.943261 124 171 0 255
-19.666769 0.000000 8.244495 -0.134133 -0.303756 -0.943261 126 172 25 255
-22.256325 0.000000 8.612735 -0.134133 -0.303756 -0.943261 127 172 30 255
-16.240488 2.922355 12.539406 0.183555 0.928777 -0.321994 124 171 0 255
-20.082750 2.011933 7.723015 0.183555 0.928777 -0.321994 124 171 1 255
-20.617313 4.449485 14.449303 0.183555 0.928777 -0.321994 124 171 0 255
-14.782971 1.989872 14.366453 0.385565 0.909310 0.156509 124 171 0 255
-16.240488 2.922355 12.539406 0.385565 0.909310 0.156509 124 171 0 255
-20.617313 4.449485 14.449303 0.385565 0.909310 0.156509 124 171 0 255
-16.799921 1.989872 19.335283 0.385565 0.909310 0.156509 124 171 2 255
-15.350636 0.000000 17.451591 0.882784 0.303765 0.358356 124 171 0 255
-14.329165 0.000000 14.935274 0.882784 0.303765 0.358356 124 171 6 255
-14.782971 1.989872 14.366453 0.882784 0.303765 0.358356 124 171 0 255
-15.350636 0.000000 17.451591 0.882796 0.303744 0.358345 124 171 0 255
-14.782971 1.989872 14.366453 0.882796 0.303744 0.358345 124 171 0 255
-16.799921 1.989872 19.335283 0.882796 0.303744 0.358345 124 171 2 255
-14.329165 0.000000 14.935274 0.000000 -1.000000 0.000000 124 171 6 255
-15.350636 0.000000 17.451591 0.000000 -1.000000 0.000000 124 171 0 255
-18.978302 0.000000 20.285870 0.000000 -1.000000 0.000000 124 171 1 255
-23.232054 0.000000 20.890734 -0.000000 -1.000000 -0.000000 124 171 0 255
-26.487028 0.000000 19.035210 -0.000000 -1.000000 -0.000000 124 171 4 255
-27.500000 0.000000 15.428011 0.000000 -1.000000 0.000000 124 171 0 255
-25.883991 0.000000 11.446968 0.000000 -1.000000 0.000000 124 171 0 255
-22.256325 0.000000 8.612735 0.000000 -1.000000 0.000000 127 172 30 255
-19.666769 0.000000 8.244495 0.000000 -1.000000 0.000000 126 172 25 255
20.617313 4.449485 14.449303 -0.058585 0.909309 0.411976 124 171 2 255
16.799921 1.989872 19.335283 -0.058585 0.909309 0.411976 124 171 0 255
25.307426 1.989872 20.545099 -0.058585 0.909309 0.411976 125 171 10 255
20.617313 4.449485 14.449303 0.356837 0.928777 0.100204 124 171 2 255
25.307426 1.989872 20.545099 0.356837 0.928777 0.100204 125 171 10 255
27.333323 1.989872 13.330703 0.356837 0.928777 0.100204 124 171 5 255
25.307426 1.989872 20.545099 0.904229 0.343354 0.253925 125 171 10 255
26.487028 0.000000 19.035210 0.904229 0.343354 0.253925 124 171 0 255
27.500000 0.000000 15.428011 0.904229 0.343354 0.253925 127 173 29 255
25.307426 1.989872 20.545099 0.904226 0.343368 0.253918 125 171 10 255
27.500000 0.000000 15.428011 0.904226 0.343368 0.253918 127 173 29 255
27.333323 1.989872 13.330703 0.904226 0.343368 0.253918 124 171 5 255
27.500000 0.000000 15.428011 0.882792 -0.303751 -0.358348 127 173 29 255
25.883991 0.000000 11.446968 0.882792 -0.303751 -0.358348 124 171 0 255
27.333323 1.989872 13.330703 0.882792 -0.303751 -0.358348 124 171 5 255
23.232054 0.000000 20.890734 0.465127 -0.343388 0.815930 126 173 27 255
26.487028 0.000000 19.035210 0.465127 -0.343388 0.815930 124 171 0 255
25.307426 1.989872 20.545099 0.465127 -0.343388 0.815930 125 171 10 255
16.799921 1.989872 19.335283 -0.134127 0.303772 0.943256 124 171 0 255
18.978302 0.000000 20.285870 -0.134127 0.303772 0.943256 132 176 53 255
23.232054 0.000000 20.890734 -0.134127 0.303772 0.943256 126 173 27 255
16.799921 1.989872 19.335283 -0.134138 0.303743 0.943264 124 171 0 255
23.232054 0.000000 20.890734 -0.134138 0.303743 0.943264 126 173 27 255
25.307426 1.989872 20.545099 -0.134138 0.303743 0.943264 125 171 10 255
15.350636 0.000000 17.451591 -0.590098 -0.285193 0.755281 137 178 67 255
18.978302 0.000000 20.285870 -0.590098 -0.285193 0.755281 132 176 53 255
16.799921 1.989872 19.335283 -0.590098 -0.285193 0.755281 124 171 0 255
20.110828 1.989872 7.687865 0.271129 0.897850 -0.346921 124 171 0 255
20.082750 2.011933 7.723015 0.271129 0.897850 -0.346921 124 171 0 255
20.617313 4.449485 14.449303 0.271129 0.897850 -0.346921 124 171 2 255
20.110828 1.989872 7.687865 0.271047 0.897874 -0.346924 124 171 0 255
20.617313 4.449485 14.449303 0.271047 0.897874 -0.346924 124 171 2 255
27.333323 1.989872 13.330703 0.271047 0.897874 -0.346924 124 171 5 255
20.082750 2.011933 7.723015 0.271259 0.897851 -0.346818 124 171 0 255
20.110828 1.989872 7.687865 0.271259 0.897851 -0.346818 124 171 0 255
20.077946 1.989872 7.662147 0.271259 0.897851 -0.346818 124 171 0 255
25.883991 0.000000 11.446968 0.590091 0.285196 -0.755285 124 171 0 255
22.256325 0.000000 8.612735 0.590091 0.285196 -0.755285 124 171 0 255
20.117546 1.953684 7.679456 0.590091 0.285196 -0.755285 124 171 0 255
25.883991 0.000000 11.446968 0.590084 0.285069 -0.755339 124 171 0 255
20.117546 1.953684 7.679456 0.590084 0.285069 -0.755339 124 171 0 255
20.110828 1.989872 7.687865 0.590084 0.285069 -0.755339 124 171 0 255
25.883991 0.000000 11.446968 0.590092 0.285201 -0.755283 124 171 0 255
20.110828 1.989872 7.687865 0.590092 0.285201 -0.755283 124 171 0 255
27.333323 1.989872 13.330703 0.590092 0.285201 -0.755283 124 171 5 255
20.110828 1.989872 7.687865 0.590513 0.285071 -0.755002 124 171 0 255
20.117546 1.953684 7.679456 0.590513 0.285071 -0.755002 124 171 0 255
20.077946 1.989872 7.662147 0.590513 0.285071 -0.755002 124 171 0 255
19.666769 0.000000 8.244495 0.134133 -0.303756 -0.943261 124 171 0 255
20.117546 1.953684 7.679456 0.134133 -0.303756 -0.943261 124 171 0 255
22.256325 0.000000 8.612735 0.134133 -0.303756 -0.943261 124 171 0 255
20.082750 2.011933 7.723015 -0.183555 0.928777 -0.321994 124 171 0 255
16.240488 2.922355 12.539406 -0.183555 0.928777 -0.321994 124 171 1 255
20.617313 4.449485 14.449303 -0.183555 0.928777 -0.321994 124 171 2 255
20.617313 4.449485 14.449303 -0.385565 0.909310 0.156509 124 171 2 255
16.240488 2.922355 12.539406 -0.385565 0.909310 0.156509 124 171 1 255
14.782971 1.989872 14.366453 -0.385565 0.909310 0.156509 124 171 0 255
16.799921 1.989872 19.335283 -0.385565 0.909310 0.156509 124 171 0 255
14.782971 1.989872 14.366453 -0.882784 0.303765 0.358356 124 171 0 255
14.329165 0.000000 14.935274 -0.882784 0.303765 0.358356 124 171 0 255
15.350636 0.000000 17.451591 -0.882784 0.303765 0.358356 137 178 67 255
14.782971 1.989872 14.366453 -0.882796 0.303744 0.358345 124 171 0 255
15.350636 0.000000 17.451591 -0.882796 0.303744 0.358345 137 178 67 255
16.799921 1.989872 19.335283 -0.882796 0.303744 0.358345 124 171 0 255
22.256325 0.000000 8.612735 0.000000 -1.000000 0.000000 124 171 0 255
25.883991 0.000000 11.446968 0.000000 -1.000000 0.000000 124 171 0 255
27.500000 0.000000 15.428011 0.000000 -1.000000 0.000000 127 173 29 255
26.487028 0.000000 19.035210 0.000000 -1.000000 -0.000000 124 171 0 255
23.232054 0.000000 20.890734 0.000000 -1.000000 -0.000000 126 173 27 255
18.978302 0.000000 20.285870 0.000000 -1.000000 -0.000000 132 176 53 255
15.350636 0.000000 17.451591 -0.000000 -1.000000 -0.000000 137 178 67 255
14.329165 0.000000 14.935274 0.000000 -1.000000 0.000000 124 171 0 255
19.666769 0.000000 8.244495 0.000000 -1.000000 0.000000 124 171 0 255
-20.617313 4.449485 -18.164623 0.058585 0.909309 -0.411976 124 171 0 255
-16.799921 1.989872 -23.050604 0.058585 0.909309 -0.411976 125 171 13 255
-25.307426 1.989872 -24.260420 0.058585 0.909309 -0.411976 125 172 13 255
-20.617313 4.449485 -18.164623 -0.356837 0.928777 -0.100204 124 171 0 255
-25.307426 1.989872 -24.260420 -0.356837 0.928777 -0.100204 125 172 13 255
-27.333323 1.989872 -17.046024 -0.356837 0.928777 -0.100204 124 171 0 255
-25.307426 1.989872 -24.260420 -0.904229 0.343354 -0.253925 125 172 13 255
-26.487028 0.000000 -22.750530 -0.904229 0.343354 -0.253925 124 171 0 255
-27.500000 0.000000 -19.143332 -0.904229 0.343354 -0.253925 150 185 97 255
-25.307426 1.989872 -24.260420 -0.904226 0.343368 -0.253918 125 172 13 255
-27.500000 0.000000 -19.143332 -0.904226 0.343368 -0.253918 150 185 97 255
-27.333323 1.989872 -17.046024 -0.904226 0.343368 -0.253918 124 171 0 255
-27.500000 0.000000 -19.143332 -0.882792 -0.303751 0.358348 150 185 97 255
-25.883991 0.000000 -15.162289 -0.882792 -0.303751 0.358348 124 171 1 255
-27.333323 1.989872 -17.046024 -0.882792 -0.303751 0.358348 124 171 0 255
-23.232054 0.000000 -24.606054 -0.465127 -0.343388 -0.815930 124 171 0 255
-26.487028 0.000000 -22.750530 -0.465127 -0.343388 -0.815930 124 171 0 255
-25.307426 1.989872 -24.260420 -0.465127 -0.343388 -0.815930 125 172 13 255
-16.799921 1.989872 -23.050604 0.134127 0.303772 -0.943256 125 171 13 255
-18.978302 0.000000 -24.001190 0.134127 0.303772 -0.943256 124 171 0 255
-23.232054 0.000000 -24.606054 0.134127 0.303772 -0.943256 124 171 0 255
-16.799921 1.989872 -23.050604 0.134138 0.303743 -0.943264 125 171 13 255
-23.232054 0.000000 -24.606054 0.134138 0.303743 -0.943264 124 171 0 255
-25.307426 1.989872 -24.260420 0.134138 0.303743 -0.943264 125 172 13 255
-15.350636 0.000000 -21.166912 0.590098 -0.285193 -0.755281 138 178 68 255
-18.978302 0.000000 -24.001190 0.590098 -0.285193 -0.755281 124 171 0 255
-16.799921 1.989872 -23.050604 0.590098 -0.285193 -0.755281 125 171 13 255
-20.110828 1.989872 -11.403186 -0.271129 0.897850 0.346921 124 171 0 255
-20.082750 2.011933 -11.438335 -0.271129 0.897850 0.346921 124 171 0 255
-20.617313 4.449485 -18.164623 -0.271129 0.897850 0.346921 124 171 0 255
-20.110828 1.989872 -11.403186 -0.271047 0.897874 0.346924 124 171 0 255
-20.617313 4.449485 -18.164623 -0.271047 0.897874 0.346924 124 171 0 255
-27.333323 1.989872 -17.046024 -0.271047 0.897874 0.346924 124 171 0 255
-20.082750 2.011933 -11.438335 -0.271259 0.897851 0.346818 124 171 0 255
-20.110828 1.989872 -11.403186 -0.271259 0.897851 0.346818 124 171 0 255
-20.077946 1.989872 -11.377467 -0.271259 0.897851 0.346818 124 171 0 255
-25.883991 0.000000 -15.162289 -0.590091 0.285196 0.755285 124 171 1 255
-22.256325 0.000000 -12.328055 -0.590091 0.285196 0.755285 124 171 0 255
-20.117546 1.953684 -11.394776 -0.590091 0.285196 0.755285 124 171 0 255
-25.883991 0.000000 -15.162289 -0.590084 0.285069 0.755339 124 171 1 255
-20.117546 1.953684 -11.394776 -0.590084 0.285069 0.755339 124 171 0 255
-20.110828 1.989872 -11.403186 -0.590084 0.285069 0.755339 124 171 0 255
-25.883991 0.000000 -15.162289 -0.590092 0.285201 0.755283 124 171 1 255
-20.110828 1.989872 -11.403186 -0.590092 0.285201 0.755283 124 171 0 255
-27.333323 1.989872 -17.046024 -0.590092 0.285201 0.755283 124 171 0 255
-20.110828 1.989872 -11.403186 -0.590513 0.285071 0.755002 124 171 0 255
-20.117546 1.953684 -11.394776 -0.590513 0.285071 0.755002 124 171 0 255
-20.077946 1.989872 -11.377467 -0.590513 0.285071 0.755002 124 171 0 255
-19.666769 0.000000 -11.959816 -0.134133 -0.303756 0.943261 138 179 67 255
-20.117546 1.953684 -11.394776 -0.134133 -0.303756 0.943261 124 171 0 255
-22.256325 0.000000 -12.328055 -0.134133 -0.303756 0.943261 124 171 0 255
-20.082750 2.011933 -11.438335 0.183555 0.928777 0.321994 124 171 0 255
-16.240488 2.922355 -16.254726 0.183555 0.928777 0.321994 124 171 2 255
-20.617313 4.449485 -18.164623 0.183555 0.928777 0.321994 124 171 0 255
-20.617313 4.449485 -18.164623 0.385565 0.909310 -0.156509 124 171 0 255
-16.240488 2.922355 -16.254726 0.385565 0.909310 -0.156509 124 171 2 255
-14.782971 1.989872 -18.081774 0.385565 0.909310 -0.156509 124 171 3 255
-16.799921 1.989872 -23.050604 0.385565 0.909310 -0.156509 125 171 13 255
-14.782971 1.989872 -18.081774 0.882784 0.303765 -0.358356 124 171 3 255
-14.329165 0.000000 -18.650595 0.882784 0.303765 -0.358356 124 171 0 255
-15.350636 0.000000 -21.166912 0.882784 0.303765 -0.358356 138 178 68 255
-14.782971 1.989872 -18.081774 0.882796 0.303744 -0.358345 124 171 3 255
-15.350636 0.000000 -21.166912 0.882796 0.303744 -0.358345 138 178 68 255
-16.799921 1.989872 -23.050604 0.882796 0.303744 -0.358345 125 171 13 255
-22.256325 0.000000 -12.328055 0.000000 -1.000000 0.000000 124 171 0 255
-25.883991 0.000000 -15.162289 0.000000 -1.000000 0.000000 124 171 1 255
-27.500000 0.000000 -19.143332 0.000000 -1.000000 0.000000 150 185 97 255
-26.487028 0.000000 -22.750530 0.000000 -1.000000 0.000000 124 171 0 255
-23.232054 0.000000 -24.606054 0.000000 -1.000000 -0.000000 124 171 0 255
-18.978302 0.000000 -24.001190 0.000000 -1.000000 -0.000000 124 171 0 255
-15.350636 0.000000 -21.166912 -0.000000 -1.000000 -0.000000 138 178 68 255
-14.329165 0.000000 -18.650595 -0.000000 -1.000000 0.000000 124 171 0 255
-19.666769 0.000000 -11.959816 -0.000000 -1.000000 -0.000000 138 179 67 255
16.799921 1.989872 -23.050604 -0.058585 0.909309 -0.411976 124 171 0 255
20.617313 4.449485 -18.164623 -0.058585 0.909309 -0.411976 124 171 0 255
25.307426 1.989872 -24.260420 -0.058585 0.909309 -0.411976 124 171 0 255
25.307426 1.989872 -24.260420 0.356837 0.928777 -0.100204 124 171 0 255
20.617313 4.449485 -18.164623 0.356837 0.928777 -0.100204 124 171 0 255
27.333323 1.989872 -17.046024 0.356837 0.928777 -0.100204 124 171 0 255
27.500000 0.000000 -19.143332 0.904229 0.343354 -0.253925 124 171 0 255
26.487028 0.000000 -22.750530 0.904229 0.343354 -0.253925 124 171 0 255
25.307426 1.989872 -24.260420 0.904229 0.343354 -0.253925 124 171 0 255
27.500000 0.000000 -19.143332 0.904226 0.343368 -0.253918 124 171 0 255
25.307426 1.989872 -24.260420 0.904226 0.343368 -0.253918 124 171 0 255
27.333323 1.989872 -17.046024 0.904226 0.343368 -0.253918 124 171 0 255
25.883991 0.000000 -15.162289 0.882792 -0.303751 0.358348 124 171 0 255
27.500000 0.000000 -19.143332 0.882792 -0.303751 0.358348 124 171 0 255
27.333323 1.989872 -17.046024 0.882792 -0.303751 0.358348 124 171 0 255
26.487028 0.000000 -22.750530 0.465127 -0.343388 -0.815930 124 171 0 255
23.232054 0.000000 -24.606054 0.465127 -0.343388 -0.815930 124 171 0 255
25.307426 1.989872 -24.260420 0.465127 -0.343388 -0.815930 124 171 0 255
23.232054 0.000000 -24.606054 -0.134127 0.303772 -0.943256 124 171 0 255
18.978302 0.000000 -24.001190 -0.134127 0.303772 -0.943256 124 171 0 255
16.799921 1.989872 -23.050604 -0.134127 0.303772 -0.943256 124 171 0 255
23.232054 0.000000 -24.606054 -0.134138 0.303743 -0.943264 124 171 0 255
16.799921 1.989872 -23.050604 -0.134138 0.303743 -0.943264 124 171 0 255
25.307426 1.989872 -24.260420 -0.134138 0.303743 -0.943264 124 171 0 255
18.978302 0.000000 -24.001190 -0.590098 -0.285193 -0.755281 124 171 0 255
15.350636 0.000000 -21.166912 -0.590098 -0.285193 -0.755281 124 171 4 255
16.799921 1.989872 -23.050604 -0.590098 -0.285193 -0.755281 124 171 0 255
20.617313 4.449485 -18.164623 0.271129 0.897850 0.346921 124 171 0 255
20.082750 2.011933 -11.438335 0.271129 0.897850 0.346921 124 171 1 255
20.110828 1.989872 -11.403186 0.271129 0.897850 0.346921 124 171 1 255
20.617313 4.449485 -18.164623 0.271047 0.897874 0.346924 124 171 0 255
20.110828 1.989872 -11.403186 0.271047 0.897874 0.346924 124 171 1 255
27.333323 1.989872 -17.046024 0.271047 0.897874 0.346924 124 171 0 255
20.110828 1.989872 -11.403186 0.271259 0.897851 0.346818 124 171 1 255
20.082750 2.011933 -11.438335 0.271259 0.897851 0.346818 124 171 1 255
20.077946 1.989872 -11.377467 0.271259 0.897851 0.346818 124 171 1 255
20.110828 1.989872 -11.403186 0.590020 0.285069 0.755388 124 171 1 255
20.117546 1.953684 -11.394776 0.590020 0.285069 0.755388 124 171 0 255
22.256325 0.000000 -12.328055 0.590020 0.285069 0.755388 125 172 17 255
20.110828 1.989872 -11.403186 0.590092 0.285194 0.755286 124 171 1 255
22.256325 0.000000 -12.328055 0.590092 0.285194 0.755286 125 172 17 255
25.883991 0.000000 -15.162289 0.590092 0.285194 0.755286 124 171 0 255
20.110828 1.989872 -11.403186 0.590092 0.285201 0.755283 124 171 1 255
25.883991 0.000000 -15.162289 0.590092 0.285201 0.755283 124 171 0 255
27.333323 1.989872 -17.046024 0.590092 0.285201 0.755283 124 171 0 255
20.117546 1.953684 -11.394776 0.590513 0.285071 0.755002 124 171 0 255
20.110828 1.989872 -11.403186 0.590513 0.285071 0.755002 124 171 1 255
20.077946 1.989872 -11.377467 0.590513 0.285071 0.755002 124 171 1 255
20.117546 1.953684 -11.394776 0.134133 -0.303756 0.943261 124 171 0 255
19.666769 0.000000 -11.959816 0.134133 -0.303756 0.943261 124 171 1 255
22.256325 0.000000 -12.328055 0.134133 -0.303756 0.943261 125 172 17 255
16.240488 2.922355 -16.254726 -0.183555 0.928777 0.321994 124 171 0 255
20.082750 2.011933 -11.438335 -0.183555 0.928777 0.321994 124 171 1 255
20.617313 4.449485 -18.164623 -0.183555 0.928777 0.321994 124 171 0 255
14.782971 1.989872 -18.081774 -0.385565 0.909310 -0.156509 124 171 0 255
16.240488 2.922355 -16.254726 -0.385565 0.909310 -0.156509 124 171 0 255
20.617313 4.449485 -18.164623 -0.385565 0.909310 -0.156509 124 171 0 255
16.799921 1.989872 -23.050604 -0.385565 0.909310 -0.156509 124 171 0 255
15.350636 0.000000 -21.166912 -0.882784 0.303765 -0.358356 124 171 4 255
14.329165 0.000000 -18.650595 -0.882784 0.303765 -0.358356 124 171 0 255
14.782971 1.989872 -18.081774 -0.882784 0.303765 -0.358356 124 171 0 255
15.350636 0.000000 -21.166912 -0.882796 0.303744 -0.358345 124 171 4 255
14.782971 1.989872 -18.081774 -0.882796 0.303744 -0.358345 124 171 0 255
16.799921 1.989872 -23.050604 -0.882796 0.303744 -0.358345 124 171 0 255
14.329165 0.000000 -18.650595 0.000000 -1.000000 0.000000 124 171 0 255
15.350636 0.000000 -21.166912 0.000000 -1.000000 0.000000 124 171 4 255
18.978302 0.000000 -24.001190 0.000000 -1.000000 0.000000 124 171 0 255
23.232054 0.000000 -24.606054 -0.000000 -1.000000 -0.000000 124 171 0 255
26.487028 0.000000 -22.750530 -0.000000 -1.000000 -0.000000 124 171 0 255
27.500000 0.000000 -19.143332 -0.000000 -1.000000 0.000000 124 171 0 255
25.883991 0.000000 -15.162289 -0.000000 -1.000000 -0.000000 124 171 0 255
22.256325 0.000000 -12.328055 0.000000 -1.000000 -0.000000 125 172 17 255
19.666769 0.000000 -11.959816 0.000000 -1.000000 -0.000000 124 171 1 255
3 0 1 2
3 0 2 3
3 4 5 6
3 4 6 7
3 8 9 10
3 11 12 13
3 14 15 16
3 17 18 19
3 17 19 20
3 17 20 21
3 17 21 22
3 17 22 23
3 17 23 24
3 17 24 25
3 17 25 26
3 17 26 27
3 17 27 28
3 17 28 29
3 17 29 30
3 31 32 33
3 31 33 34
3 35 36 37
3 35 37 38
3 39 40 41
3 39 41 42
3 43 44 45
3 43 45 46
3 47 48 49
3 47 49 50
3 51 52 53
3 51 53 54
3 55 56 57
3 55 57 58
3 59 60 61
3 59 61 62
3 63 64 65
3 63 65 66
3 67 68 69
3 67 69 70
3 71 72 73
3 71 73 74
3 75 76 77
3 75 77 78
3 79 80 81
3 79 81 82
3 83 84 85
3 83 85 86
3 87 88 89
3 87 89 90
3 87 90 91
3 87 91 92
3 87 92 93
3 87 93 94
3 87 94 95
3 87 95 96
3 87 96 97
3 87 97 98
3 87 98 99
3 87 99 100
3 101 102 103
3 104 105 106
3 107 108 109
3 110 111 112
3 113 114 115
3 116 117 118
3 119 120 121
3 122 123 124
3 125 126 127
3 128 129 130
3 131 132 133
3 134 135 136
3 137 138 139
3 140 141 142
3 143 144 145
3 146 147 148
3 149 150 151
3 152 153 154
3 155 156 157
3 158 159 160
3 161 162 163
3 164 165 166
3 167 168 169
3 170 171 172
3 173 174 175
3 176 177 178
3 179 180 181
3 182 183 184
3 185 186 187
3 188 189 190
3 191 192 193
3 194 195 196
3 197 198 199
3 200 201 202
3 203 204 205
3 206 207 208
3 209 210 211
3 212 213 214
3 215 216 217
3 218 219 220
3 221 222 223
3 224 225 226
3 227 228 229
3 227 229 230
3 231 232 233
3 231 233 234
3 235 236 237
3 238 239 240
3 241 242 243
3 241 243 244
3 245 246 247
3 248 249 250
3 251 252 253
3 254 255 256
3 257 258 259
3 257 259 260
3 261 262 263
3 264 265 266
3 267 268 269
3 270 271 272
3 273 274 275
3 276 277 278
3 279 280 281
3 282 283 284
3 285 286 287
3 288 289 290
3 291 292 293
3 294 295 296
3 297 298 299
3 300 301 302
3 303 304 305
3 306 307 308
3 309 310 311
3 312 313 314
3 315 316 317
3 318 319 320
3 321 322 323
3 324 325 326
3 327 328 329
3 330 331 332
3 330 332 333
3 330 333 334
3 330 334 335
3 330 335 336
3 337 338 339
3 340 341 342
3 343 344 345
3 337 346 347
3 337 347 348
3 337 348 349
3 350 351 352
3 353 354 355
3 356 357 358
3 359 360 361
3 362 363 364
3 365 366 367
3 368 369 370
3 371 372 373
3 374 375 376
3 377 378 379
3 380 381 382
3 383 384 385
3 386 387 388
3 389 390 391
3 392 393 394
3 395 396 397
3 398 399 400
3 401 402 403
3 404 405 406
3 407 408 409
3 407 409 410
3 411 412 413
3 414 415 416
3 417 418 419
3 417 419 420
3 417 420 421
3 417 421 422
3 417 422 423
3 417 423 424
3 417 424 425
3 426 427 428
3 429 430 431
3 432 433 434
3 435 436 437
3 438 439 440
3 441 442 443
3 444 445 446
3 447 448 449
3 450 451 452
3 453 454 455
3 456 457 458
3 459 460 461
3 462 463 464
3 465 466 467
3 468 469 470
3 471 472 473
3 474 475 476
3 477 478 479
3 480 481 482
3 480 482 483
3 484 485 486
3 487 488 489
3 490 491 492
3 490 492 493
3 490 493 494
3 490 494 495
3 490 495 496
3 490 496 497
3 490 497 498
3 499 500 501
3 502 503 504
3 505 506 507
3 508 509 510
3 511 512 513
3 514 515 516
3 517 518 519
3 520 521 522
3 523 524 525
3 526 527 528
3 529 530 531
3 532 533 534
3 535 536 537
3 538 539 540
3 541 542 543
3 544 545 546
3 547 548 549
3 550 551 552
3 553 554 555
3 553 555 556
3 557 558 559
3 560 561 562
3 563 564 565
3 563 565 566
3 563 566 567
3 563 567 568
3 563 568 569
3 563 569 570
3 563 570 571
3 572 573 574
3 575 576 577
3 578 579 580
3 581 582 583
3 584 585 586
3 587 588 589
3 590 591 592
3 593 594 595
3 596 597 598
3 599 600 601
3 602 603 604
3 605 606 607
3 608 609 610
3 611 612 613
3 614 615 616
3 617 618 619
3 620 621 622
3 623 624 625
3 626 627 628
3 626 628 629
3 630 631 632
3 633 634 635
3 636 637 638
3 636 638 639
3 636 639 640
3 636 640 641
3 636 641 642
3 636 642 643
3 636 643 644
